%TF.GenerationSoftware,KiCad,Pcbnew,5.1.6-c6e7f7d~87~ubuntu20.04.1*%
%TF.CreationDate,2020-09-12T14:26:48-04:00*%
%TF.ProjectId,IN-14_Daughter,494e2d31-345f-4446-9175-67687465722e,rev?*%
%TF.SameCoordinates,Original*%
%TF.FileFunction,OtherDrawing,Comment*%
%FSLAX46Y46*%
G04 Gerber Fmt 4.6, Leading zero omitted, Abs format (unit mm)*
G04 Created by KiCad (PCBNEW 5.1.6-c6e7f7d~87~ubuntu20.04.1) date 2020-09-12 14:26:48*
%MOMM*%
%LPD*%
G01*
G04 APERTURE LIST*
%ADD10C,0.150000*%
G04 APERTURE END LIST*
D10*
X152575142Y-83591619D02*
X152622761Y-83544000D01*
X152718000Y-83496380D01*
X152956095Y-83496380D01*
X153051333Y-83544000D01*
X153098952Y-83591619D01*
X153146571Y-83686857D01*
X153146571Y-83782095D01*
X153098952Y-83924952D01*
X152527523Y-84496380D01*
X153146571Y-84496380D01*
X153479904Y-83496380D02*
X154146571Y-83496380D01*
X153718000Y-84496380D01*
X154527523Y-84401142D02*
X154575142Y-84448761D01*
X154527523Y-84496380D01*
X154479904Y-84448761D01*
X154527523Y-84401142D01*
X154527523Y-84496380D01*
X155051333Y-84496380D02*
X155241809Y-84496380D01*
X155337047Y-84448761D01*
X155384666Y-84401142D01*
X155479904Y-84258285D01*
X155527523Y-84067809D01*
X155527523Y-83686857D01*
X155479904Y-83591619D01*
X155432285Y-83544000D01*
X155337047Y-83496380D01*
X155146571Y-83496380D01*
X155051333Y-83544000D01*
X155003714Y-83591619D01*
X154956095Y-83686857D01*
X154956095Y-83924952D01*
X155003714Y-84020190D01*
X155051333Y-84067809D01*
X155146571Y-84115428D01*
X155337047Y-84115428D01*
X155432285Y-84067809D01*
X155479904Y-84020190D01*
X155527523Y-83924952D01*
X156384666Y-83829714D02*
X156384666Y-84496380D01*
X156146571Y-83448761D02*
X155908476Y-84163047D01*
X156527523Y-84163047D01*
X157098952Y-83496380D02*
X157194190Y-83496380D01*
X157289428Y-83544000D01*
X157337047Y-83591619D01*
X157384666Y-83686857D01*
X157432285Y-83877333D01*
X157432285Y-84115428D01*
X157384666Y-84305904D01*
X157337047Y-84401142D01*
X157289428Y-84448761D01*
X157194190Y-84496380D01*
X157098952Y-84496380D01*
X157003714Y-84448761D01*
X156956095Y-84401142D01*
X156908476Y-84305904D01*
X156860857Y-84115428D01*
X156860857Y-83877333D01*
X156908476Y-83686857D01*
X156956095Y-83591619D01*
X157003714Y-83544000D01*
X157098952Y-83496380D01*
X158622761Y-84496380D02*
X158622761Y-83829714D01*
X158622761Y-83924952D02*
X158670380Y-83877333D01*
X158765619Y-83829714D01*
X158908476Y-83829714D01*
X159003714Y-83877333D01*
X159051333Y-83972571D01*
X159051333Y-84496380D01*
X159051333Y-83972571D02*
X159098952Y-83877333D01*
X159194190Y-83829714D01*
X159337047Y-83829714D01*
X159432285Y-83877333D01*
X159479904Y-83972571D01*
X159479904Y-84496380D01*
X159956095Y-84496380D02*
X159956095Y-83829714D01*
X159956095Y-83924952D02*
X160003714Y-83877333D01*
X160098952Y-83829714D01*
X160241809Y-83829714D01*
X160337047Y-83877333D01*
X160384666Y-83972571D01*
X160384666Y-84496380D01*
X160384666Y-83972571D02*
X160432285Y-83877333D01*
X160527523Y-83829714D01*
X160670380Y-83829714D01*
X160765619Y-83877333D01*
X160813238Y-83972571D01*
X160813238Y-84496380D01*
X142748000Y-85344000D02*
X170688000Y-85344000D01*
X142748000Y-89408000D02*
X142748000Y-84757579D01*
X170688000Y-89408000D02*
X170688000Y-84757579D01*
X170688000Y-85344000D02*
X169561496Y-85930421D01*
X170688000Y-85344000D02*
X169561496Y-84757579D01*
X142748000Y-85344000D02*
X143874504Y-85930421D01*
X142748000Y-85344000D02*
X143874504Y-84757579D01*
M02*
