M48
; DRILL file {KiCad 5.1.6-c6e7f7d~87~ubuntu20.04.1} date Sat Sep 12 14:26:45 2020
; FORMAT={-:-/ absolute / inch / decimal}
; #@! TF.CreationDate,2020-09-12T14:26:45-04:00
; #@! TF.GenerationSoftware,Kicad,Pcbnew,5.1.6-c6e7f7d~87~ubuntu20.04.1
FMAT,2
INCH
T1C0.0157
T2C0.0315
T3C0.0394
T4C0.0406
%
G90
G05
T1
X5.66Y-2.5
X6.56Y-3.04
T2
X6.62Y-2.6
X6.62Y-2.9
X5.76Y-2.892
X5.76Y-3.192
X5.86Y-2.892
X5.86Y-3.192
X5.96Y-2.892
X5.96Y-3.192
X6.06Y-2.892
X6.06Y-3.192
X6.16Y-2.892
X6.16Y-3.192
X6.26Y-2.892
X6.26Y-3.192
X6.36Y-2.892
X6.36Y-3.192
X6.46Y-2.892
X6.46Y-3.192
T3
X5.76Y-3.36
X5.86Y-3.36
X5.96Y-3.36
X6.06Y-3.36
X6.16Y-3.36
X6.26Y-3.36
X6.36Y-3.36
X6.46Y-3.36
X5.96Y-3.54
X5.96Y-3.64
X6.06Y-3.54
X6.06Y-3.64
X6.16Y-3.54
X6.16Y-3.64
X6.26Y-3.54
X6.26Y-3.64
T4
X5.895Y-2.3951
X5.9075Y-2.2922
X5.9318Y-2.492
X5.9664Y-2.2069
X6.0094Y-2.5607
X6.0582Y-2.1588
X6.11Y-2.5855
X6.1618Y-2.1588
X6.2106Y-2.5607
X6.2536Y-2.2069
X6.2882Y-2.492
X6.3125Y-2.2922
X6.325Y-2.3951
T0
M30
