%TF.GenerationSoftware,KiCad,Pcbnew,5.1.6-c6e7f7d~87~ubuntu20.04.1*%
%TF.CreationDate,2020-09-03T23:23:25-04:00*%
%TF.ProjectId,Nixie_Clk_Mother,4e697869-655f-4436-9c6b-5f4d6f746865,rev?*%
%TF.SameCoordinates,Original*%
%TF.FileFunction,Copper,L1,Top*%
%TF.FilePolarity,Positive*%
%FSLAX46Y46*%
G04 Gerber Fmt 4.6, Leading zero omitted, Abs format (unit mm)*
G04 Created by KiCad (PCBNEW 5.1.6-c6e7f7d~87~ubuntu20.04.1) date 2020-09-03 23:23:25*
%MOMM*%
%LPD*%
G01*
G04 APERTURE LIST*
%TA.AperFunction,ComponentPad*%
%ADD10O,1.700000X1.700000*%
%TD*%
%TA.AperFunction,ComponentPad*%
%ADD11R,1.700000X1.700000*%
%TD*%
%TA.AperFunction,ComponentPad*%
%ADD12C,1.524000*%
%TD*%
%TA.AperFunction,SMDPad,CuDef*%
%ADD13R,2.000000X2.000000*%
%TD*%
%TA.AperFunction,ComponentPad*%
%ADD14R,3.500000X3.500000*%
%TD*%
%TA.AperFunction,SMDPad,CuDef*%
%ADD15R,2.692400X1.016000*%
%TD*%
%TA.AperFunction,SMDPad,CuDef*%
%ADD16R,10.871200X10.464800*%
%TD*%
%TA.AperFunction,ViaPad*%
%ADD17C,0.800000*%
%TD*%
%TA.AperFunction,Conductor*%
%ADD18C,2.000000*%
%TD*%
%TA.AperFunction,Conductor*%
%ADD19C,0.250000*%
%TD*%
%TA.AperFunction,Conductor*%
%ADD20C,0.500000*%
%TD*%
%TA.AperFunction,Conductor*%
%ADD21C,0.254000*%
%TD*%
G04 APERTURE END LIST*
D10*
%TO.P,J7,8*%
%TO.N,/170V*%
X101854000Y-37846000D03*
%TO.P,J7,7*%
%TO.N,/GND*%
X99314000Y-37846000D03*
%TO.P,J7,6*%
%TO.N,/5V*%
X96774000Y-37846000D03*
%TO.P,J7,5*%
%TO.N,/GND*%
X94234000Y-37846000D03*
%TO.P,J7,4*%
%TO.N,Net-(J1-Pad21)*%
X91694000Y-37846000D03*
%TO.P,J7,3*%
%TO.N,Net-(J1-Pad19)*%
X89154000Y-37846000D03*
%TO.P,J7,2*%
%TO.N,Net-(J1-Pad15)*%
X86614000Y-37846000D03*
D11*
%TO.P,J7,1*%
%TO.N,Net-(J1-Pad13)*%
X84074000Y-37846000D03*
%TD*%
D10*
%TO.P,J6,8*%
%TO.N,/170V*%
X138684000Y-37846000D03*
%TO.P,J6,7*%
%TO.N,/GND*%
X136144000Y-37846000D03*
%TO.P,J6,6*%
%TO.N,/5V*%
X133604000Y-37846000D03*
%TO.P,J6,5*%
%TO.N,/GND*%
X131064000Y-37846000D03*
%TO.P,J6,4*%
%TO.N,Net-(J1-Pad33)*%
X128524000Y-37846000D03*
%TO.P,J6,3*%
%TO.N,Net-(J1-Pad31)*%
X125984000Y-37846000D03*
%TO.P,J6,2*%
%TO.N,Net-(J1-Pad25)*%
X123444000Y-37846000D03*
D11*
%TO.P,J6,1*%
%TO.N,Net-(J1-Pad23)*%
X120904000Y-37846000D03*
%TD*%
D10*
%TO.P,J5,8*%
%TO.N,/170V*%
X175514000Y-37846000D03*
%TO.P,J5,7*%
%TO.N,/GND*%
X172974000Y-37846000D03*
%TO.P,J5,6*%
%TO.N,/5V*%
X170434000Y-37846000D03*
%TO.P,J5,5*%
%TO.N,/GND*%
X167894000Y-37846000D03*
%TO.P,J5,4*%
%TO.N,Net-(J1-Pad36)*%
X165354000Y-37846000D03*
%TO.P,J5,3*%
%TO.N,Net-(J1-Pad38)*%
X162814000Y-37846000D03*
%TO.P,J5,2*%
%TO.N,Net-(J1-Pad37)*%
X160274000Y-37846000D03*
D11*
%TO.P,J5,1*%
%TO.N,Net-(J1-Pad35)*%
X157734000Y-37846000D03*
%TD*%
D10*
%TO.P,J4,8*%
%TO.N,/170V*%
X212344000Y-37846000D03*
%TO.P,J4,7*%
%TO.N,/GND*%
X209804000Y-37846000D03*
%TO.P,J4,6*%
%TO.N,/5V*%
X207264000Y-37846000D03*
%TO.P,J4,5*%
%TO.N,/GND*%
X204724000Y-37846000D03*
%TO.P,J4,4*%
%TO.N,Net-(J1-Pad22)*%
X202184000Y-37846000D03*
%TO.P,J4,3*%
%TO.N,Net-(J1-Pad24)*%
X199644000Y-37846000D03*
%TO.P,J4,2*%
%TO.N,Net-(J1-Pad26)*%
X197104000Y-37846000D03*
D11*
%TO.P,J4,1*%
%TO.N,Net-(J1-Pad32)*%
X194564000Y-37846000D03*
%TD*%
D10*
%TO.P,J3,8*%
%TO.N,/170V*%
X249174000Y-37846000D03*
%TO.P,J3,7*%
%TO.N,/GND*%
X246634000Y-37846000D03*
%TO.P,J3,6*%
%TO.N,/5V*%
X244094000Y-37846000D03*
%TO.P,J3,5*%
%TO.N,/GND*%
X241554000Y-37846000D03*
%TO.P,J3,4*%
%TO.N,Net-(J1-Pad18)*%
X239014000Y-37846000D03*
%TO.P,J3,3*%
%TO.N,Net-(J1-Pad16)*%
X236474000Y-37846000D03*
%TO.P,J3,2*%
%TO.N,Net-(J1-Pad12)*%
X233934000Y-37846000D03*
D11*
%TO.P,J3,1*%
%TO.N,Net-(J1-Pad10)*%
X231394000Y-37846000D03*
%TD*%
D10*
%TO.P,J2,8*%
%TO.N,/170V*%
X66294000Y-37846000D03*
%TO.P,J2,7*%
%TO.N,/GND*%
X63754000Y-37846000D03*
%TO.P,J2,6*%
%TO.N,/5V*%
X61214000Y-37846000D03*
%TO.P,J2,5*%
%TO.N,/GND*%
X58674000Y-37846000D03*
%TO.P,J2,4*%
%TO.N,Net-(J1-Pad11)*%
X56134000Y-37846000D03*
%TO.P,J2,3*%
%TO.N,Net-(J1-Pad7)*%
X53594000Y-37846000D03*
%TO.P,J2,2*%
%TO.N,Net-(J1-Pad5)*%
X51054000Y-37846000D03*
D11*
%TO.P,J2,1*%
%TO.N,Net-(J1-Pad3)*%
X48514000Y-37846000D03*
%TD*%
D12*
%TO.P,U2,1*%
%TO.N,/GND*%
X195834000Y-75946000D03*
%TO.P,U2,2*%
%TO.N,/12V*%
X198374000Y-75946000D03*
%TO.P,U2,5*%
%TO.N,/5V*%
X231394000Y-88646000D03*
%TO.P,U2,4*%
%TO.N,/GND*%
X231394000Y-86106000D03*
%TO.P,U2,3*%
%TO.N,/170V*%
X231394000Y-83566000D03*
%TD*%
D13*
%TO.P,TP1,1*%
%TO.N,/GND*%
X119634000Y-65786000D03*
%TD*%
%TO.P,TP5,1*%
%TO.N,/5V*%
X119634000Y-59436000D03*
%TD*%
D11*
%TO.P,J1,1*%
%TO.N,Net-(J1-Pad1)*%
X54864000Y-79756000D03*
D10*
%TO.P,J1,2*%
%TO.N,/5V*%
X54864000Y-82296000D03*
%TO.P,J1,3*%
%TO.N,Net-(J1-Pad3)*%
X57404000Y-79756000D03*
%TO.P,J1,4*%
%TO.N,/5V*%
X57404000Y-82296000D03*
%TO.P,J1,5*%
%TO.N,Net-(J1-Pad5)*%
X59944000Y-79756000D03*
%TO.P,J1,6*%
%TO.N,Net-(J1-Pad6)*%
X59944000Y-82296000D03*
%TO.P,J1,7*%
%TO.N,Net-(J1-Pad7)*%
X62484000Y-79756000D03*
%TO.P,J1,8*%
%TO.N,Net-(J1-Pad8)*%
X62484000Y-82296000D03*
%TO.P,J1,9*%
%TO.N,/GND*%
X65024000Y-79756000D03*
%TO.P,J1,10*%
%TO.N,Net-(J1-Pad10)*%
X65024000Y-82296000D03*
%TO.P,J1,11*%
%TO.N,Net-(J1-Pad11)*%
X67564000Y-79756000D03*
%TO.P,J1,12*%
%TO.N,Net-(J1-Pad12)*%
X67564000Y-82296000D03*
%TO.P,J1,13*%
%TO.N,Net-(J1-Pad13)*%
X70104000Y-79756000D03*
%TO.P,J1,14*%
%TO.N,/GND*%
X70104000Y-82296000D03*
%TO.P,J1,15*%
%TO.N,Net-(J1-Pad15)*%
X72644000Y-79756000D03*
%TO.P,J1,16*%
%TO.N,Net-(J1-Pad16)*%
X72644000Y-82296000D03*
%TO.P,J1,17*%
%TO.N,Net-(J1-Pad17)*%
X75184000Y-79756000D03*
%TO.P,J1,18*%
%TO.N,Net-(J1-Pad18)*%
X75184000Y-82296000D03*
%TO.P,J1,19*%
%TO.N,Net-(J1-Pad19)*%
X77724000Y-79756000D03*
%TO.P,J1,20*%
%TO.N,/GND*%
X77724000Y-82296000D03*
%TO.P,J1,21*%
%TO.N,Net-(J1-Pad21)*%
X80264000Y-79756000D03*
%TO.P,J1,22*%
%TO.N,Net-(J1-Pad22)*%
X80264000Y-82296000D03*
%TO.P,J1,23*%
%TO.N,Net-(J1-Pad23)*%
X82804000Y-79756000D03*
%TO.P,J1,24*%
%TO.N,Net-(J1-Pad24)*%
X82804000Y-82296000D03*
%TO.P,J1,25*%
%TO.N,Net-(J1-Pad25)*%
X85344000Y-79756000D03*
%TO.P,J1,26*%
%TO.N,Net-(J1-Pad26)*%
X85344000Y-82296000D03*
%TO.P,J1,27*%
%TO.N,Net-(J1-Pad27)*%
X87884000Y-79756000D03*
%TO.P,J1,28*%
%TO.N,Net-(J1-Pad28)*%
X87884000Y-82296000D03*
%TO.P,J1,29*%
%TO.N,Net-(J1-Pad29)*%
X90424000Y-79756000D03*
%TO.P,J1,30*%
%TO.N,/GND*%
X90424000Y-82296000D03*
%TO.P,J1,31*%
%TO.N,Net-(J1-Pad31)*%
X92964000Y-79756000D03*
%TO.P,J1,32*%
%TO.N,Net-(J1-Pad32)*%
X92964000Y-82296000D03*
%TO.P,J1,33*%
%TO.N,Net-(J1-Pad33)*%
X95504000Y-79756000D03*
%TO.P,J1,34*%
%TO.N,/GND*%
X95504000Y-82296000D03*
%TO.P,J1,35*%
%TO.N,Net-(J1-Pad35)*%
X98044000Y-79756000D03*
%TO.P,J1,36*%
%TO.N,Net-(J1-Pad36)*%
X98044000Y-82296000D03*
%TO.P,J1,37*%
%TO.N,Net-(J1-Pad37)*%
X100584000Y-79756000D03*
%TO.P,J1,38*%
%TO.N,Net-(J1-Pad38)*%
X100584000Y-82296000D03*
%TO.P,J1,39*%
%TO.N,/GND*%
X103124000Y-79756000D03*
%TO.P,J1,40*%
%TO.N,Net-(J1-Pad40)*%
X103124000Y-82296000D03*
%TD*%
D14*
%TO.P,J8,1*%
%TO.N,/12V*%
X147574000Y-87376000D03*
%TO.P,J8,2*%
%TO.N,/GND*%
%TA.AperFunction,ComponentPad*%
G36*
G01*
X148574000Y-94876000D02*
X146574000Y-94876000D01*
G75*
G02*
X145824000Y-94126000I0J750000D01*
G01*
X145824000Y-92626000D01*
G75*
G02*
X146574000Y-91876000I750000J0D01*
G01*
X148574000Y-91876000D01*
G75*
G02*
X149324000Y-92626000I0J-750000D01*
G01*
X149324000Y-94126000D01*
G75*
G02*
X148574000Y-94876000I-750000J0D01*
G01*
G37*
%TD.AperFunction*%
%TO.P,J8,3*%
%TO.N,N/C*%
%TA.AperFunction,ComponentPad*%
G36*
G01*
X153149000Y-92126000D02*
X151399000Y-92126000D01*
G75*
G02*
X150524000Y-91251000I0J875000D01*
G01*
X150524000Y-89501000D01*
G75*
G02*
X151399000Y-88626000I875000J0D01*
G01*
X153149000Y-88626000D01*
G75*
G02*
X154024000Y-89501000I0J-875000D01*
G01*
X154024000Y-91251000D01*
G75*
G02*
X153149000Y-92126000I-875000J0D01*
G01*
G37*
%TD.AperFunction*%
%TD*%
D13*
%TO.P,TP2,1*%
%TO.N,/GND*%
X176758999Y-67260999D03*
%TD*%
%TO.P,TP3,1*%
%TO.N,/12V*%
X161544000Y-67260999D03*
%TD*%
%TO.P,TP4,1*%
%TO.N,/5V*%
X168658999Y-67260999D03*
%TD*%
%TO.P,TP6,1*%
%TO.N,/170V*%
X231394000Y-67056000D03*
%TD*%
D15*
%TO.P,U1,1*%
%TO.N,/GND*%
X160883600Y-78486000D03*
%TO.P,U1,2*%
%TO.N,/5V*%
X160883600Y-81026000D03*
%TO.P,U1,3*%
%TO.N,/12V*%
X160883600Y-83566000D03*
D16*
%TO.P,U1,4*%
%TO.N,N/C*%
X169164000Y-81026000D03*
%TD*%
D17*
%TO.N,/GND*%
X160274000Y-78486000D03*
X145034000Y-92456000D03*
X145034000Y-94996000D03*
X175514000Y-69596000D03*
X178054000Y-69596000D03*
X176784000Y-65786000D03*
X117094000Y-63246000D03*
X119634000Y-63246000D03*
X122174000Y-63246000D03*
X122174000Y-68326000D03*
X119634000Y-68326000D03*
X117094000Y-68326000D03*
X117094000Y-65786000D03*
X122174000Y-65786000D03*
X145034000Y-97536000D03*
X147574000Y-97536000D03*
X150114000Y-97536000D03*
X147574000Y-94996000D03*
X150114000Y-94996000D03*
%TO.N,/5V*%
X160274000Y-81026000D03*
X68834000Y-44196000D03*
X96774000Y-44196000D03*
X133604000Y-44196000D03*
X170434000Y-44196000D03*
X207264000Y-44196000D03*
X155194000Y-81026000D03*
X219964000Y-44196000D03*
X165558999Y-67260999D03*
%TO.N,Net-(J1-Pad12)*%
X67564000Y-84836000D03*
X67474215Y-88735785D03*
%TO.N,Net-(J1-Pad16)*%
X68654430Y-91365570D03*
X71374000Y-88646000D03*
%TO.N,Net-(J1-Pad18)*%
X72644000Y-89916000D03*
X73914000Y-94231010D03*
%TD*%
D18*
%TO.N,/170V*%
X249174000Y-49276000D02*
X249174000Y-37846000D01*
X231394000Y-67056000D02*
X249174000Y-49276000D01*
X231394000Y-67056000D02*
X231394000Y-58166000D01*
X231394000Y-58166000D02*
X245364000Y-44196000D01*
X245364000Y-44196000D02*
X245364000Y-41656000D01*
X231394000Y-67056000D02*
X231394000Y-83566000D01*
%TO.N,/5V*%
X218694000Y-44196000D02*
X221234000Y-44196000D01*
X205994000Y-44196000D02*
X207264000Y-44196000D01*
X169164000Y-44196000D02*
X170434000Y-44196000D01*
X132334000Y-44196000D02*
X133604000Y-44196000D01*
X95504000Y-44196000D02*
X96774000Y-44196000D01*
X96774000Y-44196000D02*
X96774000Y-42926000D01*
X70104000Y-44196000D02*
X67564000Y-44196000D01*
D19*
X67564000Y-44196000D02*
X61214000Y-37846000D01*
X96774000Y-42926000D02*
X96774000Y-37846000D01*
X133604000Y-44196000D02*
X133604000Y-37846000D01*
X170434000Y-44196000D02*
X170434000Y-37846000D01*
X207264000Y-44196000D02*
X207264000Y-37846000D01*
X221234000Y-44196000D02*
X227584000Y-44196000D01*
X227584000Y-44196000D02*
X228854000Y-42926000D01*
X242618999Y-36370999D02*
X244094000Y-37846000D01*
X230043999Y-36370999D02*
X242618999Y-36370999D01*
X228854000Y-37560998D02*
X230043999Y-36370999D01*
X228854000Y-42926000D02*
X228854000Y-37560998D01*
D20*
X54864000Y-82296000D02*
X57404000Y-82296000D01*
X156464000Y-81026000D02*
X156464000Y-81026000D01*
X155194000Y-81026000D02*
X156464000Y-81026000D01*
X57404000Y-91186000D02*
X57404000Y-82296000D01*
X61599011Y-95381011D02*
X57404000Y-91186000D01*
X119248989Y-95381011D02*
X61599011Y-95381011D01*
X133604000Y-81026000D02*
X119248989Y-95381011D01*
X155194000Y-81026000D02*
X133604000Y-81026000D01*
X54864000Y-82296000D02*
X54864000Y-86106000D01*
X119634000Y-59436000D02*
X122174000Y-59436000D01*
X132334000Y-49276000D02*
X132334000Y-44196000D01*
X122174000Y-59436000D02*
X132334000Y-49276000D01*
D18*
X168658999Y-67260999D02*
X165558999Y-67260999D01*
D19*
%TO.N,Net-(J1-Pad3)*%
X57404000Y-46736000D02*
X48514000Y-37846000D01*
X57404000Y-79756000D02*
X57404000Y-46736000D01*
D18*
%TO.N,/12V*%
X147574000Y-87376000D02*
X150114000Y-84836000D01*
X159613600Y-84836000D02*
X160883600Y-83566000D01*
D19*
X157734000Y-84836000D02*
X157734000Y-71070999D01*
X157734000Y-71070999D02*
X161544000Y-67260999D01*
D18*
X150114000Y-84836000D02*
X157734000Y-84836000D01*
X157734000Y-84836000D02*
X159613600Y-84836000D01*
X198374000Y-84836000D02*
X198374000Y-75946000D01*
X160656401Y-87758401D02*
X195451599Y-87758401D01*
X195451599Y-87758401D02*
X198374000Y-84836000D01*
X157734000Y-84836000D02*
X160656401Y-87758401D01*
D19*
%TO.N,Net-(J1-Pad5)*%
X59944000Y-46736000D02*
X59944000Y-79756000D01*
X51054000Y-37846000D02*
X59944000Y-46736000D01*
D20*
%TO.N,Net-(J1-Pad6)*%
X59944000Y-82296000D02*
X59944000Y-86106000D01*
D19*
%TO.N,Net-(J1-Pad7)*%
X62484000Y-46736000D02*
X53594000Y-37846000D01*
X62484000Y-79756000D02*
X62484000Y-46736000D01*
D20*
%TO.N,Net-(J1-Pad8)*%
X62484000Y-82296000D02*
X62484000Y-86106000D01*
D19*
%TO.N,Net-(J1-Pad10)*%
X71834039Y-91646039D02*
X65024000Y-84836000D01*
X65024000Y-84836000D02*
X65024000Y-82296000D01*
X117275983Y-91646039D02*
X71834039Y-91646039D01*
X152026022Y-56896000D02*
X117275983Y-91646039D01*
X222504000Y-56896000D02*
X152026022Y-56896000D01*
X231394000Y-48006000D02*
X222504000Y-56896000D01*
X231394000Y-37846000D02*
X231394000Y-48006000D01*
%TO.N,Net-(J1-Pad11)*%
X67564000Y-49276000D02*
X67564000Y-79756000D01*
X56134000Y-37846000D02*
X67564000Y-49276000D01*
%TO.N,Net-(J1-Pad12)*%
X67564000Y-82296000D02*
X67564000Y-84836000D01*
X67474215Y-88735785D02*
X71194430Y-92456000D01*
X71194430Y-92456000D02*
X117526696Y-92456000D01*
X117526696Y-92456000D02*
X152336686Y-57646010D01*
X233934000Y-46526674D02*
X233934000Y-37846000D01*
X222814665Y-57646009D02*
X233934000Y-46526674D01*
X152336686Y-57646010D02*
X222814665Y-57646009D01*
%TO.N,Net-(J1-Pad13)*%
X70104000Y-79756000D02*
X70104000Y-58166000D01*
X84074000Y-44196000D02*
X84074000Y-37846000D01*
X70104000Y-58166000D02*
X84074000Y-44196000D01*
%TO.N,Net-(J1-Pad15)*%
X72644000Y-79756000D02*
X72644000Y-58166000D01*
X86614000Y-44196000D02*
X86614000Y-37846000D01*
X72644000Y-58166000D02*
X86614000Y-44196000D01*
%TO.N,Net-(J1-Pad16)*%
X236474000Y-45047346D02*
X223125328Y-58396018D01*
X236474000Y-37846000D02*
X236474000Y-45047346D01*
X223125328Y-58396018D02*
X152647352Y-58396018D01*
X152647352Y-58396018D02*
X118475685Y-92567685D01*
X117837360Y-93206010D02*
X70854010Y-93206010D01*
X118475685Y-92567685D02*
X117837360Y-93206010D01*
X70854010Y-93206010D02*
X68834000Y-91186000D01*
X68834000Y-91186000D02*
X68654430Y-91365570D01*
X72644000Y-87376000D02*
X71374000Y-88646000D01*
X72644000Y-82296000D02*
X72644000Y-87376000D01*
D20*
%TO.N,Net-(J1-Pad17)*%
X75184000Y-79756000D02*
X75184000Y-75946000D01*
D19*
%TO.N,Net-(J1-Pad18)*%
X75184000Y-82296000D02*
X75184000Y-87376000D01*
X75184000Y-87376000D02*
X72644000Y-89916000D01*
X73914000Y-94231010D02*
X117873034Y-94231010D01*
X223435993Y-59146027D02*
X239014000Y-43568020D01*
X152958016Y-59146028D02*
X223435993Y-59146027D01*
X239014000Y-43568020D02*
X239014000Y-37846000D01*
X117873034Y-94231010D02*
X152958016Y-59146028D01*
%TO.N,Net-(J1-Pad19)*%
X89154000Y-37846000D02*
X89154000Y-45466000D01*
X77724000Y-79756000D02*
X77724000Y-56896000D01*
X77724000Y-56896000D02*
X78994000Y-55626000D01*
X89154000Y-45466000D02*
X78994000Y-55626000D01*
%TO.N,Net-(J1-Pad21)*%
X91694000Y-37846000D02*
X91694000Y-44196000D01*
X80264000Y-55626000D02*
X80264000Y-79756000D01*
X91694000Y-44196000D02*
X80264000Y-55626000D01*
%TO.N,Net-(J1-Pad22)*%
X80264000Y-88646000D02*
X80264000Y-82296000D01*
X82514029Y-90896029D02*
X80264000Y-88646000D01*
X153795318Y-54066030D02*
X116965319Y-90896029D01*
X116965319Y-90896029D02*
X82514029Y-90896029D01*
X202184000Y-37846000D02*
X201827002Y-37846000D01*
X185963970Y-54066030D02*
X185384030Y-54066030D01*
X202184000Y-37846000D02*
X185963970Y-54066030D01*
X185384030Y-54066030D02*
X153795318Y-54066030D01*
X185606972Y-54066030D02*
X185384030Y-54066030D01*
%TO.N,Net-(J1-Pad23)*%
X82804000Y-79756000D02*
X82804000Y-70866000D01*
X82804000Y-70866000D02*
X104394000Y-49276000D01*
X109474000Y-49276000D02*
X120904000Y-37846000D01*
X104394000Y-49276000D02*
X109474000Y-49276000D01*
%TO.N,Net-(J1-Pad24)*%
X82804000Y-88646000D02*
X82804000Y-82296000D01*
X84304020Y-90146020D02*
X82804000Y-88646000D01*
X116654654Y-90146020D02*
X84304020Y-90146020D01*
X153484654Y-53316020D02*
X116654654Y-90146020D01*
X184173980Y-53316020D02*
X153484654Y-53316020D01*
X199644000Y-37846000D02*
X184173980Y-53316020D01*
%TO.N,Net-(J1-Pad25)*%
X123444000Y-39048081D02*
X111946081Y-50546000D01*
X123444000Y-37846000D02*
X123444000Y-39048081D01*
X111946081Y-50546000D02*
X104394000Y-50546000D01*
X85344000Y-69596000D02*
X85344000Y-79756000D01*
X104394000Y-50546000D02*
X85344000Y-69596000D01*
%TO.N,Net-(J1-Pad26)*%
X85344000Y-88646000D02*
X85344000Y-82296000D01*
X86094010Y-89396010D02*
X85344000Y-88646000D01*
X116134664Y-89396010D02*
X86094010Y-89396010D01*
X152964664Y-52566010D02*
X116134664Y-89396010D01*
X183586071Y-52566010D02*
X152964664Y-52566010D01*
X197104000Y-39048081D02*
X183586071Y-52566010D01*
X197104000Y-37846000D02*
X197104000Y-39048081D01*
D20*
%TO.N,Net-(J1-Pad29)*%
X90424000Y-79756000D02*
X90424000Y-75946000D01*
D19*
%TO.N,Net-(J1-Pad31)*%
X106183990Y-51296010D02*
X95504000Y-61976000D01*
X112533990Y-51296010D02*
X106183990Y-51296010D01*
X95504000Y-77216000D02*
X92964000Y-79756000D01*
X95504000Y-61976000D02*
X95504000Y-77216000D01*
X125984000Y-37846000D02*
X112533990Y-51296010D01*
%TO.N,Net-(J1-Pad32)*%
X194564000Y-37846000D02*
X180594000Y-51816000D01*
X180594000Y-51816000D02*
X152654000Y-51816000D01*
X152654000Y-51816000D02*
X115824000Y-88646000D01*
X115824000Y-88646000D02*
X96774000Y-88646000D01*
X92964000Y-84836000D02*
X92964000Y-82296000D01*
X96774000Y-88646000D02*
X92964000Y-84836000D01*
%TO.N,Net-(J1-Pad33)*%
X113284000Y-53086000D02*
X128524000Y-37846000D01*
X105664000Y-53086000D02*
X113284000Y-53086000D01*
X96774000Y-78486000D02*
X96774000Y-61976000D01*
X96774000Y-61976000D02*
X105664000Y-53086000D01*
X95504000Y-79756000D02*
X96774000Y-78486000D01*
%TO.N,Net-(J1-Pad35)*%
X157734000Y-37846000D02*
X119634000Y-75946000D01*
X119634000Y-75946000D02*
X100584000Y-75946000D01*
X100584000Y-75946000D02*
X98044000Y-78486000D01*
X98044000Y-78486000D02*
X98044000Y-79756000D01*
%TO.N,Net-(J1-Pad36)*%
X98684020Y-86106000D02*
X117094000Y-86106000D01*
X98044000Y-85465980D02*
X98684020Y-86106000D01*
X98044000Y-82296000D02*
X98044000Y-85465980D01*
X119634000Y-83566000D02*
X165354000Y-37846000D01*
X117094000Y-86106000D02*
X119634000Y-83566000D01*
X118678990Y-84521010D02*
X119634000Y-83566000D01*
%TO.N,Net-(J1-Pad37)*%
X160274000Y-39048081D02*
X160274000Y-37846000D01*
X155194000Y-41656000D02*
X157666081Y-41656000D01*
X120153990Y-76696010D02*
X155194000Y-41656000D01*
X102373990Y-76696010D02*
X120153990Y-76696010D01*
X157666081Y-41656000D02*
X160274000Y-39048081D01*
X100584000Y-78486000D02*
X102373990Y-76696010D01*
X100584000Y-79756000D02*
X100584000Y-78486000D01*
%TO.N,Net-(J1-Pad38)*%
X162814000Y-37846000D02*
X162814000Y-39116000D01*
X162814000Y-39116000D02*
X117094000Y-84836000D01*
X117094000Y-84836000D02*
X101854000Y-84836000D01*
X100584000Y-83566000D02*
X100584000Y-82296000D01*
X101854000Y-84836000D02*
X100584000Y-83566000D01*
D20*
%TO.N,Net-(J1-Pad40)*%
X103124000Y-82296000D02*
X106934000Y-82296000D01*
%TD*%
D21*
%TO.N,/170V*%
G36*
X254127000Y-41529000D02*
G01*
X239774000Y-41529000D01*
X239774000Y-39124178D01*
X239960632Y-38999475D01*
X240167475Y-38792632D01*
X240284000Y-38618240D01*
X240400525Y-38792632D01*
X240607368Y-38999475D01*
X240850589Y-39161990D01*
X241120842Y-39273932D01*
X241407740Y-39331000D01*
X241700260Y-39331000D01*
X241987158Y-39273932D01*
X242257411Y-39161990D01*
X242500632Y-38999475D01*
X242707475Y-38792632D01*
X242824000Y-38618240D01*
X242940525Y-38792632D01*
X243147368Y-38999475D01*
X243390589Y-39161990D01*
X243660842Y-39273932D01*
X243947740Y-39331000D01*
X244240260Y-39331000D01*
X244527158Y-39273932D01*
X244797411Y-39161990D01*
X245040632Y-38999475D01*
X245247475Y-38792632D01*
X245364000Y-38618240D01*
X245480525Y-38792632D01*
X245687368Y-38999475D01*
X245930589Y-39161990D01*
X246200842Y-39273932D01*
X246487740Y-39331000D01*
X246780260Y-39331000D01*
X247067158Y-39273932D01*
X247337411Y-39161990D01*
X247580632Y-38999475D01*
X247787475Y-38792632D01*
X247949990Y-38549411D01*
X248061932Y-38279158D01*
X248119000Y-37992260D01*
X248119000Y-37699740D01*
X248061932Y-37412842D01*
X247949990Y-37142589D01*
X247787475Y-36899368D01*
X247580632Y-36692525D01*
X247337411Y-36530010D01*
X247067158Y-36418068D01*
X246780260Y-36361000D01*
X246487740Y-36361000D01*
X246200842Y-36418068D01*
X245930589Y-36530010D01*
X245687368Y-36692525D01*
X245480525Y-36899368D01*
X245364000Y-37073760D01*
X245247475Y-36899368D01*
X245040632Y-36692525D01*
X244797411Y-36530010D01*
X244527158Y-36418068D01*
X244240260Y-36361000D01*
X243947740Y-36361000D01*
X243727592Y-36404790D01*
X243182802Y-35860001D01*
X243159000Y-35830998D01*
X243043275Y-35736025D01*
X242911246Y-35665453D01*
X242767985Y-35621996D01*
X242656332Y-35610999D01*
X242656321Y-35610999D01*
X242618999Y-35607323D01*
X242581677Y-35610999D01*
X230081324Y-35610999D01*
X230043999Y-35607323D01*
X230006674Y-35610999D01*
X230006666Y-35610999D01*
X229895013Y-35621996D01*
X229751752Y-35665453D01*
X229619723Y-35736025D01*
X229503998Y-35830998D01*
X229480200Y-35859996D01*
X228342998Y-36997199D01*
X228314000Y-37020997D01*
X228290202Y-37049995D01*
X228290201Y-37049996D01*
X228219026Y-37136722D01*
X228148454Y-37268752D01*
X228128360Y-37334996D01*
X228104998Y-37412012D01*
X228104041Y-37421725D01*
X228090324Y-37560998D01*
X228094001Y-37598330D01*
X228094000Y-41529000D01*
X208024000Y-41529000D01*
X208024000Y-39124178D01*
X208210632Y-38999475D01*
X208417475Y-38792632D01*
X208534000Y-38618240D01*
X208650525Y-38792632D01*
X208857368Y-38999475D01*
X209100589Y-39161990D01*
X209370842Y-39273932D01*
X209657740Y-39331000D01*
X209950260Y-39331000D01*
X210237158Y-39273932D01*
X210507411Y-39161990D01*
X210750632Y-38999475D01*
X210957475Y-38792632D01*
X211119990Y-38549411D01*
X211231932Y-38279158D01*
X211289000Y-37992260D01*
X211289000Y-37699740D01*
X211231932Y-37412842D01*
X211119990Y-37142589D01*
X210957475Y-36899368D01*
X210750632Y-36692525D01*
X210507411Y-36530010D01*
X210237158Y-36418068D01*
X209950260Y-36361000D01*
X209657740Y-36361000D01*
X209370842Y-36418068D01*
X209100589Y-36530010D01*
X208857368Y-36692525D01*
X208650525Y-36899368D01*
X208534000Y-37073760D01*
X208417475Y-36899368D01*
X208210632Y-36692525D01*
X207967411Y-36530010D01*
X207697158Y-36418068D01*
X207410260Y-36361000D01*
X207117740Y-36361000D01*
X206830842Y-36418068D01*
X206560589Y-36530010D01*
X206317368Y-36692525D01*
X206110525Y-36899368D01*
X205994000Y-37073760D01*
X205877475Y-36899368D01*
X205670632Y-36692525D01*
X205427411Y-36530010D01*
X205157158Y-36418068D01*
X204870260Y-36361000D01*
X204577740Y-36361000D01*
X204290842Y-36418068D01*
X204020589Y-36530010D01*
X203777368Y-36692525D01*
X203570525Y-36899368D01*
X203454000Y-37073760D01*
X203337475Y-36899368D01*
X203130632Y-36692525D01*
X202887411Y-36530010D01*
X202617158Y-36418068D01*
X202330260Y-36361000D01*
X202037740Y-36361000D01*
X201750842Y-36418068D01*
X201480589Y-36530010D01*
X201237368Y-36692525D01*
X201030525Y-36899368D01*
X200914000Y-37073760D01*
X200797475Y-36899368D01*
X200590632Y-36692525D01*
X200347411Y-36530010D01*
X200077158Y-36418068D01*
X199790260Y-36361000D01*
X199497740Y-36361000D01*
X199210842Y-36418068D01*
X198940589Y-36530010D01*
X198697368Y-36692525D01*
X198490525Y-36899368D01*
X198374000Y-37073760D01*
X198257475Y-36899368D01*
X198050632Y-36692525D01*
X197807411Y-36530010D01*
X197537158Y-36418068D01*
X197250260Y-36361000D01*
X196957740Y-36361000D01*
X196670842Y-36418068D01*
X196400589Y-36530010D01*
X196157368Y-36692525D01*
X196025513Y-36824380D01*
X196003502Y-36751820D01*
X195944537Y-36641506D01*
X195865185Y-36544815D01*
X195768494Y-36465463D01*
X195658180Y-36406498D01*
X195538482Y-36370188D01*
X195414000Y-36357928D01*
X193714000Y-36357928D01*
X193589518Y-36370188D01*
X193469820Y-36406498D01*
X193359506Y-36465463D01*
X193262815Y-36544815D01*
X193183463Y-36641506D01*
X193124498Y-36751820D01*
X193088188Y-36871518D01*
X193075928Y-36996000D01*
X193075928Y-38259269D01*
X189806198Y-41529000D01*
X171194000Y-41529000D01*
X171194000Y-39124178D01*
X171380632Y-38999475D01*
X171587475Y-38792632D01*
X171704000Y-38618240D01*
X171820525Y-38792632D01*
X172027368Y-38999475D01*
X172270589Y-39161990D01*
X172540842Y-39273932D01*
X172827740Y-39331000D01*
X173120260Y-39331000D01*
X173407158Y-39273932D01*
X173677411Y-39161990D01*
X173920632Y-38999475D01*
X174127475Y-38792632D01*
X174289990Y-38549411D01*
X174401932Y-38279158D01*
X174459000Y-37992260D01*
X174459000Y-37699740D01*
X174401932Y-37412842D01*
X174289990Y-37142589D01*
X174127475Y-36899368D01*
X173920632Y-36692525D01*
X173677411Y-36530010D01*
X173407158Y-36418068D01*
X173120260Y-36361000D01*
X172827740Y-36361000D01*
X172540842Y-36418068D01*
X172270589Y-36530010D01*
X172027368Y-36692525D01*
X171820525Y-36899368D01*
X171704000Y-37073760D01*
X171587475Y-36899368D01*
X171380632Y-36692525D01*
X171137411Y-36530010D01*
X170867158Y-36418068D01*
X170580260Y-36361000D01*
X170287740Y-36361000D01*
X170000842Y-36418068D01*
X169730589Y-36530010D01*
X169487368Y-36692525D01*
X169280525Y-36899368D01*
X169164000Y-37073760D01*
X169047475Y-36899368D01*
X168840632Y-36692525D01*
X168597411Y-36530010D01*
X168327158Y-36418068D01*
X168040260Y-36361000D01*
X167747740Y-36361000D01*
X167460842Y-36418068D01*
X167190589Y-36530010D01*
X166947368Y-36692525D01*
X166740525Y-36899368D01*
X166624000Y-37073760D01*
X166507475Y-36899368D01*
X166300632Y-36692525D01*
X166057411Y-36530010D01*
X165787158Y-36418068D01*
X165500260Y-36361000D01*
X165207740Y-36361000D01*
X164920842Y-36418068D01*
X164650589Y-36530010D01*
X164407368Y-36692525D01*
X164200525Y-36899368D01*
X164084000Y-37073760D01*
X163967475Y-36899368D01*
X163760632Y-36692525D01*
X163517411Y-36530010D01*
X163247158Y-36418068D01*
X162960260Y-36361000D01*
X162667740Y-36361000D01*
X162380842Y-36418068D01*
X162110589Y-36530010D01*
X161867368Y-36692525D01*
X161660525Y-36899368D01*
X161544000Y-37073760D01*
X161427475Y-36899368D01*
X161220632Y-36692525D01*
X160977411Y-36530010D01*
X160707158Y-36418068D01*
X160420260Y-36361000D01*
X160127740Y-36361000D01*
X159840842Y-36418068D01*
X159570589Y-36530010D01*
X159327368Y-36692525D01*
X159195513Y-36824380D01*
X159173502Y-36751820D01*
X159114537Y-36641506D01*
X159035185Y-36544815D01*
X158938494Y-36465463D01*
X158828180Y-36406498D01*
X158708482Y-36370188D01*
X158584000Y-36357928D01*
X156884000Y-36357928D01*
X156759518Y-36370188D01*
X156639820Y-36406498D01*
X156529506Y-36465463D01*
X156432815Y-36544815D01*
X156353463Y-36641506D01*
X156294498Y-36751820D01*
X156258188Y-36871518D01*
X156245928Y-36996000D01*
X156245928Y-38259270D01*
X152976198Y-41529000D01*
X134364000Y-41529000D01*
X134364000Y-39124178D01*
X134550632Y-38999475D01*
X134757475Y-38792632D01*
X134874000Y-38618240D01*
X134990525Y-38792632D01*
X135197368Y-38999475D01*
X135440589Y-39161990D01*
X135710842Y-39273932D01*
X135997740Y-39331000D01*
X136290260Y-39331000D01*
X136577158Y-39273932D01*
X136847411Y-39161990D01*
X137090632Y-38999475D01*
X137297475Y-38792632D01*
X137459990Y-38549411D01*
X137571932Y-38279158D01*
X137629000Y-37992260D01*
X137629000Y-37699740D01*
X137571932Y-37412842D01*
X137459990Y-37142589D01*
X137297475Y-36899368D01*
X137090632Y-36692525D01*
X136847411Y-36530010D01*
X136577158Y-36418068D01*
X136290260Y-36361000D01*
X135997740Y-36361000D01*
X135710842Y-36418068D01*
X135440589Y-36530010D01*
X135197368Y-36692525D01*
X134990525Y-36899368D01*
X134874000Y-37073760D01*
X134757475Y-36899368D01*
X134550632Y-36692525D01*
X134307411Y-36530010D01*
X134037158Y-36418068D01*
X133750260Y-36361000D01*
X133457740Y-36361000D01*
X133170842Y-36418068D01*
X132900589Y-36530010D01*
X132657368Y-36692525D01*
X132450525Y-36899368D01*
X132334000Y-37073760D01*
X132217475Y-36899368D01*
X132010632Y-36692525D01*
X131767411Y-36530010D01*
X131497158Y-36418068D01*
X131210260Y-36361000D01*
X130917740Y-36361000D01*
X130630842Y-36418068D01*
X130360589Y-36530010D01*
X130117368Y-36692525D01*
X129910525Y-36899368D01*
X129794000Y-37073760D01*
X129677475Y-36899368D01*
X129470632Y-36692525D01*
X129227411Y-36530010D01*
X128957158Y-36418068D01*
X128670260Y-36361000D01*
X128377740Y-36361000D01*
X128090842Y-36418068D01*
X127820589Y-36530010D01*
X127577368Y-36692525D01*
X127370525Y-36899368D01*
X127254000Y-37073760D01*
X127137475Y-36899368D01*
X126930632Y-36692525D01*
X126687411Y-36530010D01*
X126417158Y-36418068D01*
X126130260Y-36361000D01*
X125837740Y-36361000D01*
X125550842Y-36418068D01*
X125280589Y-36530010D01*
X125037368Y-36692525D01*
X124830525Y-36899368D01*
X124714000Y-37073760D01*
X124597475Y-36899368D01*
X124390632Y-36692525D01*
X124147411Y-36530010D01*
X123877158Y-36418068D01*
X123590260Y-36361000D01*
X123297740Y-36361000D01*
X123010842Y-36418068D01*
X122740589Y-36530010D01*
X122497368Y-36692525D01*
X122365513Y-36824380D01*
X122343502Y-36751820D01*
X122284537Y-36641506D01*
X122205185Y-36544815D01*
X122108494Y-36465463D01*
X121998180Y-36406498D01*
X121878482Y-36370188D01*
X121754000Y-36357928D01*
X120054000Y-36357928D01*
X119929518Y-36370188D01*
X119809820Y-36406498D01*
X119699506Y-36465463D01*
X119602815Y-36544815D01*
X119523463Y-36641506D01*
X119464498Y-36751820D01*
X119428188Y-36871518D01*
X119415928Y-36996000D01*
X119415928Y-38259270D01*
X116146198Y-41529000D01*
X97628813Y-41529000D01*
X97534000Y-41478321D01*
X97534000Y-39124178D01*
X97720632Y-38999475D01*
X97927475Y-38792632D01*
X98044000Y-38618240D01*
X98160525Y-38792632D01*
X98367368Y-38999475D01*
X98610589Y-39161990D01*
X98880842Y-39273932D01*
X99167740Y-39331000D01*
X99460260Y-39331000D01*
X99747158Y-39273932D01*
X100017411Y-39161990D01*
X100260632Y-38999475D01*
X100467475Y-38792632D01*
X100629990Y-38549411D01*
X100741932Y-38279158D01*
X100799000Y-37992260D01*
X100799000Y-37699740D01*
X100741932Y-37412842D01*
X100629990Y-37142589D01*
X100467475Y-36899368D01*
X100260632Y-36692525D01*
X100017411Y-36530010D01*
X99747158Y-36418068D01*
X99460260Y-36361000D01*
X99167740Y-36361000D01*
X98880842Y-36418068D01*
X98610589Y-36530010D01*
X98367368Y-36692525D01*
X98160525Y-36899368D01*
X98044000Y-37073760D01*
X97927475Y-36899368D01*
X97720632Y-36692525D01*
X97477411Y-36530010D01*
X97207158Y-36418068D01*
X96920260Y-36361000D01*
X96627740Y-36361000D01*
X96340842Y-36418068D01*
X96070589Y-36530010D01*
X95827368Y-36692525D01*
X95620525Y-36899368D01*
X95504000Y-37073760D01*
X95387475Y-36899368D01*
X95180632Y-36692525D01*
X94937411Y-36530010D01*
X94667158Y-36418068D01*
X94380260Y-36361000D01*
X94087740Y-36361000D01*
X93800842Y-36418068D01*
X93530589Y-36530010D01*
X93287368Y-36692525D01*
X93080525Y-36899368D01*
X92964000Y-37073760D01*
X92847475Y-36899368D01*
X92640632Y-36692525D01*
X92397411Y-36530010D01*
X92127158Y-36418068D01*
X91840260Y-36361000D01*
X91547740Y-36361000D01*
X91260842Y-36418068D01*
X90990589Y-36530010D01*
X90747368Y-36692525D01*
X90540525Y-36899368D01*
X90424000Y-37073760D01*
X90307475Y-36899368D01*
X90100632Y-36692525D01*
X89857411Y-36530010D01*
X89587158Y-36418068D01*
X89300260Y-36361000D01*
X89007740Y-36361000D01*
X88720842Y-36418068D01*
X88450589Y-36530010D01*
X88207368Y-36692525D01*
X88000525Y-36899368D01*
X87884000Y-37073760D01*
X87767475Y-36899368D01*
X87560632Y-36692525D01*
X87317411Y-36530010D01*
X87047158Y-36418068D01*
X86760260Y-36361000D01*
X86467740Y-36361000D01*
X86180842Y-36418068D01*
X85910589Y-36530010D01*
X85667368Y-36692525D01*
X85535513Y-36824380D01*
X85513502Y-36751820D01*
X85454537Y-36641506D01*
X85375185Y-36544815D01*
X85278494Y-36465463D01*
X85168180Y-36406498D01*
X85048482Y-36370188D01*
X84924000Y-36357928D01*
X83224000Y-36357928D01*
X83099518Y-36370188D01*
X82979820Y-36406498D01*
X82869506Y-36465463D01*
X82772815Y-36544815D01*
X82693463Y-36641506D01*
X82634498Y-36751820D01*
X82598188Y-36871518D01*
X82585928Y-36996000D01*
X82585928Y-38696000D01*
X82598188Y-38820482D01*
X82634498Y-38940180D01*
X82693463Y-39050494D01*
X82772815Y-39147185D01*
X82869506Y-39226537D01*
X82979820Y-39285502D01*
X83099518Y-39321812D01*
X83224000Y-39334072D01*
X83314001Y-39334072D01*
X83314001Y-41529000D01*
X65971802Y-41529000D01*
X63773801Y-39331000D01*
X63900260Y-39331000D01*
X64187158Y-39273932D01*
X64457411Y-39161990D01*
X64700632Y-38999475D01*
X64907475Y-38792632D01*
X65069990Y-38549411D01*
X65181932Y-38279158D01*
X65239000Y-37992260D01*
X65239000Y-37699740D01*
X65181932Y-37412842D01*
X65069990Y-37142589D01*
X64907475Y-36899368D01*
X64700632Y-36692525D01*
X64457411Y-36530010D01*
X64187158Y-36418068D01*
X63900260Y-36361000D01*
X63607740Y-36361000D01*
X63320842Y-36418068D01*
X63050589Y-36530010D01*
X62807368Y-36692525D01*
X62600525Y-36899368D01*
X62484000Y-37073760D01*
X62367475Y-36899368D01*
X62160632Y-36692525D01*
X61917411Y-36530010D01*
X61647158Y-36418068D01*
X61360260Y-36361000D01*
X61067740Y-36361000D01*
X60780842Y-36418068D01*
X60510589Y-36530010D01*
X60267368Y-36692525D01*
X60060525Y-36899368D01*
X59944000Y-37073760D01*
X59827475Y-36899368D01*
X59620632Y-36692525D01*
X59377411Y-36530010D01*
X59107158Y-36418068D01*
X58820260Y-36361000D01*
X58527740Y-36361000D01*
X58240842Y-36418068D01*
X57970589Y-36530010D01*
X57727368Y-36692525D01*
X57520525Y-36899368D01*
X57404000Y-37073760D01*
X57287475Y-36899368D01*
X57080632Y-36692525D01*
X56837411Y-36530010D01*
X56567158Y-36418068D01*
X56280260Y-36361000D01*
X55987740Y-36361000D01*
X55700842Y-36418068D01*
X55430589Y-36530010D01*
X55187368Y-36692525D01*
X54980525Y-36899368D01*
X54864000Y-37073760D01*
X54747475Y-36899368D01*
X54540632Y-36692525D01*
X54297411Y-36530010D01*
X54027158Y-36418068D01*
X53740260Y-36361000D01*
X53447740Y-36361000D01*
X53160842Y-36418068D01*
X52890589Y-36530010D01*
X52647368Y-36692525D01*
X52440525Y-36899368D01*
X52324000Y-37073760D01*
X52207475Y-36899368D01*
X52000632Y-36692525D01*
X51757411Y-36530010D01*
X51487158Y-36418068D01*
X51200260Y-36361000D01*
X50907740Y-36361000D01*
X50620842Y-36418068D01*
X50350589Y-36530010D01*
X50107368Y-36692525D01*
X49975513Y-36824380D01*
X49953502Y-36751820D01*
X49894537Y-36641506D01*
X49815185Y-36544815D01*
X49718494Y-36465463D01*
X49608180Y-36406498D01*
X49488482Y-36370188D01*
X49364000Y-36357928D01*
X47664000Y-36357928D01*
X47539518Y-36370188D01*
X47419820Y-36406498D01*
X47309506Y-36465463D01*
X47212815Y-36544815D01*
X47133463Y-36641506D01*
X47074498Y-36751820D01*
X47038188Y-36871518D01*
X47025928Y-36996000D01*
X47025928Y-38696000D01*
X47038188Y-38820482D01*
X47074498Y-38940180D01*
X47133463Y-39050494D01*
X47212815Y-39147185D01*
X47309506Y-39226537D01*
X47419820Y-39285502D01*
X47539518Y-39321812D01*
X47664000Y-39334072D01*
X48927271Y-39334072D01*
X51122199Y-41529000D01*
X43561000Y-41529000D01*
X43561000Y-34163000D01*
X254127000Y-34163000D01*
X254127000Y-41529000D01*
G37*
X254127000Y-41529000D02*
X239774000Y-41529000D01*
X239774000Y-39124178D01*
X239960632Y-38999475D01*
X240167475Y-38792632D01*
X240284000Y-38618240D01*
X240400525Y-38792632D01*
X240607368Y-38999475D01*
X240850589Y-39161990D01*
X241120842Y-39273932D01*
X241407740Y-39331000D01*
X241700260Y-39331000D01*
X241987158Y-39273932D01*
X242257411Y-39161990D01*
X242500632Y-38999475D01*
X242707475Y-38792632D01*
X242824000Y-38618240D01*
X242940525Y-38792632D01*
X243147368Y-38999475D01*
X243390589Y-39161990D01*
X243660842Y-39273932D01*
X243947740Y-39331000D01*
X244240260Y-39331000D01*
X244527158Y-39273932D01*
X244797411Y-39161990D01*
X245040632Y-38999475D01*
X245247475Y-38792632D01*
X245364000Y-38618240D01*
X245480525Y-38792632D01*
X245687368Y-38999475D01*
X245930589Y-39161990D01*
X246200842Y-39273932D01*
X246487740Y-39331000D01*
X246780260Y-39331000D01*
X247067158Y-39273932D01*
X247337411Y-39161990D01*
X247580632Y-38999475D01*
X247787475Y-38792632D01*
X247949990Y-38549411D01*
X248061932Y-38279158D01*
X248119000Y-37992260D01*
X248119000Y-37699740D01*
X248061932Y-37412842D01*
X247949990Y-37142589D01*
X247787475Y-36899368D01*
X247580632Y-36692525D01*
X247337411Y-36530010D01*
X247067158Y-36418068D01*
X246780260Y-36361000D01*
X246487740Y-36361000D01*
X246200842Y-36418068D01*
X245930589Y-36530010D01*
X245687368Y-36692525D01*
X245480525Y-36899368D01*
X245364000Y-37073760D01*
X245247475Y-36899368D01*
X245040632Y-36692525D01*
X244797411Y-36530010D01*
X244527158Y-36418068D01*
X244240260Y-36361000D01*
X243947740Y-36361000D01*
X243727592Y-36404790D01*
X243182802Y-35860001D01*
X243159000Y-35830998D01*
X243043275Y-35736025D01*
X242911246Y-35665453D01*
X242767985Y-35621996D01*
X242656332Y-35610999D01*
X242656321Y-35610999D01*
X242618999Y-35607323D01*
X242581677Y-35610999D01*
X230081324Y-35610999D01*
X230043999Y-35607323D01*
X230006674Y-35610999D01*
X230006666Y-35610999D01*
X229895013Y-35621996D01*
X229751752Y-35665453D01*
X229619723Y-35736025D01*
X229503998Y-35830998D01*
X229480200Y-35859996D01*
X228342998Y-36997199D01*
X228314000Y-37020997D01*
X228290202Y-37049995D01*
X228290201Y-37049996D01*
X228219026Y-37136722D01*
X228148454Y-37268752D01*
X228128360Y-37334996D01*
X228104998Y-37412012D01*
X228104041Y-37421725D01*
X228090324Y-37560998D01*
X228094001Y-37598330D01*
X228094000Y-41529000D01*
X208024000Y-41529000D01*
X208024000Y-39124178D01*
X208210632Y-38999475D01*
X208417475Y-38792632D01*
X208534000Y-38618240D01*
X208650525Y-38792632D01*
X208857368Y-38999475D01*
X209100589Y-39161990D01*
X209370842Y-39273932D01*
X209657740Y-39331000D01*
X209950260Y-39331000D01*
X210237158Y-39273932D01*
X210507411Y-39161990D01*
X210750632Y-38999475D01*
X210957475Y-38792632D01*
X211119990Y-38549411D01*
X211231932Y-38279158D01*
X211289000Y-37992260D01*
X211289000Y-37699740D01*
X211231932Y-37412842D01*
X211119990Y-37142589D01*
X210957475Y-36899368D01*
X210750632Y-36692525D01*
X210507411Y-36530010D01*
X210237158Y-36418068D01*
X209950260Y-36361000D01*
X209657740Y-36361000D01*
X209370842Y-36418068D01*
X209100589Y-36530010D01*
X208857368Y-36692525D01*
X208650525Y-36899368D01*
X208534000Y-37073760D01*
X208417475Y-36899368D01*
X208210632Y-36692525D01*
X207967411Y-36530010D01*
X207697158Y-36418068D01*
X207410260Y-36361000D01*
X207117740Y-36361000D01*
X206830842Y-36418068D01*
X206560589Y-36530010D01*
X206317368Y-36692525D01*
X206110525Y-36899368D01*
X205994000Y-37073760D01*
X205877475Y-36899368D01*
X205670632Y-36692525D01*
X205427411Y-36530010D01*
X205157158Y-36418068D01*
X204870260Y-36361000D01*
X204577740Y-36361000D01*
X204290842Y-36418068D01*
X204020589Y-36530010D01*
X203777368Y-36692525D01*
X203570525Y-36899368D01*
X203454000Y-37073760D01*
X203337475Y-36899368D01*
X203130632Y-36692525D01*
X202887411Y-36530010D01*
X202617158Y-36418068D01*
X202330260Y-36361000D01*
X202037740Y-36361000D01*
X201750842Y-36418068D01*
X201480589Y-36530010D01*
X201237368Y-36692525D01*
X201030525Y-36899368D01*
X200914000Y-37073760D01*
X200797475Y-36899368D01*
X200590632Y-36692525D01*
X200347411Y-36530010D01*
X200077158Y-36418068D01*
X199790260Y-36361000D01*
X199497740Y-36361000D01*
X199210842Y-36418068D01*
X198940589Y-36530010D01*
X198697368Y-36692525D01*
X198490525Y-36899368D01*
X198374000Y-37073760D01*
X198257475Y-36899368D01*
X198050632Y-36692525D01*
X197807411Y-36530010D01*
X197537158Y-36418068D01*
X197250260Y-36361000D01*
X196957740Y-36361000D01*
X196670842Y-36418068D01*
X196400589Y-36530010D01*
X196157368Y-36692525D01*
X196025513Y-36824380D01*
X196003502Y-36751820D01*
X195944537Y-36641506D01*
X195865185Y-36544815D01*
X195768494Y-36465463D01*
X195658180Y-36406498D01*
X195538482Y-36370188D01*
X195414000Y-36357928D01*
X193714000Y-36357928D01*
X193589518Y-36370188D01*
X193469820Y-36406498D01*
X193359506Y-36465463D01*
X193262815Y-36544815D01*
X193183463Y-36641506D01*
X193124498Y-36751820D01*
X193088188Y-36871518D01*
X193075928Y-36996000D01*
X193075928Y-38259269D01*
X189806198Y-41529000D01*
X171194000Y-41529000D01*
X171194000Y-39124178D01*
X171380632Y-38999475D01*
X171587475Y-38792632D01*
X171704000Y-38618240D01*
X171820525Y-38792632D01*
X172027368Y-38999475D01*
X172270589Y-39161990D01*
X172540842Y-39273932D01*
X172827740Y-39331000D01*
X173120260Y-39331000D01*
X173407158Y-39273932D01*
X173677411Y-39161990D01*
X173920632Y-38999475D01*
X174127475Y-38792632D01*
X174289990Y-38549411D01*
X174401932Y-38279158D01*
X174459000Y-37992260D01*
X174459000Y-37699740D01*
X174401932Y-37412842D01*
X174289990Y-37142589D01*
X174127475Y-36899368D01*
X173920632Y-36692525D01*
X173677411Y-36530010D01*
X173407158Y-36418068D01*
X173120260Y-36361000D01*
X172827740Y-36361000D01*
X172540842Y-36418068D01*
X172270589Y-36530010D01*
X172027368Y-36692525D01*
X171820525Y-36899368D01*
X171704000Y-37073760D01*
X171587475Y-36899368D01*
X171380632Y-36692525D01*
X171137411Y-36530010D01*
X170867158Y-36418068D01*
X170580260Y-36361000D01*
X170287740Y-36361000D01*
X170000842Y-36418068D01*
X169730589Y-36530010D01*
X169487368Y-36692525D01*
X169280525Y-36899368D01*
X169164000Y-37073760D01*
X169047475Y-36899368D01*
X168840632Y-36692525D01*
X168597411Y-36530010D01*
X168327158Y-36418068D01*
X168040260Y-36361000D01*
X167747740Y-36361000D01*
X167460842Y-36418068D01*
X167190589Y-36530010D01*
X166947368Y-36692525D01*
X166740525Y-36899368D01*
X166624000Y-37073760D01*
X166507475Y-36899368D01*
X166300632Y-36692525D01*
X166057411Y-36530010D01*
X165787158Y-36418068D01*
X165500260Y-36361000D01*
X165207740Y-36361000D01*
X164920842Y-36418068D01*
X164650589Y-36530010D01*
X164407368Y-36692525D01*
X164200525Y-36899368D01*
X164084000Y-37073760D01*
X163967475Y-36899368D01*
X163760632Y-36692525D01*
X163517411Y-36530010D01*
X163247158Y-36418068D01*
X162960260Y-36361000D01*
X162667740Y-36361000D01*
X162380842Y-36418068D01*
X162110589Y-36530010D01*
X161867368Y-36692525D01*
X161660525Y-36899368D01*
X161544000Y-37073760D01*
X161427475Y-36899368D01*
X161220632Y-36692525D01*
X160977411Y-36530010D01*
X160707158Y-36418068D01*
X160420260Y-36361000D01*
X160127740Y-36361000D01*
X159840842Y-36418068D01*
X159570589Y-36530010D01*
X159327368Y-36692525D01*
X159195513Y-36824380D01*
X159173502Y-36751820D01*
X159114537Y-36641506D01*
X159035185Y-36544815D01*
X158938494Y-36465463D01*
X158828180Y-36406498D01*
X158708482Y-36370188D01*
X158584000Y-36357928D01*
X156884000Y-36357928D01*
X156759518Y-36370188D01*
X156639820Y-36406498D01*
X156529506Y-36465463D01*
X156432815Y-36544815D01*
X156353463Y-36641506D01*
X156294498Y-36751820D01*
X156258188Y-36871518D01*
X156245928Y-36996000D01*
X156245928Y-38259270D01*
X152976198Y-41529000D01*
X134364000Y-41529000D01*
X134364000Y-39124178D01*
X134550632Y-38999475D01*
X134757475Y-38792632D01*
X134874000Y-38618240D01*
X134990525Y-38792632D01*
X135197368Y-38999475D01*
X135440589Y-39161990D01*
X135710842Y-39273932D01*
X135997740Y-39331000D01*
X136290260Y-39331000D01*
X136577158Y-39273932D01*
X136847411Y-39161990D01*
X137090632Y-38999475D01*
X137297475Y-38792632D01*
X137459990Y-38549411D01*
X137571932Y-38279158D01*
X137629000Y-37992260D01*
X137629000Y-37699740D01*
X137571932Y-37412842D01*
X137459990Y-37142589D01*
X137297475Y-36899368D01*
X137090632Y-36692525D01*
X136847411Y-36530010D01*
X136577158Y-36418068D01*
X136290260Y-36361000D01*
X135997740Y-36361000D01*
X135710842Y-36418068D01*
X135440589Y-36530010D01*
X135197368Y-36692525D01*
X134990525Y-36899368D01*
X134874000Y-37073760D01*
X134757475Y-36899368D01*
X134550632Y-36692525D01*
X134307411Y-36530010D01*
X134037158Y-36418068D01*
X133750260Y-36361000D01*
X133457740Y-36361000D01*
X133170842Y-36418068D01*
X132900589Y-36530010D01*
X132657368Y-36692525D01*
X132450525Y-36899368D01*
X132334000Y-37073760D01*
X132217475Y-36899368D01*
X132010632Y-36692525D01*
X131767411Y-36530010D01*
X131497158Y-36418068D01*
X131210260Y-36361000D01*
X130917740Y-36361000D01*
X130630842Y-36418068D01*
X130360589Y-36530010D01*
X130117368Y-36692525D01*
X129910525Y-36899368D01*
X129794000Y-37073760D01*
X129677475Y-36899368D01*
X129470632Y-36692525D01*
X129227411Y-36530010D01*
X128957158Y-36418068D01*
X128670260Y-36361000D01*
X128377740Y-36361000D01*
X128090842Y-36418068D01*
X127820589Y-36530010D01*
X127577368Y-36692525D01*
X127370525Y-36899368D01*
X127254000Y-37073760D01*
X127137475Y-36899368D01*
X126930632Y-36692525D01*
X126687411Y-36530010D01*
X126417158Y-36418068D01*
X126130260Y-36361000D01*
X125837740Y-36361000D01*
X125550842Y-36418068D01*
X125280589Y-36530010D01*
X125037368Y-36692525D01*
X124830525Y-36899368D01*
X124714000Y-37073760D01*
X124597475Y-36899368D01*
X124390632Y-36692525D01*
X124147411Y-36530010D01*
X123877158Y-36418068D01*
X123590260Y-36361000D01*
X123297740Y-36361000D01*
X123010842Y-36418068D01*
X122740589Y-36530010D01*
X122497368Y-36692525D01*
X122365513Y-36824380D01*
X122343502Y-36751820D01*
X122284537Y-36641506D01*
X122205185Y-36544815D01*
X122108494Y-36465463D01*
X121998180Y-36406498D01*
X121878482Y-36370188D01*
X121754000Y-36357928D01*
X120054000Y-36357928D01*
X119929518Y-36370188D01*
X119809820Y-36406498D01*
X119699506Y-36465463D01*
X119602815Y-36544815D01*
X119523463Y-36641506D01*
X119464498Y-36751820D01*
X119428188Y-36871518D01*
X119415928Y-36996000D01*
X119415928Y-38259270D01*
X116146198Y-41529000D01*
X97628813Y-41529000D01*
X97534000Y-41478321D01*
X97534000Y-39124178D01*
X97720632Y-38999475D01*
X97927475Y-38792632D01*
X98044000Y-38618240D01*
X98160525Y-38792632D01*
X98367368Y-38999475D01*
X98610589Y-39161990D01*
X98880842Y-39273932D01*
X99167740Y-39331000D01*
X99460260Y-39331000D01*
X99747158Y-39273932D01*
X100017411Y-39161990D01*
X100260632Y-38999475D01*
X100467475Y-38792632D01*
X100629990Y-38549411D01*
X100741932Y-38279158D01*
X100799000Y-37992260D01*
X100799000Y-37699740D01*
X100741932Y-37412842D01*
X100629990Y-37142589D01*
X100467475Y-36899368D01*
X100260632Y-36692525D01*
X100017411Y-36530010D01*
X99747158Y-36418068D01*
X99460260Y-36361000D01*
X99167740Y-36361000D01*
X98880842Y-36418068D01*
X98610589Y-36530010D01*
X98367368Y-36692525D01*
X98160525Y-36899368D01*
X98044000Y-37073760D01*
X97927475Y-36899368D01*
X97720632Y-36692525D01*
X97477411Y-36530010D01*
X97207158Y-36418068D01*
X96920260Y-36361000D01*
X96627740Y-36361000D01*
X96340842Y-36418068D01*
X96070589Y-36530010D01*
X95827368Y-36692525D01*
X95620525Y-36899368D01*
X95504000Y-37073760D01*
X95387475Y-36899368D01*
X95180632Y-36692525D01*
X94937411Y-36530010D01*
X94667158Y-36418068D01*
X94380260Y-36361000D01*
X94087740Y-36361000D01*
X93800842Y-36418068D01*
X93530589Y-36530010D01*
X93287368Y-36692525D01*
X93080525Y-36899368D01*
X92964000Y-37073760D01*
X92847475Y-36899368D01*
X92640632Y-36692525D01*
X92397411Y-36530010D01*
X92127158Y-36418068D01*
X91840260Y-36361000D01*
X91547740Y-36361000D01*
X91260842Y-36418068D01*
X90990589Y-36530010D01*
X90747368Y-36692525D01*
X90540525Y-36899368D01*
X90424000Y-37073760D01*
X90307475Y-36899368D01*
X90100632Y-36692525D01*
X89857411Y-36530010D01*
X89587158Y-36418068D01*
X89300260Y-36361000D01*
X89007740Y-36361000D01*
X88720842Y-36418068D01*
X88450589Y-36530010D01*
X88207368Y-36692525D01*
X88000525Y-36899368D01*
X87884000Y-37073760D01*
X87767475Y-36899368D01*
X87560632Y-36692525D01*
X87317411Y-36530010D01*
X87047158Y-36418068D01*
X86760260Y-36361000D01*
X86467740Y-36361000D01*
X86180842Y-36418068D01*
X85910589Y-36530010D01*
X85667368Y-36692525D01*
X85535513Y-36824380D01*
X85513502Y-36751820D01*
X85454537Y-36641506D01*
X85375185Y-36544815D01*
X85278494Y-36465463D01*
X85168180Y-36406498D01*
X85048482Y-36370188D01*
X84924000Y-36357928D01*
X83224000Y-36357928D01*
X83099518Y-36370188D01*
X82979820Y-36406498D01*
X82869506Y-36465463D01*
X82772815Y-36544815D01*
X82693463Y-36641506D01*
X82634498Y-36751820D01*
X82598188Y-36871518D01*
X82585928Y-36996000D01*
X82585928Y-38696000D01*
X82598188Y-38820482D01*
X82634498Y-38940180D01*
X82693463Y-39050494D01*
X82772815Y-39147185D01*
X82869506Y-39226537D01*
X82979820Y-39285502D01*
X83099518Y-39321812D01*
X83224000Y-39334072D01*
X83314001Y-39334072D01*
X83314001Y-41529000D01*
X65971802Y-41529000D01*
X63773801Y-39331000D01*
X63900260Y-39331000D01*
X64187158Y-39273932D01*
X64457411Y-39161990D01*
X64700632Y-38999475D01*
X64907475Y-38792632D01*
X65069990Y-38549411D01*
X65181932Y-38279158D01*
X65239000Y-37992260D01*
X65239000Y-37699740D01*
X65181932Y-37412842D01*
X65069990Y-37142589D01*
X64907475Y-36899368D01*
X64700632Y-36692525D01*
X64457411Y-36530010D01*
X64187158Y-36418068D01*
X63900260Y-36361000D01*
X63607740Y-36361000D01*
X63320842Y-36418068D01*
X63050589Y-36530010D01*
X62807368Y-36692525D01*
X62600525Y-36899368D01*
X62484000Y-37073760D01*
X62367475Y-36899368D01*
X62160632Y-36692525D01*
X61917411Y-36530010D01*
X61647158Y-36418068D01*
X61360260Y-36361000D01*
X61067740Y-36361000D01*
X60780842Y-36418068D01*
X60510589Y-36530010D01*
X60267368Y-36692525D01*
X60060525Y-36899368D01*
X59944000Y-37073760D01*
X59827475Y-36899368D01*
X59620632Y-36692525D01*
X59377411Y-36530010D01*
X59107158Y-36418068D01*
X58820260Y-36361000D01*
X58527740Y-36361000D01*
X58240842Y-36418068D01*
X57970589Y-36530010D01*
X57727368Y-36692525D01*
X57520525Y-36899368D01*
X57404000Y-37073760D01*
X57287475Y-36899368D01*
X57080632Y-36692525D01*
X56837411Y-36530010D01*
X56567158Y-36418068D01*
X56280260Y-36361000D01*
X55987740Y-36361000D01*
X55700842Y-36418068D01*
X55430589Y-36530010D01*
X55187368Y-36692525D01*
X54980525Y-36899368D01*
X54864000Y-37073760D01*
X54747475Y-36899368D01*
X54540632Y-36692525D01*
X54297411Y-36530010D01*
X54027158Y-36418068D01*
X53740260Y-36361000D01*
X53447740Y-36361000D01*
X53160842Y-36418068D01*
X52890589Y-36530010D01*
X52647368Y-36692525D01*
X52440525Y-36899368D01*
X52324000Y-37073760D01*
X52207475Y-36899368D01*
X52000632Y-36692525D01*
X51757411Y-36530010D01*
X51487158Y-36418068D01*
X51200260Y-36361000D01*
X50907740Y-36361000D01*
X50620842Y-36418068D01*
X50350589Y-36530010D01*
X50107368Y-36692525D01*
X49975513Y-36824380D01*
X49953502Y-36751820D01*
X49894537Y-36641506D01*
X49815185Y-36544815D01*
X49718494Y-36465463D01*
X49608180Y-36406498D01*
X49488482Y-36370188D01*
X49364000Y-36357928D01*
X47664000Y-36357928D01*
X47539518Y-36370188D01*
X47419820Y-36406498D01*
X47309506Y-36465463D01*
X47212815Y-36544815D01*
X47133463Y-36641506D01*
X47074498Y-36751820D01*
X47038188Y-36871518D01*
X47025928Y-36996000D01*
X47025928Y-38696000D01*
X47038188Y-38820482D01*
X47074498Y-38940180D01*
X47133463Y-39050494D01*
X47212815Y-39147185D01*
X47309506Y-39226537D01*
X47419820Y-39285502D01*
X47539518Y-39321812D01*
X47664000Y-39334072D01*
X48927271Y-39334072D01*
X51122199Y-41529000D01*
X43561000Y-41529000D01*
X43561000Y-34163000D01*
X254127000Y-34163000D01*
X254127000Y-41529000D01*
%TO.N,/GND*%
G36*
X149915001Y-91546186D02*
G01*
X150001104Y-91830028D01*
X150140927Y-92091618D01*
X150329097Y-92320903D01*
X150558382Y-92509073D01*
X150819972Y-92648896D01*
X151103814Y-92734999D01*
X151257000Y-92750086D01*
X151257000Y-98679000D01*
X143891000Y-98679000D01*
X143891000Y-91313000D01*
X149892034Y-91313000D01*
X149915001Y-91546186D01*
G37*
X149915001Y-91546186D02*
X150001104Y-91830028D01*
X150140927Y-92091618D01*
X150329097Y-92320903D01*
X150558382Y-92509073D01*
X150819972Y-92648896D01*
X151103814Y-92734999D01*
X151257000Y-92750086D01*
X151257000Y-98679000D01*
X143891000Y-98679000D01*
X143891000Y-91313000D01*
X149892034Y-91313000D01*
X149915001Y-91546186D01*
G36*
X179197000Y-70739000D02*
G01*
X174371000Y-70739000D01*
X174371000Y-68260999D01*
X175120927Y-68260999D01*
X175133187Y-68385481D01*
X175169497Y-68505179D01*
X175228462Y-68615493D01*
X175307814Y-68712184D01*
X175404505Y-68791536D01*
X175514819Y-68850501D01*
X175634517Y-68886811D01*
X175758999Y-68899071D01*
X176473249Y-68895999D01*
X176631999Y-68737249D01*
X176631999Y-67387999D01*
X176885999Y-67387999D01*
X176885999Y-68737249D01*
X177044749Y-68895999D01*
X177758999Y-68899071D01*
X177883481Y-68886811D01*
X178003179Y-68850501D01*
X178113493Y-68791536D01*
X178210184Y-68712184D01*
X178289536Y-68615493D01*
X178348501Y-68505179D01*
X178384811Y-68385481D01*
X178397071Y-68260999D01*
X178393999Y-67546749D01*
X178235249Y-67387999D01*
X176885999Y-67387999D01*
X176631999Y-67387999D01*
X175282749Y-67387999D01*
X175123999Y-67546749D01*
X175120927Y-68260999D01*
X174371000Y-68260999D01*
X174371000Y-66260999D01*
X175120927Y-66260999D01*
X175123999Y-66975249D01*
X175282749Y-67133999D01*
X176631999Y-67133999D01*
X176631999Y-65784749D01*
X176885999Y-65784749D01*
X176885999Y-67133999D01*
X178235249Y-67133999D01*
X178393999Y-66975249D01*
X178397071Y-66260999D01*
X178384811Y-66136517D01*
X178348501Y-66016819D01*
X178289536Y-65906505D01*
X178210184Y-65809814D01*
X178113493Y-65730462D01*
X178003179Y-65671497D01*
X177883481Y-65635187D01*
X177758999Y-65622927D01*
X177044749Y-65625999D01*
X176885999Y-65784749D01*
X176631999Y-65784749D01*
X176473249Y-65625999D01*
X175758999Y-65622927D01*
X175634517Y-65635187D01*
X175514819Y-65671497D01*
X175404505Y-65730462D01*
X175307814Y-65809814D01*
X175228462Y-65906505D01*
X175169497Y-66016819D01*
X175133187Y-66136517D01*
X175120927Y-66260999D01*
X174371000Y-66260999D01*
X174371000Y-64643000D01*
X179197000Y-64643000D01*
X179197000Y-70739000D01*
G37*
X179197000Y-70739000D02*
X174371000Y-70739000D01*
X174371000Y-68260999D01*
X175120927Y-68260999D01*
X175133187Y-68385481D01*
X175169497Y-68505179D01*
X175228462Y-68615493D01*
X175307814Y-68712184D01*
X175404505Y-68791536D01*
X175514819Y-68850501D01*
X175634517Y-68886811D01*
X175758999Y-68899071D01*
X176473249Y-68895999D01*
X176631999Y-68737249D01*
X176631999Y-67387999D01*
X176885999Y-67387999D01*
X176885999Y-68737249D01*
X177044749Y-68895999D01*
X177758999Y-68899071D01*
X177883481Y-68886811D01*
X178003179Y-68850501D01*
X178113493Y-68791536D01*
X178210184Y-68712184D01*
X178289536Y-68615493D01*
X178348501Y-68505179D01*
X178384811Y-68385481D01*
X178397071Y-68260999D01*
X178393999Y-67546749D01*
X178235249Y-67387999D01*
X176885999Y-67387999D01*
X176631999Y-67387999D01*
X175282749Y-67387999D01*
X175123999Y-67546749D01*
X175120927Y-68260999D01*
X174371000Y-68260999D01*
X174371000Y-66260999D01*
X175120927Y-66260999D01*
X175123999Y-66975249D01*
X175282749Y-67133999D01*
X176631999Y-67133999D01*
X176631999Y-65784749D01*
X176885999Y-65784749D01*
X176885999Y-67133999D01*
X178235249Y-67133999D01*
X178393999Y-66975249D01*
X178397071Y-66260999D01*
X178384811Y-66136517D01*
X178348501Y-66016819D01*
X178289536Y-65906505D01*
X178210184Y-65809814D01*
X178113493Y-65730462D01*
X178003179Y-65671497D01*
X177883481Y-65635187D01*
X177758999Y-65622927D01*
X177044749Y-65625999D01*
X176885999Y-65784749D01*
X176631999Y-65784749D01*
X176473249Y-65625999D01*
X175758999Y-65622927D01*
X175634517Y-65635187D01*
X175514819Y-65671497D01*
X175404505Y-65730462D01*
X175307814Y-65809814D01*
X175228462Y-65906505D01*
X175169497Y-66016819D01*
X175133187Y-66136517D01*
X175120927Y-66260999D01*
X174371000Y-66260999D01*
X174371000Y-64643000D01*
X179197000Y-64643000D01*
X179197000Y-70739000D01*
G36*
X123317000Y-69469000D02*
G01*
X115951000Y-69469000D01*
X115951000Y-66786000D01*
X117995928Y-66786000D01*
X118008188Y-66910482D01*
X118044498Y-67030180D01*
X118103463Y-67140494D01*
X118182815Y-67237185D01*
X118279506Y-67316537D01*
X118389820Y-67375502D01*
X118509518Y-67411812D01*
X118634000Y-67424072D01*
X119348250Y-67421000D01*
X119507000Y-67262250D01*
X119507000Y-65913000D01*
X119761000Y-65913000D01*
X119761000Y-67262250D01*
X119919750Y-67421000D01*
X120634000Y-67424072D01*
X120758482Y-67411812D01*
X120878180Y-67375502D01*
X120988494Y-67316537D01*
X121085185Y-67237185D01*
X121164537Y-67140494D01*
X121223502Y-67030180D01*
X121259812Y-66910482D01*
X121272072Y-66786000D01*
X121269000Y-66071750D01*
X121110250Y-65913000D01*
X119761000Y-65913000D01*
X119507000Y-65913000D01*
X118157750Y-65913000D01*
X117999000Y-66071750D01*
X117995928Y-66786000D01*
X115951000Y-66786000D01*
X115951000Y-64786000D01*
X117995928Y-64786000D01*
X117999000Y-65500250D01*
X118157750Y-65659000D01*
X119507000Y-65659000D01*
X119507000Y-64309750D01*
X119761000Y-64309750D01*
X119761000Y-65659000D01*
X121110250Y-65659000D01*
X121269000Y-65500250D01*
X121272072Y-64786000D01*
X121259812Y-64661518D01*
X121223502Y-64541820D01*
X121164537Y-64431506D01*
X121085185Y-64334815D01*
X120988494Y-64255463D01*
X120878180Y-64196498D01*
X120758482Y-64160188D01*
X120634000Y-64147928D01*
X119919750Y-64151000D01*
X119761000Y-64309750D01*
X119507000Y-64309750D01*
X119348250Y-64151000D01*
X118634000Y-64147928D01*
X118509518Y-64160188D01*
X118389820Y-64196498D01*
X118279506Y-64255463D01*
X118182815Y-64334815D01*
X118103463Y-64431506D01*
X118044498Y-64541820D01*
X118008188Y-64661518D01*
X117995928Y-64786000D01*
X115951000Y-64786000D01*
X115951000Y-62103000D01*
X123317000Y-62103000D01*
X123317000Y-69469000D01*
G37*
X123317000Y-69469000D02*
X115951000Y-69469000D01*
X115951000Y-66786000D01*
X117995928Y-66786000D01*
X118008188Y-66910482D01*
X118044498Y-67030180D01*
X118103463Y-67140494D01*
X118182815Y-67237185D01*
X118279506Y-67316537D01*
X118389820Y-67375502D01*
X118509518Y-67411812D01*
X118634000Y-67424072D01*
X119348250Y-67421000D01*
X119507000Y-67262250D01*
X119507000Y-65913000D01*
X119761000Y-65913000D01*
X119761000Y-67262250D01*
X119919750Y-67421000D01*
X120634000Y-67424072D01*
X120758482Y-67411812D01*
X120878180Y-67375502D01*
X120988494Y-67316537D01*
X121085185Y-67237185D01*
X121164537Y-67140494D01*
X121223502Y-67030180D01*
X121259812Y-66910482D01*
X121272072Y-66786000D01*
X121269000Y-66071750D01*
X121110250Y-65913000D01*
X119761000Y-65913000D01*
X119507000Y-65913000D01*
X118157750Y-65913000D01*
X117999000Y-66071750D01*
X117995928Y-66786000D01*
X115951000Y-66786000D01*
X115951000Y-64786000D01*
X117995928Y-64786000D01*
X117999000Y-65500250D01*
X118157750Y-65659000D01*
X119507000Y-65659000D01*
X119507000Y-64309750D01*
X119761000Y-64309750D01*
X119761000Y-65659000D01*
X121110250Y-65659000D01*
X121269000Y-65500250D01*
X121272072Y-64786000D01*
X121259812Y-64661518D01*
X121223502Y-64541820D01*
X121164537Y-64431506D01*
X121085185Y-64334815D01*
X120988494Y-64255463D01*
X120878180Y-64196498D01*
X120758482Y-64160188D01*
X120634000Y-64147928D01*
X119919750Y-64151000D01*
X119761000Y-64309750D01*
X119507000Y-64309750D01*
X119348250Y-64151000D01*
X118634000Y-64147928D01*
X118509518Y-64160188D01*
X118389820Y-64196498D01*
X118279506Y-64255463D01*
X118182815Y-64334815D01*
X118103463Y-64431506D01*
X118044498Y-64541820D01*
X118008188Y-64661518D01*
X117995928Y-64786000D01*
X115951000Y-64786000D01*
X115951000Y-62103000D01*
X123317000Y-62103000D01*
X123317000Y-69469000D01*
%TD*%
M02*
