%TF.GenerationSoftware,KiCad,Pcbnew,5.1.6-c6e7f7d~87~ubuntu20.04.1*%
%TF.CreationDate,2020-09-12T14:26:48-04:00*%
%TF.ProjectId,IN-14_Daughter,494e2d31-345f-4446-9175-67687465722e,rev?*%
%TF.SameCoordinates,Original*%
%TF.FileFunction,Soldermask,Top*%
%TF.FilePolarity,Negative*%
%FSLAX46Y46*%
G04 Gerber Fmt 4.6, Leading zero omitted, Abs format (unit mm)*
G04 Created by KiCad (PCBNEW 5.1.6-c6e7f7d~87~ubuntu20.04.1) date 2020-09-12 14:26:48*
%MOMM*%
%LPD*%
G01*
G04 APERTURE LIST*
%ADD10C,0.150000*%
G04 APERTURE END LIST*
D10*
G36*
X152294000Y-93366000D02*
G01*
X150474000Y-93366000D01*
X150474000Y-91546000D01*
X152294000Y-91546000D01*
X152294000Y-93366000D01*
G37*
G36*
X154101532Y-91563486D02*
G01*
X154189438Y-91580971D01*
X154355049Y-91649569D01*
X154504091Y-91749156D01*
X154630844Y-91875909D01*
X154730431Y-92024951D01*
X154799029Y-92190562D01*
X154834000Y-92366374D01*
X154834000Y-92545626D01*
X154799029Y-92721438D01*
X154730431Y-92887049D01*
X154630844Y-93036091D01*
X154504091Y-93162844D01*
X154355049Y-93262431D01*
X154189438Y-93331029D01*
X154101532Y-93348514D01*
X154013627Y-93366000D01*
X153834373Y-93366000D01*
X153746468Y-93348515D01*
X153658562Y-93331029D01*
X153492951Y-93262431D01*
X153343909Y-93162844D01*
X153217156Y-93036091D01*
X153117569Y-92887049D01*
X153048971Y-92721438D01*
X153014000Y-92545626D01*
X153014000Y-92366374D01*
X153048971Y-92190562D01*
X153117569Y-92024951D01*
X153217156Y-91875909D01*
X153343909Y-91749156D01*
X153492951Y-91649569D01*
X153658562Y-91580971D01*
X153746468Y-91563486D01*
X153834373Y-91546000D01*
X154013627Y-91546000D01*
X154101532Y-91563486D01*
G37*
G36*
X159181532Y-91563486D02*
G01*
X159269438Y-91580971D01*
X159435049Y-91649569D01*
X159584091Y-91749156D01*
X159710844Y-91875909D01*
X159810431Y-92024951D01*
X159879029Y-92190562D01*
X159914000Y-92366374D01*
X159914000Y-92545626D01*
X159879029Y-92721438D01*
X159810431Y-92887049D01*
X159710844Y-93036091D01*
X159584091Y-93162844D01*
X159435049Y-93262431D01*
X159269438Y-93331029D01*
X159181532Y-93348514D01*
X159093627Y-93366000D01*
X158914373Y-93366000D01*
X158826468Y-93348515D01*
X158738562Y-93331029D01*
X158572951Y-93262431D01*
X158423909Y-93162844D01*
X158297156Y-93036091D01*
X158197569Y-92887049D01*
X158128971Y-92721438D01*
X158094000Y-92545626D01*
X158094000Y-92366374D01*
X158128971Y-92190562D01*
X158197569Y-92024951D01*
X158297156Y-91875909D01*
X158423909Y-91749156D01*
X158572951Y-91649569D01*
X158738562Y-91580971D01*
X158826468Y-91563486D01*
X158914373Y-91546000D01*
X159093627Y-91546000D01*
X159181532Y-91563486D01*
G37*
G36*
X156641532Y-91563486D02*
G01*
X156729438Y-91580971D01*
X156895049Y-91649569D01*
X157044091Y-91749156D01*
X157170844Y-91875909D01*
X157270431Y-92024951D01*
X157339029Y-92190562D01*
X157374000Y-92366374D01*
X157374000Y-92545626D01*
X157339029Y-92721438D01*
X157270431Y-92887049D01*
X157170844Y-93036091D01*
X157044091Y-93162844D01*
X156895049Y-93262431D01*
X156729438Y-93331029D01*
X156641532Y-93348514D01*
X156553627Y-93366000D01*
X156374373Y-93366000D01*
X156286468Y-93348515D01*
X156198562Y-93331029D01*
X156032951Y-93262431D01*
X155883909Y-93162844D01*
X155757156Y-93036091D01*
X155657569Y-92887049D01*
X155588971Y-92721438D01*
X155554000Y-92545626D01*
X155554000Y-92366374D01*
X155588971Y-92190562D01*
X155657569Y-92024951D01*
X155757156Y-91875909D01*
X155883909Y-91749156D01*
X156032951Y-91649569D01*
X156198562Y-91580971D01*
X156286468Y-91563486D01*
X156374373Y-91546000D01*
X156553627Y-91546000D01*
X156641532Y-91563486D01*
G37*
G36*
X151561532Y-89023485D02*
G01*
X151649438Y-89040971D01*
X151815049Y-89109569D01*
X151964091Y-89209156D01*
X152090844Y-89335909D01*
X152190431Y-89484951D01*
X152259029Y-89650562D01*
X152294000Y-89826374D01*
X152294000Y-90005626D01*
X152259029Y-90181438D01*
X152190431Y-90347049D01*
X152090844Y-90496091D01*
X151964091Y-90622844D01*
X151815049Y-90722431D01*
X151649438Y-90791029D01*
X151561532Y-90808515D01*
X151473627Y-90826000D01*
X151294373Y-90826000D01*
X151206468Y-90808514D01*
X151118562Y-90791029D01*
X150952951Y-90722431D01*
X150803909Y-90622844D01*
X150677156Y-90496091D01*
X150577569Y-90347049D01*
X150508971Y-90181438D01*
X150474000Y-90005626D01*
X150474000Y-89826374D01*
X150508971Y-89650562D01*
X150577569Y-89484951D01*
X150677156Y-89335909D01*
X150803909Y-89209156D01*
X150952951Y-89109569D01*
X151118562Y-89040971D01*
X151206468Y-89023485D01*
X151294373Y-89006000D01*
X151473627Y-89006000D01*
X151561532Y-89023485D01*
G37*
G36*
X154101532Y-89023485D02*
G01*
X154189438Y-89040971D01*
X154355049Y-89109569D01*
X154504091Y-89209156D01*
X154630844Y-89335909D01*
X154730431Y-89484951D01*
X154799029Y-89650562D01*
X154834000Y-89826374D01*
X154834000Y-90005626D01*
X154799029Y-90181438D01*
X154730431Y-90347049D01*
X154630844Y-90496091D01*
X154504091Y-90622844D01*
X154355049Y-90722431D01*
X154189438Y-90791029D01*
X154101532Y-90808515D01*
X154013627Y-90826000D01*
X153834373Y-90826000D01*
X153746468Y-90808514D01*
X153658562Y-90791029D01*
X153492951Y-90722431D01*
X153343909Y-90622844D01*
X153217156Y-90496091D01*
X153117569Y-90347049D01*
X153048971Y-90181438D01*
X153014000Y-90005626D01*
X153014000Y-89826374D01*
X153048971Y-89650562D01*
X153117569Y-89484951D01*
X153217156Y-89335909D01*
X153343909Y-89209156D01*
X153492951Y-89109569D01*
X153658562Y-89040971D01*
X153746468Y-89023485D01*
X153834373Y-89006000D01*
X154013627Y-89006000D01*
X154101532Y-89023485D01*
G37*
G36*
X156641532Y-89023485D02*
G01*
X156729438Y-89040971D01*
X156895049Y-89109569D01*
X157044091Y-89209156D01*
X157170844Y-89335909D01*
X157270431Y-89484951D01*
X157339029Y-89650562D01*
X157374000Y-89826374D01*
X157374000Y-90005626D01*
X157339029Y-90181438D01*
X157270431Y-90347049D01*
X157170844Y-90496091D01*
X157044091Y-90622844D01*
X156895049Y-90722431D01*
X156729438Y-90791029D01*
X156641532Y-90808515D01*
X156553627Y-90826000D01*
X156374373Y-90826000D01*
X156286468Y-90808514D01*
X156198562Y-90791029D01*
X156032951Y-90722431D01*
X155883909Y-90622844D01*
X155757156Y-90496091D01*
X155657569Y-90347049D01*
X155588971Y-90181438D01*
X155554000Y-90005626D01*
X155554000Y-89826374D01*
X155588971Y-89650562D01*
X155657569Y-89484951D01*
X155757156Y-89335909D01*
X155883909Y-89209156D01*
X156032951Y-89109569D01*
X156198562Y-89040971D01*
X156286468Y-89023485D01*
X156374373Y-89006000D01*
X156553627Y-89006000D01*
X156641532Y-89023485D01*
G37*
G36*
X159181532Y-89023485D02*
G01*
X159269438Y-89040971D01*
X159435049Y-89109569D01*
X159584091Y-89209156D01*
X159710844Y-89335909D01*
X159810431Y-89484951D01*
X159879029Y-89650562D01*
X159914000Y-89826374D01*
X159914000Y-90005626D01*
X159879029Y-90181438D01*
X159810431Y-90347049D01*
X159710844Y-90496091D01*
X159584091Y-90622844D01*
X159435049Y-90722431D01*
X159269438Y-90791029D01*
X159181532Y-90808515D01*
X159093627Y-90826000D01*
X158914373Y-90826000D01*
X158826468Y-90808514D01*
X158738562Y-90791029D01*
X158572951Y-90722431D01*
X158423909Y-90622844D01*
X158297156Y-90496091D01*
X158197569Y-90347049D01*
X158128971Y-90181438D01*
X158094000Y-90005626D01*
X158094000Y-89826374D01*
X158128971Y-89650562D01*
X158197569Y-89484951D01*
X158297156Y-89335909D01*
X158423909Y-89209156D01*
X158572951Y-89109569D01*
X158738562Y-89040971D01*
X158826468Y-89023485D01*
X158914373Y-89006000D01*
X159093627Y-89006000D01*
X159181532Y-89023485D01*
G37*
G36*
X161721532Y-84451485D02*
G01*
X161809438Y-84468971D01*
X161975049Y-84537569D01*
X162124091Y-84637156D01*
X162250844Y-84763909D01*
X162350431Y-84912951D01*
X162419029Y-85078562D01*
X162454000Y-85254374D01*
X162454000Y-85433626D01*
X162419029Y-85609438D01*
X162350431Y-85775049D01*
X162250844Y-85924091D01*
X162124091Y-86050844D01*
X161975049Y-86150431D01*
X161809438Y-86219029D01*
X161721532Y-86236515D01*
X161633627Y-86254000D01*
X161454373Y-86254000D01*
X161366468Y-86236515D01*
X161278562Y-86219029D01*
X161112951Y-86150431D01*
X160963909Y-86050844D01*
X160837156Y-85924091D01*
X160737569Y-85775049D01*
X160668971Y-85609438D01*
X160634000Y-85433626D01*
X160634000Y-85254374D01*
X160668971Y-85078562D01*
X160737569Y-84912951D01*
X160837156Y-84763909D01*
X160963909Y-84637156D01*
X161112951Y-84537569D01*
X161278562Y-84468971D01*
X161366468Y-84451485D01*
X161454373Y-84434000D01*
X161633627Y-84434000D01*
X161721532Y-84451485D01*
G37*
G36*
X147214000Y-86254000D02*
G01*
X145394000Y-86254000D01*
X145394000Y-84434000D01*
X147214000Y-84434000D01*
X147214000Y-86254000D01*
G37*
G36*
X149021532Y-84451485D02*
G01*
X149109438Y-84468971D01*
X149275049Y-84537569D01*
X149424091Y-84637156D01*
X149550844Y-84763909D01*
X149650431Y-84912951D01*
X149719029Y-85078562D01*
X149754000Y-85254374D01*
X149754000Y-85433626D01*
X149719029Y-85609438D01*
X149650431Y-85775049D01*
X149550844Y-85924091D01*
X149424091Y-86050844D01*
X149275049Y-86150431D01*
X149109438Y-86219029D01*
X149021532Y-86236515D01*
X148933627Y-86254000D01*
X148754373Y-86254000D01*
X148666468Y-86236515D01*
X148578562Y-86219029D01*
X148412951Y-86150431D01*
X148263909Y-86050844D01*
X148137156Y-85924091D01*
X148037569Y-85775049D01*
X147968971Y-85609438D01*
X147934000Y-85433626D01*
X147934000Y-85254374D01*
X147968971Y-85078562D01*
X148037569Y-84912951D01*
X148137156Y-84763909D01*
X148263909Y-84637156D01*
X148412951Y-84537569D01*
X148578562Y-84468971D01*
X148666468Y-84451485D01*
X148754373Y-84434000D01*
X148933627Y-84434000D01*
X149021532Y-84451485D01*
G37*
G36*
X151561532Y-84451485D02*
G01*
X151649438Y-84468971D01*
X151815049Y-84537569D01*
X151964091Y-84637156D01*
X152090844Y-84763909D01*
X152190431Y-84912951D01*
X152259029Y-85078562D01*
X152294000Y-85254374D01*
X152294000Y-85433626D01*
X152259029Y-85609438D01*
X152190431Y-85775049D01*
X152090844Y-85924091D01*
X151964091Y-86050844D01*
X151815049Y-86150431D01*
X151649438Y-86219029D01*
X151561532Y-86236515D01*
X151473627Y-86254000D01*
X151294373Y-86254000D01*
X151206468Y-86236515D01*
X151118562Y-86219029D01*
X150952951Y-86150431D01*
X150803909Y-86050844D01*
X150677156Y-85924091D01*
X150577569Y-85775049D01*
X150508971Y-85609438D01*
X150474000Y-85433626D01*
X150474000Y-85254374D01*
X150508971Y-85078562D01*
X150577569Y-84912951D01*
X150677156Y-84763909D01*
X150803909Y-84637156D01*
X150952951Y-84537569D01*
X151118562Y-84468971D01*
X151206468Y-84451485D01*
X151294373Y-84434000D01*
X151473627Y-84434000D01*
X151561532Y-84451485D01*
G37*
G36*
X156641532Y-84451485D02*
G01*
X156729438Y-84468971D01*
X156895049Y-84537569D01*
X157044091Y-84637156D01*
X157170844Y-84763909D01*
X157270431Y-84912951D01*
X157339029Y-85078562D01*
X157374000Y-85254374D01*
X157374000Y-85433626D01*
X157339029Y-85609438D01*
X157270431Y-85775049D01*
X157170844Y-85924091D01*
X157044091Y-86050844D01*
X156895049Y-86150431D01*
X156729438Y-86219029D01*
X156641532Y-86236515D01*
X156553627Y-86254000D01*
X156374373Y-86254000D01*
X156286468Y-86236515D01*
X156198562Y-86219029D01*
X156032951Y-86150431D01*
X155883909Y-86050844D01*
X155757156Y-85924091D01*
X155657569Y-85775049D01*
X155588971Y-85609438D01*
X155554000Y-85433626D01*
X155554000Y-85254374D01*
X155588971Y-85078562D01*
X155657569Y-84912951D01*
X155757156Y-84763909D01*
X155883909Y-84637156D01*
X156032951Y-84537569D01*
X156198562Y-84468971D01*
X156286468Y-84451485D01*
X156374373Y-84434000D01*
X156553627Y-84434000D01*
X156641532Y-84451485D01*
G37*
G36*
X159181532Y-84451485D02*
G01*
X159269438Y-84468971D01*
X159435049Y-84537569D01*
X159584091Y-84637156D01*
X159710844Y-84763909D01*
X159810431Y-84912951D01*
X159879029Y-85078562D01*
X159914000Y-85254374D01*
X159914000Y-85433626D01*
X159879029Y-85609438D01*
X159810431Y-85775049D01*
X159710844Y-85924091D01*
X159584091Y-86050844D01*
X159435049Y-86150431D01*
X159269438Y-86219029D01*
X159181532Y-86236515D01*
X159093627Y-86254000D01*
X158914373Y-86254000D01*
X158826468Y-86236515D01*
X158738562Y-86219029D01*
X158572951Y-86150431D01*
X158423909Y-86050844D01*
X158297156Y-85924091D01*
X158197569Y-85775049D01*
X158128971Y-85609438D01*
X158094000Y-85433626D01*
X158094000Y-85254374D01*
X158128971Y-85078562D01*
X158197569Y-84912951D01*
X158297156Y-84763909D01*
X158423909Y-84637156D01*
X158572951Y-84537569D01*
X158738562Y-84468971D01*
X158826468Y-84451485D01*
X158914373Y-84434000D01*
X159093627Y-84434000D01*
X159181532Y-84451485D01*
G37*
G36*
X164261532Y-84451485D02*
G01*
X164349438Y-84468971D01*
X164515049Y-84537569D01*
X164664091Y-84637156D01*
X164790844Y-84763909D01*
X164890431Y-84912951D01*
X164959029Y-85078562D01*
X164994000Y-85254374D01*
X164994000Y-85433626D01*
X164959029Y-85609438D01*
X164890431Y-85775049D01*
X164790844Y-85924091D01*
X164664091Y-86050844D01*
X164515049Y-86150431D01*
X164349438Y-86219029D01*
X164261532Y-86236515D01*
X164173627Y-86254000D01*
X163994373Y-86254000D01*
X163906468Y-86236515D01*
X163818562Y-86219029D01*
X163652951Y-86150431D01*
X163503909Y-86050844D01*
X163377156Y-85924091D01*
X163277569Y-85775049D01*
X163208971Y-85609438D01*
X163174000Y-85433626D01*
X163174000Y-85254374D01*
X163208971Y-85078562D01*
X163277569Y-84912951D01*
X163377156Y-84763909D01*
X163503909Y-84637156D01*
X163652951Y-84537569D01*
X163818562Y-84468971D01*
X163906468Y-84451485D01*
X163994373Y-84434000D01*
X164173627Y-84434000D01*
X164261532Y-84451485D01*
G37*
G36*
X154101532Y-84451485D02*
G01*
X154189438Y-84468971D01*
X154355049Y-84537569D01*
X154504091Y-84637156D01*
X154630844Y-84763909D01*
X154730431Y-84912951D01*
X154799029Y-85078562D01*
X154834000Y-85254374D01*
X154834000Y-85433626D01*
X154799029Y-85609438D01*
X154730431Y-85775049D01*
X154630844Y-85924091D01*
X154504091Y-86050844D01*
X154355049Y-86150431D01*
X154189438Y-86219029D01*
X154101532Y-86236515D01*
X154013627Y-86254000D01*
X153834373Y-86254000D01*
X153746468Y-86236515D01*
X153658562Y-86219029D01*
X153492951Y-86150431D01*
X153343909Y-86050844D01*
X153217156Y-85924091D01*
X153117569Y-85775049D01*
X153048971Y-85609438D01*
X153014000Y-85433626D01*
X153014000Y-85254374D01*
X153048971Y-85078562D01*
X153117569Y-84912951D01*
X153217156Y-84763909D01*
X153343909Y-84637156D01*
X153492951Y-84537569D01*
X153658562Y-84468971D01*
X153746468Y-84451485D01*
X153834373Y-84434000D01*
X154013627Y-84434000D01*
X154101532Y-84451485D01*
G37*
G36*
X159254853Y-80249849D02*
G01*
X159411363Y-80314678D01*
X159411365Y-80314679D01*
X159552218Y-80408794D01*
X159672006Y-80528582D01*
X159766121Y-80669435D01*
X159766122Y-80669437D01*
X159830951Y-80825947D01*
X159864000Y-80992097D01*
X159864000Y-81161503D01*
X159830951Y-81327653D01*
X159766122Y-81484163D01*
X159766121Y-81484165D01*
X159672006Y-81625018D01*
X159552218Y-81744806D01*
X159411365Y-81838921D01*
X159411364Y-81838922D01*
X159411363Y-81838922D01*
X159254853Y-81903751D01*
X159088703Y-81936800D01*
X158919297Y-81936800D01*
X158753147Y-81903751D01*
X158596637Y-81838922D01*
X158596636Y-81838922D01*
X158596635Y-81838921D01*
X158455782Y-81744806D01*
X158335994Y-81625018D01*
X158241879Y-81484165D01*
X158241878Y-81484163D01*
X158177049Y-81327653D01*
X158144000Y-81161503D01*
X158144000Y-80992097D01*
X158177049Y-80825947D01*
X158241878Y-80669437D01*
X158241879Y-80669435D01*
X158335994Y-80528582D01*
X158455782Y-80408794D01*
X158596635Y-80314679D01*
X158596637Y-80314678D01*
X158753147Y-80249849D01*
X158919297Y-80216800D01*
X159088703Y-80216800D01*
X159254853Y-80249849D01*
G37*
G36*
X161794853Y-80249849D02*
G01*
X161951363Y-80314678D01*
X161951365Y-80314679D01*
X162092218Y-80408794D01*
X162212006Y-80528582D01*
X162306121Y-80669435D01*
X162306122Y-80669437D01*
X162370951Y-80825947D01*
X162404000Y-80992097D01*
X162404000Y-81161503D01*
X162370951Y-81327653D01*
X162306122Y-81484163D01*
X162306121Y-81484165D01*
X162212006Y-81625018D01*
X162092218Y-81744806D01*
X161951365Y-81838921D01*
X161951364Y-81838922D01*
X161951363Y-81838922D01*
X161794853Y-81903751D01*
X161628703Y-81936800D01*
X161459297Y-81936800D01*
X161293147Y-81903751D01*
X161136637Y-81838922D01*
X161136636Y-81838922D01*
X161136635Y-81838921D01*
X160995782Y-81744806D01*
X160875994Y-81625018D01*
X160781879Y-81484165D01*
X160781878Y-81484163D01*
X160717049Y-81327653D01*
X160684000Y-81161503D01*
X160684000Y-80992097D01*
X160717049Y-80825947D01*
X160781878Y-80669437D01*
X160781879Y-80669435D01*
X160875994Y-80528582D01*
X160995782Y-80408794D01*
X161136635Y-80314679D01*
X161136637Y-80314678D01*
X161293147Y-80249849D01*
X161459297Y-80216800D01*
X161628703Y-80216800D01*
X161794853Y-80249849D01*
G37*
G36*
X156714853Y-80249849D02*
G01*
X156871363Y-80314678D01*
X156871365Y-80314679D01*
X157012218Y-80408794D01*
X157132006Y-80528582D01*
X157226121Y-80669435D01*
X157226122Y-80669437D01*
X157290951Y-80825947D01*
X157324000Y-80992097D01*
X157324000Y-81161503D01*
X157290951Y-81327653D01*
X157226122Y-81484163D01*
X157226121Y-81484165D01*
X157132006Y-81625018D01*
X157012218Y-81744806D01*
X156871365Y-81838921D01*
X156871364Y-81838922D01*
X156871363Y-81838922D01*
X156714853Y-81903751D01*
X156548703Y-81936800D01*
X156379297Y-81936800D01*
X156213147Y-81903751D01*
X156056637Y-81838922D01*
X156056636Y-81838922D01*
X156056635Y-81838921D01*
X155915782Y-81744806D01*
X155795994Y-81625018D01*
X155701879Y-81484165D01*
X155701878Y-81484163D01*
X155637049Y-81327653D01*
X155604000Y-81161503D01*
X155604000Y-80992097D01*
X155637049Y-80825947D01*
X155701878Y-80669437D01*
X155701879Y-80669435D01*
X155795994Y-80528582D01*
X155915782Y-80408794D01*
X156056635Y-80314679D01*
X156056637Y-80314678D01*
X156213147Y-80249849D01*
X156379297Y-80216800D01*
X156548703Y-80216800D01*
X156714853Y-80249849D01*
G37*
G36*
X154174853Y-80249849D02*
G01*
X154331363Y-80314678D01*
X154331365Y-80314679D01*
X154472218Y-80408794D01*
X154592006Y-80528582D01*
X154686121Y-80669435D01*
X154686122Y-80669437D01*
X154750951Y-80825947D01*
X154784000Y-80992097D01*
X154784000Y-81161503D01*
X154750951Y-81327653D01*
X154686122Y-81484163D01*
X154686121Y-81484165D01*
X154592006Y-81625018D01*
X154472218Y-81744806D01*
X154331365Y-81838921D01*
X154331364Y-81838922D01*
X154331363Y-81838922D01*
X154174853Y-81903751D01*
X154008703Y-81936800D01*
X153839297Y-81936800D01*
X153673147Y-81903751D01*
X153516637Y-81838922D01*
X153516636Y-81838922D01*
X153516635Y-81838921D01*
X153375782Y-81744806D01*
X153255994Y-81625018D01*
X153161879Y-81484165D01*
X153161878Y-81484163D01*
X153097049Y-81327653D01*
X153064000Y-81161503D01*
X153064000Y-80992097D01*
X153097049Y-80825947D01*
X153161878Y-80669437D01*
X153161879Y-80669435D01*
X153255994Y-80528582D01*
X153375782Y-80408794D01*
X153516635Y-80314679D01*
X153516637Y-80314678D01*
X153673147Y-80249849D01*
X153839297Y-80216800D01*
X154008703Y-80216800D01*
X154174853Y-80249849D01*
G37*
G36*
X149094853Y-80249849D02*
G01*
X149251363Y-80314678D01*
X149251365Y-80314679D01*
X149392218Y-80408794D01*
X149512006Y-80528582D01*
X149606121Y-80669435D01*
X149606122Y-80669437D01*
X149670951Y-80825947D01*
X149704000Y-80992097D01*
X149704000Y-81161503D01*
X149670951Y-81327653D01*
X149606122Y-81484163D01*
X149606121Y-81484165D01*
X149512006Y-81625018D01*
X149392218Y-81744806D01*
X149251365Y-81838921D01*
X149251364Y-81838922D01*
X149251363Y-81838922D01*
X149094853Y-81903751D01*
X148928703Y-81936800D01*
X148759297Y-81936800D01*
X148593147Y-81903751D01*
X148436637Y-81838922D01*
X148436636Y-81838922D01*
X148436635Y-81838921D01*
X148295782Y-81744806D01*
X148175994Y-81625018D01*
X148081879Y-81484165D01*
X148081878Y-81484163D01*
X148017049Y-81327653D01*
X147984000Y-81161503D01*
X147984000Y-80992097D01*
X148017049Y-80825947D01*
X148081878Y-80669437D01*
X148081879Y-80669435D01*
X148175994Y-80528582D01*
X148295782Y-80408794D01*
X148436635Y-80314679D01*
X148436637Y-80314678D01*
X148593147Y-80249849D01*
X148759297Y-80216800D01*
X148928703Y-80216800D01*
X149094853Y-80249849D01*
G37*
G36*
X147164000Y-81936800D02*
G01*
X145444000Y-81936800D01*
X145444000Y-80216800D01*
X147164000Y-80216800D01*
X147164000Y-81936800D01*
G37*
G36*
X164334853Y-80249849D02*
G01*
X164491363Y-80314678D01*
X164491365Y-80314679D01*
X164632218Y-80408794D01*
X164752006Y-80528582D01*
X164846121Y-80669435D01*
X164846122Y-80669437D01*
X164910951Y-80825947D01*
X164944000Y-80992097D01*
X164944000Y-81161503D01*
X164910951Y-81327653D01*
X164846122Y-81484163D01*
X164846121Y-81484165D01*
X164752006Y-81625018D01*
X164632218Y-81744806D01*
X164491365Y-81838921D01*
X164491364Y-81838922D01*
X164491363Y-81838922D01*
X164334853Y-81903751D01*
X164168703Y-81936800D01*
X163999297Y-81936800D01*
X163833147Y-81903751D01*
X163676637Y-81838922D01*
X163676636Y-81838922D01*
X163676635Y-81838921D01*
X163535782Y-81744806D01*
X163415994Y-81625018D01*
X163321879Y-81484165D01*
X163321878Y-81484163D01*
X163257049Y-81327653D01*
X163224000Y-81161503D01*
X163224000Y-80992097D01*
X163257049Y-80825947D01*
X163321878Y-80669437D01*
X163321879Y-80669435D01*
X163415994Y-80528582D01*
X163535782Y-80408794D01*
X163676635Y-80314679D01*
X163676637Y-80314678D01*
X163833147Y-80249849D01*
X163999297Y-80216800D01*
X164168703Y-80216800D01*
X164334853Y-80249849D01*
G37*
G36*
X151634853Y-80249849D02*
G01*
X151791363Y-80314678D01*
X151791365Y-80314679D01*
X151932218Y-80408794D01*
X152052006Y-80528582D01*
X152146121Y-80669435D01*
X152146122Y-80669437D01*
X152210951Y-80825947D01*
X152244000Y-80992097D01*
X152244000Y-81161503D01*
X152210951Y-81327653D01*
X152146122Y-81484163D01*
X152146121Y-81484165D01*
X152052006Y-81625018D01*
X151932218Y-81744806D01*
X151791365Y-81838921D01*
X151791364Y-81838922D01*
X151791363Y-81838922D01*
X151634853Y-81903751D01*
X151468703Y-81936800D01*
X151299297Y-81936800D01*
X151133147Y-81903751D01*
X150976637Y-81838922D01*
X150976636Y-81838922D01*
X150976635Y-81838921D01*
X150835782Y-81744806D01*
X150715994Y-81625018D01*
X150621879Y-81484165D01*
X150621878Y-81484163D01*
X150557049Y-81327653D01*
X150524000Y-81161503D01*
X150524000Y-80992097D01*
X150557049Y-80825947D01*
X150621878Y-80669437D01*
X150621879Y-80669435D01*
X150715994Y-80528582D01*
X150835782Y-80408794D01*
X150976635Y-80314679D01*
X150976637Y-80314678D01*
X151133147Y-80249849D01*
X151299297Y-80216800D01*
X151468703Y-80216800D01*
X151634853Y-80249849D01*
G37*
G36*
X168398853Y-72833049D02*
G01*
X168555363Y-72897878D01*
X168555365Y-72897879D01*
X168696218Y-72991994D01*
X168816006Y-73111782D01*
X168878925Y-73205947D01*
X168910122Y-73252637D01*
X168974951Y-73409147D01*
X169008000Y-73575297D01*
X169008000Y-73744703D01*
X168974951Y-73910853D01*
X168935946Y-74005018D01*
X168910121Y-74067365D01*
X168816006Y-74208218D01*
X168696218Y-74328006D01*
X168555365Y-74422121D01*
X168555364Y-74422122D01*
X168555363Y-74422122D01*
X168398853Y-74486951D01*
X168232703Y-74520000D01*
X168063297Y-74520000D01*
X167897147Y-74486951D01*
X167740637Y-74422122D01*
X167740636Y-74422122D01*
X167740635Y-74422121D01*
X167599782Y-74328006D01*
X167479994Y-74208218D01*
X167385879Y-74067365D01*
X167360054Y-74005018D01*
X167321049Y-73910853D01*
X167288000Y-73744703D01*
X167288000Y-73575297D01*
X167321049Y-73409147D01*
X167385878Y-73252637D01*
X167417075Y-73205947D01*
X167479994Y-73111782D01*
X167599782Y-72991994D01*
X167740635Y-72897879D01*
X167740637Y-72897878D01*
X167897147Y-72833049D01*
X168063297Y-72800000D01*
X168232703Y-72800000D01*
X168398853Y-72833049D01*
G37*
G36*
X161794853Y-72629849D02*
G01*
X161951363Y-72694678D01*
X161951365Y-72694679D01*
X162092218Y-72788794D01*
X162212006Y-72908582D01*
X162306121Y-73049435D01*
X162306122Y-73049437D01*
X162370951Y-73205947D01*
X162404000Y-73372097D01*
X162404000Y-73541503D01*
X162370951Y-73707653D01*
X162306122Y-73864163D01*
X162306121Y-73864165D01*
X162212006Y-74005018D01*
X162092218Y-74124806D01*
X161951365Y-74218921D01*
X161951364Y-74218922D01*
X161951363Y-74218922D01*
X161794853Y-74283751D01*
X161628703Y-74316800D01*
X161459297Y-74316800D01*
X161293147Y-74283751D01*
X161136637Y-74218922D01*
X161136636Y-74218922D01*
X161136635Y-74218921D01*
X160995782Y-74124806D01*
X160875994Y-74005018D01*
X160781879Y-73864165D01*
X160781878Y-73864163D01*
X160717049Y-73707653D01*
X160684000Y-73541503D01*
X160684000Y-73372097D01*
X160717049Y-73205947D01*
X160781878Y-73049437D01*
X160781879Y-73049435D01*
X160875994Y-72908582D01*
X160995782Y-72788794D01*
X161136635Y-72694679D01*
X161136637Y-72694678D01*
X161293147Y-72629849D01*
X161459297Y-72596800D01*
X161628703Y-72596800D01*
X161794853Y-72629849D01*
G37*
G36*
X154174853Y-72629849D02*
G01*
X154331363Y-72694678D01*
X154331365Y-72694679D01*
X154472218Y-72788794D01*
X154592006Y-72908582D01*
X154686121Y-73049435D01*
X154686122Y-73049437D01*
X154750951Y-73205947D01*
X154784000Y-73372097D01*
X154784000Y-73541503D01*
X154750951Y-73707653D01*
X154686122Y-73864163D01*
X154686121Y-73864165D01*
X154592006Y-74005018D01*
X154472218Y-74124806D01*
X154331365Y-74218921D01*
X154331364Y-74218922D01*
X154331363Y-74218922D01*
X154174853Y-74283751D01*
X154008703Y-74316800D01*
X153839297Y-74316800D01*
X153673147Y-74283751D01*
X153516637Y-74218922D01*
X153516636Y-74218922D01*
X153516635Y-74218921D01*
X153375782Y-74124806D01*
X153255994Y-74005018D01*
X153161879Y-73864165D01*
X153161878Y-73864163D01*
X153097049Y-73707653D01*
X153064000Y-73541503D01*
X153064000Y-73372097D01*
X153097049Y-73205947D01*
X153161878Y-73049437D01*
X153161879Y-73049435D01*
X153255994Y-72908582D01*
X153375782Y-72788794D01*
X153516635Y-72694679D01*
X153516637Y-72694678D01*
X153673147Y-72629849D01*
X153839297Y-72596800D01*
X154008703Y-72596800D01*
X154174853Y-72629849D01*
G37*
G36*
X151634853Y-72629849D02*
G01*
X151791363Y-72694678D01*
X151791365Y-72694679D01*
X151932218Y-72788794D01*
X152052006Y-72908582D01*
X152146121Y-73049435D01*
X152146122Y-73049437D01*
X152210951Y-73205947D01*
X152244000Y-73372097D01*
X152244000Y-73541503D01*
X152210951Y-73707653D01*
X152146122Y-73864163D01*
X152146121Y-73864165D01*
X152052006Y-74005018D01*
X151932218Y-74124806D01*
X151791365Y-74218921D01*
X151791364Y-74218922D01*
X151791363Y-74218922D01*
X151634853Y-74283751D01*
X151468703Y-74316800D01*
X151299297Y-74316800D01*
X151133147Y-74283751D01*
X150976637Y-74218922D01*
X150976636Y-74218922D01*
X150976635Y-74218921D01*
X150835782Y-74124806D01*
X150715994Y-74005018D01*
X150621879Y-73864165D01*
X150621878Y-73864163D01*
X150557049Y-73707653D01*
X150524000Y-73541503D01*
X150524000Y-73372097D01*
X150557049Y-73205947D01*
X150621878Y-73049437D01*
X150621879Y-73049435D01*
X150715994Y-72908582D01*
X150835782Y-72788794D01*
X150976635Y-72694679D01*
X150976637Y-72694678D01*
X151133147Y-72629849D01*
X151299297Y-72596800D01*
X151468703Y-72596800D01*
X151634853Y-72629849D01*
G37*
G36*
X149094853Y-72629849D02*
G01*
X149251363Y-72694678D01*
X149251365Y-72694679D01*
X149392218Y-72788794D01*
X149512006Y-72908582D01*
X149606121Y-73049435D01*
X149606122Y-73049437D01*
X149670951Y-73205947D01*
X149704000Y-73372097D01*
X149704000Y-73541503D01*
X149670951Y-73707653D01*
X149606122Y-73864163D01*
X149606121Y-73864165D01*
X149512006Y-74005018D01*
X149392218Y-74124806D01*
X149251365Y-74218921D01*
X149251364Y-74218922D01*
X149251363Y-74218922D01*
X149094853Y-74283751D01*
X148928703Y-74316800D01*
X148759297Y-74316800D01*
X148593147Y-74283751D01*
X148436637Y-74218922D01*
X148436636Y-74218922D01*
X148436635Y-74218921D01*
X148295782Y-74124806D01*
X148175994Y-74005018D01*
X148081879Y-73864165D01*
X148081878Y-73864163D01*
X148017049Y-73707653D01*
X147984000Y-73541503D01*
X147984000Y-73372097D01*
X148017049Y-73205947D01*
X148081878Y-73049437D01*
X148081879Y-73049435D01*
X148175994Y-72908582D01*
X148295782Y-72788794D01*
X148436635Y-72694679D01*
X148436637Y-72694678D01*
X148593147Y-72629849D01*
X148759297Y-72596800D01*
X148928703Y-72596800D01*
X149094853Y-72629849D01*
G37*
G36*
X146554853Y-72629849D02*
G01*
X146711363Y-72694678D01*
X146711365Y-72694679D01*
X146852218Y-72788794D01*
X146972006Y-72908582D01*
X147066121Y-73049435D01*
X147066122Y-73049437D01*
X147130951Y-73205947D01*
X147164000Y-73372097D01*
X147164000Y-73541503D01*
X147130951Y-73707653D01*
X147066122Y-73864163D01*
X147066121Y-73864165D01*
X146972006Y-74005018D01*
X146852218Y-74124806D01*
X146711365Y-74218921D01*
X146711364Y-74218922D01*
X146711363Y-74218922D01*
X146554853Y-74283751D01*
X146388703Y-74316800D01*
X146219297Y-74316800D01*
X146053147Y-74283751D01*
X145896637Y-74218922D01*
X145896636Y-74218922D01*
X145896635Y-74218921D01*
X145755782Y-74124806D01*
X145635994Y-74005018D01*
X145541879Y-73864165D01*
X145541878Y-73864163D01*
X145477049Y-73707653D01*
X145444000Y-73541503D01*
X145444000Y-73372097D01*
X145477049Y-73205947D01*
X145541878Y-73049437D01*
X145541879Y-73049435D01*
X145635994Y-72908582D01*
X145755782Y-72788794D01*
X145896635Y-72694679D01*
X145896637Y-72694678D01*
X146053147Y-72629849D01*
X146219297Y-72596800D01*
X146388703Y-72596800D01*
X146554853Y-72629849D01*
G37*
G36*
X156714853Y-72629849D02*
G01*
X156871363Y-72694678D01*
X156871365Y-72694679D01*
X157012218Y-72788794D01*
X157132006Y-72908582D01*
X157226121Y-73049435D01*
X157226122Y-73049437D01*
X157290951Y-73205947D01*
X157324000Y-73372097D01*
X157324000Y-73541503D01*
X157290951Y-73707653D01*
X157226122Y-73864163D01*
X157226121Y-73864165D01*
X157132006Y-74005018D01*
X157012218Y-74124806D01*
X156871365Y-74218921D01*
X156871364Y-74218922D01*
X156871363Y-74218922D01*
X156714853Y-74283751D01*
X156548703Y-74316800D01*
X156379297Y-74316800D01*
X156213147Y-74283751D01*
X156056637Y-74218922D01*
X156056636Y-74218922D01*
X156056635Y-74218921D01*
X155915782Y-74124806D01*
X155795994Y-74005018D01*
X155701879Y-73864165D01*
X155701878Y-73864163D01*
X155637049Y-73707653D01*
X155604000Y-73541503D01*
X155604000Y-73372097D01*
X155637049Y-73205947D01*
X155701878Y-73049437D01*
X155701879Y-73049435D01*
X155795994Y-72908582D01*
X155915782Y-72788794D01*
X156056635Y-72694679D01*
X156056637Y-72694678D01*
X156213147Y-72629849D01*
X156379297Y-72596800D01*
X156548703Y-72596800D01*
X156714853Y-72629849D01*
G37*
G36*
X159254853Y-72629849D02*
G01*
X159411363Y-72694678D01*
X159411365Y-72694679D01*
X159552218Y-72788794D01*
X159672006Y-72908582D01*
X159766121Y-73049435D01*
X159766122Y-73049437D01*
X159830951Y-73205947D01*
X159864000Y-73372097D01*
X159864000Y-73541503D01*
X159830951Y-73707653D01*
X159766122Y-73864163D01*
X159766121Y-73864165D01*
X159672006Y-74005018D01*
X159552218Y-74124806D01*
X159411365Y-74218921D01*
X159411364Y-74218922D01*
X159411363Y-74218922D01*
X159254853Y-74283751D01*
X159088703Y-74316800D01*
X158919297Y-74316800D01*
X158753147Y-74283751D01*
X158596637Y-74218922D01*
X158596636Y-74218922D01*
X158596635Y-74218921D01*
X158455782Y-74124806D01*
X158335994Y-74005018D01*
X158241879Y-73864165D01*
X158241878Y-73864163D01*
X158177049Y-73707653D01*
X158144000Y-73541503D01*
X158144000Y-73372097D01*
X158177049Y-73205947D01*
X158241878Y-73049437D01*
X158241879Y-73049435D01*
X158335994Y-72908582D01*
X158455782Y-72788794D01*
X158596635Y-72694679D01*
X158596637Y-72694678D01*
X158753147Y-72629849D01*
X158919297Y-72596800D01*
X159088703Y-72596800D01*
X159254853Y-72629849D01*
G37*
G36*
X164334853Y-72629849D02*
G01*
X164491363Y-72694678D01*
X164491365Y-72694679D01*
X164632218Y-72788794D01*
X164752006Y-72908582D01*
X164846121Y-73049435D01*
X164846122Y-73049437D01*
X164910951Y-73205947D01*
X164944000Y-73372097D01*
X164944000Y-73541503D01*
X164910951Y-73707653D01*
X164846122Y-73864163D01*
X164846121Y-73864165D01*
X164752006Y-74005018D01*
X164632218Y-74124806D01*
X164491365Y-74218921D01*
X164491364Y-74218922D01*
X164491363Y-74218922D01*
X164334853Y-74283751D01*
X164168703Y-74316800D01*
X163999297Y-74316800D01*
X163833147Y-74283751D01*
X163676637Y-74218922D01*
X163676636Y-74218922D01*
X163676635Y-74218921D01*
X163535782Y-74124806D01*
X163415994Y-74005018D01*
X163321879Y-73864165D01*
X163321878Y-73864163D01*
X163257049Y-73707653D01*
X163224000Y-73541503D01*
X163224000Y-73372097D01*
X163257049Y-73205947D01*
X163321878Y-73049437D01*
X163321879Y-73049435D01*
X163415994Y-72908582D01*
X163535782Y-72788794D01*
X163676635Y-72694679D01*
X163676637Y-72694678D01*
X163833147Y-72629849D01*
X163999297Y-72596800D01*
X164168703Y-72596800D01*
X164334853Y-72629849D01*
G37*
G36*
X168398853Y-65213049D02*
G01*
X168555363Y-65277878D01*
X168555365Y-65277879D01*
X168696218Y-65371994D01*
X168816006Y-65491782D01*
X168910121Y-65632635D01*
X168910122Y-65632637D01*
X168974951Y-65789147D01*
X169008000Y-65955297D01*
X169008000Y-66124703D01*
X168974951Y-66290853D01*
X168910122Y-66447363D01*
X168910121Y-66447365D01*
X168816006Y-66588218D01*
X168696218Y-66708006D01*
X168555365Y-66802121D01*
X168555364Y-66802122D01*
X168555363Y-66802122D01*
X168398853Y-66866951D01*
X168232703Y-66900000D01*
X168063297Y-66900000D01*
X167897147Y-66866951D01*
X167740637Y-66802122D01*
X167740636Y-66802122D01*
X167740635Y-66802121D01*
X167599782Y-66708006D01*
X167479994Y-66588218D01*
X167385879Y-66447365D01*
X167385878Y-66447363D01*
X167321049Y-66290853D01*
X167288000Y-66124703D01*
X167288000Y-65955297D01*
X167321049Y-65789147D01*
X167385878Y-65632637D01*
X167385879Y-65632635D01*
X167479994Y-65491782D01*
X167599782Y-65371994D01*
X167740635Y-65277879D01*
X167740637Y-65277878D01*
X167897147Y-65213049D01*
X168063297Y-65180000D01*
X168232703Y-65180000D01*
X168398853Y-65213049D01*
G37*
G36*
X155376409Y-64755566D02*
G01*
X155466730Y-64773532D01*
X155636891Y-64844014D01*
X155790028Y-64946338D01*
X155920262Y-65076572D01*
X156022586Y-65229709D01*
X156093068Y-65399870D01*
X156129000Y-65580512D01*
X156129000Y-65764688D01*
X156093068Y-65945330D01*
X156022586Y-66115491D01*
X155920262Y-66268628D01*
X155790028Y-66398862D01*
X155636891Y-66501186D01*
X155466730Y-66571668D01*
X155383528Y-66588218D01*
X155286089Y-66607600D01*
X155101911Y-66607600D01*
X155004472Y-66588218D01*
X154921270Y-66571668D01*
X154751109Y-66501186D01*
X154597972Y-66398862D01*
X154467738Y-66268628D01*
X154365414Y-66115491D01*
X154294932Y-65945330D01*
X154259000Y-65764688D01*
X154259000Y-65580512D01*
X154294932Y-65399870D01*
X154365414Y-65229709D01*
X154467738Y-65076572D01*
X154597972Y-64946338D01*
X154751109Y-64844014D01*
X154921270Y-64773532D01*
X155011591Y-64755566D01*
X155101911Y-64737600D01*
X155286089Y-64737600D01*
X155376409Y-64755566D01*
G37*
G36*
X152820271Y-64125542D02*
G01*
X152910753Y-64143540D01*
X153080914Y-64214022D01*
X153234051Y-64316346D01*
X153364285Y-64446580D01*
X153466609Y-64599717D01*
X153523721Y-64737600D01*
X153537091Y-64769879D01*
X153573023Y-64950519D01*
X153573023Y-65134697D01*
X153557438Y-65213049D01*
X153537091Y-65315338D01*
X153466609Y-65485499D01*
X153364285Y-65638636D01*
X153234051Y-65768870D01*
X153080914Y-65871194D01*
X152910753Y-65941676D01*
X152820432Y-65959642D01*
X152730112Y-65977608D01*
X152545934Y-65977608D01*
X152455614Y-65959642D01*
X152365293Y-65941676D01*
X152195132Y-65871194D01*
X152041995Y-65768870D01*
X151911761Y-65638636D01*
X151809437Y-65485499D01*
X151738955Y-65315338D01*
X151718608Y-65213049D01*
X151703023Y-65134697D01*
X151703023Y-64950519D01*
X151738955Y-64769879D01*
X151752325Y-64737600D01*
X151809437Y-64599717D01*
X151911761Y-64446580D01*
X152041995Y-64316346D01*
X152195132Y-64214022D01*
X152365293Y-64143540D01*
X152455775Y-64125542D01*
X152545934Y-64107608D01*
X152730112Y-64107608D01*
X152820271Y-64125542D01*
G37*
G36*
X157932225Y-64125542D02*
G01*
X158022707Y-64143540D01*
X158192868Y-64214022D01*
X158346005Y-64316346D01*
X158476239Y-64446580D01*
X158578563Y-64599717D01*
X158635675Y-64737600D01*
X158649045Y-64769879D01*
X158684977Y-64950519D01*
X158684977Y-65134697D01*
X158669392Y-65213049D01*
X158649045Y-65315338D01*
X158578563Y-65485499D01*
X158476239Y-65638636D01*
X158346005Y-65768870D01*
X158192868Y-65871194D01*
X158022707Y-65941676D01*
X157932386Y-65959642D01*
X157842066Y-65977608D01*
X157657888Y-65977608D01*
X157567568Y-65959642D01*
X157477247Y-65941676D01*
X157307086Y-65871194D01*
X157153949Y-65768870D01*
X157023715Y-65638636D01*
X156921391Y-65485499D01*
X156850909Y-65315338D01*
X156830562Y-65213049D01*
X156814977Y-65134697D01*
X156814977Y-64950519D01*
X156850909Y-64769879D01*
X156864279Y-64737600D01*
X156921391Y-64599717D01*
X157023715Y-64446580D01*
X157153949Y-64316346D01*
X157307086Y-64214022D01*
X157477247Y-64143540D01*
X157567729Y-64125542D01*
X157657888Y-64107608D01*
X157842066Y-64107608D01*
X157932225Y-64125542D01*
G37*
G36*
X150849998Y-62379922D02*
G01*
X150940319Y-62397888D01*
X151110480Y-62468370D01*
X151263617Y-62570694D01*
X151393851Y-62700928D01*
X151496175Y-62854065D01*
X151566657Y-63024226D01*
X151602589Y-63204868D01*
X151602589Y-63389044D01*
X151566657Y-63569686D01*
X151496175Y-63739847D01*
X151393851Y-63892984D01*
X151263617Y-64023218D01*
X151110480Y-64125542D01*
X150940319Y-64196024D01*
X150849998Y-64213990D01*
X150759678Y-64231956D01*
X150575500Y-64231956D01*
X150485180Y-64213990D01*
X150394859Y-64196024D01*
X150224698Y-64125542D01*
X150071561Y-64023218D01*
X149941327Y-63892984D01*
X149839003Y-63739847D01*
X149768521Y-63569686D01*
X149732589Y-63389044D01*
X149732589Y-63204868D01*
X149768521Y-63024226D01*
X149839003Y-62854065D01*
X149941327Y-62700928D01*
X150071561Y-62570694D01*
X150224698Y-62468370D01*
X150394859Y-62397888D01*
X150485180Y-62379922D01*
X150575500Y-62361956D01*
X150759678Y-62361956D01*
X150849998Y-62379922D01*
G37*
G36*
X159902820Y-62379922D02*
G01*
X159993141Y-62397888D01*
X160163302Y-62468370D01*
X160316439Y-62570694D01*
X160446673Y-62700928D01*
X160548997Y-62854065D01*
X160619479Y-63024226D01*
X160655411Y-63204868D01*
X160655411Y-63389044D01*
X160619479Y-63569686D01*
X160548997Y-63739847D01*
X160446673Y-63892984D01*
X160316439Y-64023218D01*
X160163302Y-64125542D01*
X159993141Y-64196024D01*
X159902820Y-64213990D01*
X159812500Y-64231956D01*
X159628322Y-64231956D01*
X159538002Y-64213990D01*
X159447681Y-64196024D01*
X159277520Y-64125542D01*
X159124383Y-64023218D01*
X158994149Y-63892984D01*
X158891825Y-63739847D01*
X158821343Y-63569686D01*
X158785411Y-63389044D01*
X158785411Y-63204868D01*
X158821343Y-63024226D01*
X158891825Y-62854065D01*
X158994149Y-62700928D01*
X159124383Y-62570694D01*
X159277520Y-62468370D01*
X159447681Y-62397888D01*
X159538002Y-62379922D01*
X159628322Y-62361956D01*
X159812500Y-62361956D01*
X159902820Y-62379922D01*
G37*
G36*
X149916511Y-59918517D02*
G01*
X150006832Y-59936483D01*
X150176993Y-60006965D01*
X150330130Y-60109289D01*
X150460364Y-60239523D01*
X150562688Y-60392660D01*
X150633170Y-60562821D01*
X150669102Y-60743463D01*
X150669102Y-60927639D01*
X150633170Y-61108281D01*
X150562688Y-61278442D01*
X150460364Y-61431579D01*
X150330130Y-61561813D01*
X150176993Y-61664137D01*
X150006832Y-61734619D01*
X149916511Y-61752585D01*
X149826191Y-61770551D01*
X149642013Y-61770551D01*
X149551693Y-61752585D01*
X149461372Y-61734619D01*
X149291211Y-61664137D01*
X149138074Y-61561813D01*
X149007840Y-61431579D01*
X148905516Y-61278442D01*
X148835034Y-61108281D01*
X148799102Y-60927639D01*
X148799102Y-60743463D01*
X148835034Y-60562821D01*
X148905516Y-60392660D01*
X149007840Y-60239523D01*
X149138074Y-60109289D01*
X149291211Y-60006965D01*
X149461372Y-59936483D01*
X149551693Y-59918517D01*
X149642013Y-59900551D01*
X149826191Y-59900551D01*
X149916511Y-59918517D01*
G37*
G36*
X160836307Y-59918517D02*
G01*
X160926628Y-59936483D01*
X161096789Y-60006965D01*
X161249926Y-60109289D01*
X161380160Y-60239523D01*
X161482484Y-60392660D01*
X161552966Y-60562821D01*
X161588898Y-60743463D01*
X161588898Y-60927639D01*
X161552966Y-61108281D01*
X161482484Y-61278442D01*
X161380160Y-61431579D01*
X161249926Y-61561813D01*
X161096789Y-61664137D01*
X160926628Y-61734619D01*
X160836307Y-61752585D01*
X160745987Y-61770551D01*
X160561809Y-61770551D01*
X160471489Y-61752585D01*
X160381168Y-61734619D01*
X160211007Y-61664137D01*
X160057870Y-61561813D01*
X159927636Y-61431579D01*
X159825312Y-61278442D01*
X159754830Y-61108281D01*
X159718898Y-60927639D01*
X159718898Y-60743463D01*
X159754830Y-60562821D01*
X159825312Y-60392660D01*
X159927636Y-60239523D01*
X160057870Y-60109289D01*
X160211007Y-60006965D01*
X160381168Y-59936483D01*
X160471489Y-59918517D01*
X160561809Y-59900551D01*
X160745987Y-59900551D01*
X160836307Y-59918517D01*
G37*
G36*
X150233820Y-57305240D02*
G01*
X150324141Y-57323206D01*
X150494302Y-57393688D01*
X150647439Y-57496012D01*
X150777673Y-57626246D01*
X150879997Y-57779383D01*
X150950479Y-57949544D01*
X150986411Y-58130186D01*
X150986411Y-58314362D01*
X150950479Y-58495004D01*
X150879997Y-58665165D01*
X150777673Y-58818302D01*
X150647439Y-58948536D01*
X150494302Y-59050860D01*
X150324141Y-59121342D01*
X150233820Y-59139308D01*
X150143500Y-59157274D01*
X149959322Y-59157274D01*
X149869002Y-59139308D01*
X149778681Y-59121342D01*
X149608520Y-59050860D01*
X149455383Y-58948536D01*
X149325149Y-58818302D01*
X149222825Y-58665165D01*
X149152343Y-58495004D01*
X149116411Y-58314362D01*
X149116411Y-58130186D01*
X149152343Y-57949544D01*
X149222825Y-57779383D01*
X149325149Y-57626246D01*
X149455383Y-57496012D01*
X149608520Y-57393688D01*
X149778681Y-57323206D01*
X149869002Y-57305240D01*
X149959322Y-57287274D01*
X150143500Y-57287274D01*
X150233820Y-57305240D01*
G37*
G36*
X160518998Y-57305240D02*
G01*
X160609319Y-57323206D01*
X160779480Y-57393688D01*
X160932617Y-57496012D01*
X161062851Y-57626246D01*
X161165175Y-57779383D01*
X161235657Y-57949544D01*
X161271589Y-58130186D01*
X161271589Y-58314362D01*
X161235657Y-58495004D01*
X161165175Y-58665165D01*
X161062851Y-58818302D01*
X160932617Y-58948536D01*
X160779480Y-59050860D01*
X160609319Y-59121342D01*
X160518998Y-59139308D01*
X160428678Y-59157274D01*
X160244500Y-59157274D01*
X160154180Y-59139308D01*
X160063859Y-59121342D01*
X159893698Y-59050860D01*
X159740561Y-58948536D01*
X159610327Y-58818302D01*
X159508003Y-58665165D01*
X159437521Y-58495004D01*
X159401589Y-58314362D01*
X159401589Y-58130186D01*
X159437521Y-57949544D01*
X159508003Y-57779383D01*
X159610327Y-57626246D01*
X159740561Y-57496012D01*
X159893698Y-57393688D01*
X160063859Y-57323206D01*
X160154180Y-57305240D01*
X160244500Y-57287274D01*
X160428678Y-57287274D01*
X160518998Y-57305240D01*
G37*
G36*
X159023583Y-55138757D02*
G01*
X159113904Y-55156723D01*
X159284065Y-55227205D01*
X159437202Y-55329529D01*
X159567436Y-55459763D01*
X159669760Y-55612900D01*
X159740242Y-55783061D01*
X159776174Y-55963703D01*
X159776174Y-56147879D01*
X159740242Y-56328521D01*
X159669760Y-56498682D01*
X159567436Y-56651819D01*
X159437202Y-56782053D01*
X159284065Y-56884377D01*
X159113904Y-56954859D01*
X159023583Y-56972825D01*
X158933263Y-56990791D01*
X158749085Y-56990791D01*
X158658765Y-56972825D01*
X158568444Y-56954859D01*
X158398283Y-56884377D01*
X158245146Y-56782053D01*
X158114912Y-56651819D01*
X158012588Y-56498682D01*
X157942106Y-56328521D01*
X157906174Y-56147879D01*
X157906174Y-55963703D01*
X157942106Y-55783061D01*
X158012588Y-55612900D01*
X158114912Y-55459763D01*
X158245146Y-55329529D01*
X158398283Y-55227205D01*
X158568444Y-55156723D01*
X158658765Y-55138757D01*
X158749085Y-55120791D01*
X158933263Y-55120791D01*
X159023583Y-55138757D01*
G37*
G36*
X151729235Y-55138757D02*
G01*
X151819556Y-55156723D01*
X151989717Y-55227205D01*
X152142854Y-55329529D01*
X152273088Y-55459763D01*
X152375412Y-55612900D01*
X152445894Y-55783061D01*
X152481826Y-55963703D01*
X152481826Y-56147879D01*
X152445894Y-56328521D01*
X152375412Y-56498682D01*
X152273088Y-56651819D01*
X152142854Y-56782053D01*
X151989717Y-56884377D01*
X151819556Y-56954859D01*
X151729235Y-56972825D01*
X151638915Y-56990791D01*
X151454737Y-56990791D01*
X151364417Y-56972825D01*
X151274096Y-56954859D01*
X151103935Y-56884377D01*
X150950798Y-56782053D01*
X150820564Y-56651819D01*
X150718240Y-56498682D01*
X150647758Y-56328521D01*
X150611826Y-56147879D01*
X150611826Y-55963703D01*
X150647758Y-55783061D01*
X150718240Y-55612900D01*
X150820564Y-55459763D01*
X150950798Y-55329529D01*
X151103935Y-55227205D01*
X151274096Y-55156723D01*
X151364417Y-55138757D01*
X151454737Y-55120791D01*
X151638915Y-55120791D01*
X151729235Y-55138757D01*
G37*
G36*
X156692645Y-53915387D02*
G01*
X156782966Y-53933353D01*
X156953127Y-54003835D01*
X157106264Y-54106159D01*
X157236498Y-54236393D01*
X157338822Y-54389530D01*
X157409304Y-54559691D01*
X157445236Y-54740333D01*
X157445236Y-54924509D01*
X157409304Y-55105151D01*
X157338822Y-55275312D01*
X157236498Y-55428449D01*
X157106264Y-55558683D01*
X156953127Y-55661007D01*
X156782966Y-55731489D01*
X156692645Y-55749455D01*
X156602325Y-55767421D01*
X156418147Y-55767421D01*
X156327827Y-55749455D01*
X156237506Y-55731489D01*
X156067345Y-55661007D01*
X155914208Y-55558683D01*
X155783974Y-55428449D01*
X155681650Y-55275312D01*
X155611168Y-55105151D01*
X155575236Y-54924509D01*
X155575236Y-54740333D01*
X155611168Y-54559691D01*
X155681650Y-54389530D01*
X155783974Y-54236393D01*
X155914208Y-54106159D01*
X156067345Y-54003835D01*
X156237506Y-53933353D01*
X156327827Y-53915387D01*
X156418147Y-53897421D01*
X156602325Y-53897421D01*
X156692645Y-53915387D01*
G37*
G36*
X154060173Y-53915387D02*
G01*
X154150494Y-53933353D01*
X154320655Y-54003835D01*
X154473792Y-54106159D01*
X154604026Y-54236393D01*
X154706350Y-54389530D01*
X154776832Y-54559691D01*
X154812764Y-54740333D01*
X154812764Y-54924509D01*
X154776832Y-55105151D01*
X154706350Y-55275312D01*
X154604026Y-55428449D01*
X154473792Y-55558683D01*
X154320655Y-55661007D01*
X154150494Y-55731489D01*
X154060173Y-55749455D01*
X153969853Y-55767421D01*
X153785675Y-55767421D01*
X153695355Y-55749455D01*
X153605034Y-55731489D01*
X153434873Y-55661007D01*
X153281736Y-55558683D01*
X153151502Y-55428449D01*
X153049178Y-55275312D01*
X152978696Y-55105151D01*
X152942764Y-54924509D01*
X152942764Y-54740333D01*
X152978696Y-54559691D01*
X153049178Y-54389530D01*
X153151502Y-54236393D01*
X153281736Y-54106159D01*
X153434873Y-54003835D01*
X153605034Y-53933353D01*
X153695355Y-53915387D01*
X153785675Y-53897421D01*
X153969853Y-53897421D01*
X154060173Y-53915387D01*
G37*
M02*
