%TF.GenerationSoftware,KiCad,Pcbnew,5.1.6-c6e7f7d~87~ubuntu20.04.1*%
%TF.CreationDate,2020-09-12T14:26:48-04:00*%
%TF.ProjectId,IN-14_Daughter,494e2d31-345f-4446-9175-67687465722e,rev?*%
%TF.SameCoordinates,Original*%
%TF.FileFunction,Copper,L1,Top*%
%TF.FilePolarity,Positive*%
%FSLAX46Y46*%
G04 Gerber Fmt 4.6, Leading zero omitted, Abs format (unit mm)*
G04 Created by KiCad (PCBNEW 5.1.6-c6e7f7d~87~ubuntu20.04.1) date 2020-09-12 14:26:48*
%MOMM*%
%LPD*%
G01*
G04 APERTURE LIST*
%TA.AperFunction,ComponentPad*%
%ADD10O,1.750000X1.750000*%
%TD*%
%TA.AperFunction,ComponentPad*%
%ADD11O,1.600000X1.600000*%
%TD*%
%TA.AperFunction,ComponentPad*%
%ADD12R,1.600000X1.600000*%
%TD*%
%TA.AperFunction,ComponentPad*%
%ADD13R,1.700000X1.700000*%
%TD*%
%TA.AperFunction,ComponentPad*%
%ADD14O,1.700000X1.700000*%
%TD*%
%TA.AperFunction,ComponentPad*%
%ADD15C,1.600000*%
%TD*%
%TA.AperFunction,ViaPad*%
%ADD16C,0.800000*%
%TD*%
%TA.AperFunction,Conductor*%
%ADD17C,0.250000*%
%TD*%
G04 APERTURE END LIST*
D10*
%TO.P,N1,13*%
%TO.N,Net-(N1-Pad1)*%
X157749977Y-65042608D03*
%TO.P,N1,12*%
%TO.N,Net-(N1-Pad12)*%
X159720411Y-63296956D03*
%TO.P,N1,11*%
%TO.N,Net-(N1-Pad11)*%
X160653898Y-60835551D03*
%TO.P,N1,10*%
%TO.N,Net-(N1-Pad10)*%
X160336589Y-58222274D03*
%TO.P,N1,9*%
%TO.N,Net-(N1-Pad9)*%
X158841174Y-56055791D03*
%TO.P,N1,8*%
%TO.N,Net-(N1-Pad8)*%
X156510236Y-54832421D03*
%TO.P,N1,7*%
%TO.N,Net-(N1-Pad7)*%
X153877764Y-54832421D03*
%TO.P,N1,6*%
%TO.N,Net-(N1-Pad6)*%
X151546826Y-56055791D03*
%TO.P,N1,5*%
%TO.N,Net-(N1-Pad5)*%
X150051411Y-58222274D03*
%TO.P,N1,4*%
%TO.N,Net-(N1-Pad4)*%
X149734102Y-60835551D03*
%TO.P,N1,3*%
%TO.N,Net-(N1-Pad3)*%
X150667589Y-63296956D03*
%TO.P,N1,2*%
%TO.N,Net-(N1-Pad1)*%
X152638023Y-65042608D03*
%TO.P,N1,1*%
X155194000Y-65672600D03*
%TD*%
D11*
%TO.P,U1,16*%
%TO.N,Net-(N1-Pad6)*%
X146304000Y-73456800D03*
%TO.P,U1,8*%
%TO.N,Net-(N1-Pad10)*%
X164084000Y-81076800D03*
%TO.P,U1,15*%
%TO.N,Net-(N1-Pad5)*%
X148844000Y-73456800D03*
%TO.P,U1,7*%
%TO.N,Net-(J1-Pad2)*%
X161544000Y-81076800D03*
%TO.P,U1,14*%
%TO.N,Net-(N1-Pad3)*%
X151384000Y-73456800D03*
%TO.P,U1,6*%
%TO.N,Net-(J1-Pad3)*%
X159004000Y-81076800D03*
%TO.P,U1,13*%
%TO.N,Net-(N1-Pad8)*%
X153924000Y-73456800D03*
%TO.P,U1,5*%
%TO.N,VCC*%
X156464000Y-81076800D03*
%TO.P,U1,12*%
%TO.N,GND*%
X156464000Y-73456800D03*
%TO.P,U1,4*%
%TO.N,Net-(J1-Pad1)*%
X153924000Y-81076800D03*
%TO.P,U1,11*%
%TO.N,Net-(N1-Pad9)*%
X159004000Y-73456800D03*
%TO.P,U1,3*%
%TO.N,Net-(J1-Pad4)*%
X151384000Y-81076800D03*
%TO.P,U1,10*%
%TO.N,Net-(N1-Pad12)*%
X161544000Y-73456800D03*
%TO.P,U1,2*%
%TO.N,Net-(N1-Pad4)*%
X148844000Y-81076800D03*
%TO.P,U1,9*%
%TO.N,Net-(N1-Pad11)*%
X164084000Y-73456800D03*
D12*
%TO.P,U1,1*%
%TO.N,Net-(N1-Pad7)*%
X146304000Y-81076800D03*
%TD*%
D13*
%TO.P,J1,1*%
%TO.N,Net-(J1-Pad1)*%
X146304000Y-85344000D03*
D14*
%TO.P,J1,2*%
%TO.N,Net-(J1-Pad2)*%
X148844000Y-85344000D03*
%TO.P,J1,3*%
%TO.N,Net-(J1-Pad3)*%
X151384000Y-85344000D03*
%TO.P,J1,4*%
%TO.N,Net-(J1-Pad4)*%
X153924000Y-85344000D03*
%TO.P,J1,5*%
%TO.N,GND*%
X156464000Y-85344000D03*
%TO.P,J1,6*%
%TO.N,VCC*%
X159004000Y-85344000D03*
%TO.P,J1,7*%
%TO.N,GND*%
X161544000Y-85344000D03*
%TO.P,J1,8*%
%TO.N,Net-(J1-Pad8)*%
X164084000Y-85344000D03*
%TD*%
D13*
%TO.P,J2,1*%
%TO.N,Net-(J1-Pad1)*%
X151384000Y-92456000D03*
D14*
%TO.P,J2,2*%
%TO.N,Net-(J1-Pad2)*%
X151384000Y-89916000D03*
%TO.P,J2,3*%
%TO.N,Net-(J1-Pad3)*%
X153924000Y-92456000D03*
%TO.P,J2,4*%
%TO.N,Net-(J1-Pad4)*%
X153924000Y-89916000D03*
%TO.P,J2,5*%
%TO.N,GND*%
X156464000Y-92456000D03*
%TO.P,J2,6*%
%TO.N,VCC*%
X156464000Y-89916000D03*
%TO.P,J2,7*%
%TO.N,GND*%
X159004000Y-92456000D03*
%TO.P,J2,8*%
%TO.N,Net-(J1-Pad8)*%
X159004000Y-89916000D03*
%TD*%
D15*
%TO.P,R1,1*%
%TO.N,Net-(J1-Pad8)*%
X168148000Y-73660000D03*
D11*
%TO.P,R1,2*%
%TO.N,Net-(N1-Pad1)*%
X168148000Y-66040000D03*
%TD*%
D16*
%TO.N,Net-(N1-Pad4)*%
X143764000Y-63500000D03*
%TO.N,Net-(N1-Pad10)*%
X166624000Y-77216000D03*
%TD*%
D17*
%TO.N,Net-(J1-Pad1)*%
X152798999Y-79951799D02*
X153924000Y-81076800D01*
X150843999Y-79951799D02*
X152798999Y-79951799D01*
X150258999Y-80536799D02*
X150843999Y-79951799D01*
X150258999Y-81622803D02*
X150258999Y-80536799D01*
X149480001Y-82401801D02*
X150258999Y-81622803D01*
X149246199Y-82401801D02*
X149480001Y-82401801D01*
X146304000Y-85344000D02*
X149246199Y-82401801D01*
X146304000Y-85344000D02*
X146304000Y-89916000D01*
X148844000Y-92456000D02*
X151384000Y-92456000D01*
X146304000Y-89916000D02*
X148844000Y-92456000D01*
%TO.N,Net-(J1-Pad2)*%
X148844000Y-87376000D02*
X148844000Y-85344000D01*
X151384000Y-89916000D02*
X148844000Y-87376000D01*
%TO.N,Net-(J1-Pad3)*%
X151384000Y-84328000D02*
X152908000Y-82804000D01*
X151384000Y-85344000D02*
X151384000Y-84328000D01*
X157678999Y-79751799D02*
X159004000Y-81076800D01*
X155827999Y-79751799D02*
X157678999Y-79751799D01*
X155138999Y-81526803D02*
X155138999Y-80440799D01*
X153861802Y-82804000D02*
X155138999Y-81526803D01*
X155138999Y-80440799D02*
X155827999Y-79751799D01*
X152908000Y-82804000D02*
X153861802Y-82804000D01*
%TO.N,Net-(J1-Pad4)*%
X152748999Y-86519001D02*
X153924000Y-85344000D01*
X150208999Y-85908001D02*
X150819999Y-86519001D01*
X150208999Y-84779999D02*
X150208999Y-85908001D01*
X151384000Y-83604998D02*
X150208999Y-84779999D01*
X150819999Y-86519001D02*
X152748999Y-86519001D01*
X151384000Y-81076800D02*
X151384000Y-83604998D01*
%TO.N,VCC*%
X159004000Y-83616800D02*
X156464000Y-81076800D01*
X159004000Y-85344000D02*
X159004000Y-83616800D01*
X156464000Y-87884000D02*
X159004000Y-85344000D01*
X156464000Y-89916000D02*
X156464000Y-87884000D01*
%TO.N,Net-(J1-Pad8)*%
X168148000Y-81280000D02*
X168148000Y-73660000D01*
X164084000Y-85344000D02*
X168148000Y-81280000D01*
X159004000Y-89916000D02*
X160528000Y-89916000D01*
X164084000Y-86360000D02*
X164084000Y-85344000D01*
X160528000Y-89916000D02*
X164084000Y-86360000D01*
%TO.N,Net-(N1-Pad3)*%
X150667589Y-72740389D02*
X150667589Y-63296956D01*
X151384000Y-73456800D02*
X150667589Y-72740389D01*
%TO.N,Net-(N1-Pad4)*%
X147518999Y-82401801D02*
X148844000Y-81076800D01*
X145083999Y-82401801D02*
X147518999Y-82401801D01*
X143764000Y-81081802D02*
X145083999Y-82401801D01*
X143764000Y-63500000D02*
X143764000Y-81081802D01*
%TO.N,Net-(N1-Pad5)*%
X148334101Y-59939584D02*
X150051411Y-58222274D01*
X148334101Y-72946901D02*
X148334101Y-59939584D01*
X148844000Y-73456800D02*
X148334101Y-72946901D01*
%TO.N,Net-(N1-Pad6)*%
X150145892Y-56055791D02*
X151546826Y-56055791D01*
X146304000Y-59897683D02*
X150145892Y-56055791D01*
X146304000Y-73456800D02*
X146304000Y-59897683D01*
%TO.N,Net-(N1-Pad7)*%
X153701133Y-54655790D02*
X153877764Y-54832421D01*
X150626641Y-54655790D02*
X153701133Y-54655790D01*
X144978999Y-60303432D02*
X150626641Y-54655790D01*
X144978999Y-79751799D02*
X144978999Y-60303432D01*
X146304000Y-81076800D02*
X144978999Y-79751799D01*
%TO.N,Net-(N1-Pad8)*%
X155899011Y-75431811D02*
X165360189Y-75431811D01*
X153924000Y-73456800D02*
X155899011Y-75431811D01*
X157385235Y-53957422D02*
X156510236Y-54832421D01*
X159062991Y-53957422D02*
X157385235Y-53957422D01*
X166059011Y-60953442D02*
X159062991Y-53957422D01*
X166059011Y-74732989D02*
X166059011Y-60953442D01*
X165360189Y-75431811D02*
X166059011Y-74732989D01*
%TO.N,Net-(N1-Pad9)*%
X160242108Y-56055791D02*
X158841174Y-56055791D01*
X165409001Y-61222684D02*
X160242108Y-56055791D01*
X164720001Y-74781801D02*
X165409001Y-74092801D01*
X160329001Y-74781801D02*
X164720001Y-74781801D01*
X165409001Y-74092801D02*
X165409001Y-61222684D01*
X159004000Y-73456800D02*
X160329001Y-74781801D01*
%TO.N,Net-(N1-Pad10)*%
X166624000Y-77216000D02*
X165608000Y-77216000D01*
X164084000Y-78740000D02*
X164084000Y-81076800D01*
X165608000Y-77216000D02*
X164084000Y-78740000D01*
%TO.N,Net-(N1-Pad11)*%
X164084000Y-73456800D02*
X164084000Y-72136000D01*
X164084000Y-72136000D02*
X161544000Y-69596000D01*
X161544000Y-61725653D02*
X160653898Y-60835551D01*
X161544000Y-69596000D02*
X161544000Y-61725653D01*
%TO.N,Net-(N1-Pad12)*%
X159720411Y-71633211D02*
X161544000Y-73456800D01*
X159720411Y-63296956D02*
X159720411Y-71633211D01*
%TD*%
M02*
