%TF.GenerationSoftware,KiCad,Pcbnew,5.1.6-c6e7f7d~87~ubuntu20.04.1*%
%TF.CreationDate,2020-09-12T14:26:48-04:00*%
%TF.ProjectId,IN-14_Daughter,494e2d31-345f-4446-9175-67687465722e,rev?*%
%TF.SameCoordinates,Original*%
%TF.FileFunction,Copper,L2,Bot*%
%TF.FilePolarity,Positive*%
%FSLAX46Y46*%
G04 Gerber Fmt 4.6, Leading zero omitted, Abs format (unit mm)*
G04 Created by KiCad (PCBNEW 5.1.6-c6e7f7d~87~ubuntu20.04.1) date 2020-09-12 14:26:48*
%MOMM*%
%LPD*%
G01*
G04 APERTURE LIST*
%TA.AperFunction,ComponentPad*%
%ADD10O,1.750000X1.750000*%
%TD*%
%TA.AperFunction,ComponentPad*%
%ADD11O,1.600000X1.600000*%
%TD*%
%TA.AperFunction,ComponentPad*%
%ADD12R,1.600000X1.600000*%
%TD*%
%TA.AperFunction,ComponentPad*%
%ADD13R,1.700000X1.700000*%
%TD*%
%TA.AperFunction,ComponentPad*%
%ADD14O,1.700000X1.700000*%
%TD*%
%TA.AperFunction,ComponentPad*%
%ADD15C,1.600000*%
%TD*%
%TA.AperFunction,ViaPad*%
%ADD16C,0.800000*%
%TD*%
%TA.AperFunction,Conductor*%
%ADD17C,0.250000*%
%TD*%
%TA.AperFunction,Conductor*%
%ADD18C,0.254000*%
%TD*%
G04 APERTURE END LIST*
D10*
%TO.P,N1,13*%
%TO.N,Net-(N1-Pad1)*%
X157749977Y-65042608D03*
%TO.P,N1,12*%
%TO.N,Net-(N1-Pad12)*%
X159720411Y-63296956D03*
%TO.P,N1,11*%
%TO.N,Net-(N1-Pad11)*%
X160653898Y-60835551D03*
%TO.P,N1,10*%
%TO.N,Net-(N1-Pad10)*%
X160336589Y-58222274D03*
%TO.P,N1,9*%
%TO.N,Net-(N1-Pad9)*%
X158841174Y-56055791D03*
%TO.P,N1,8*%
%TO.N,Net-(N1-Pad8)*%
X156510236Y-54832421D03*
%TO.P,N1,7*%
%TO.N,Net-(N1-Pad7)*%
X153877764Y-54832421D03*
%TO.P,N1,6*%
%TO.N,Net-(N1-Pad6)*%
X151546826Y-56055791D03*
%TO.P,N1,5*%
%TO.N,Net-(N1-Pad5)*%
X150051411Y-58222274D03*
%TO.P,N1,4*%
%TO.N,Net-(N1-Pad4)*%
X149734102Y-60835551D03*
%TO.P,N1,3*%
%TO.N,Net-(N1-Pad3)*%
X150667589Y-63296956D03*
%TO.P,N1,2*%
%TO.N,Net-(N1-Pad1)*%
X152638023Y-65042608D03*
%TO.P,N1,1*%
X155194000Y-65672600D03*
%TD*%
D11*
%TO.P,U1,16*%
%TO.N,Net-(N1-Pad6)*%
X146304000Y-73456800D03*
%TO.P,U1,8*%
%TO.N,Net-(N1-Pad10)*%
X164084000Y-81076800D03*
%TO.P,U1,15*%
%TO.N,Net-(N1-Pad5)*%
X148844000Y-73456800D03*
%TO.P,U1,7*%
%TO.N,Net-(J1-Pad2)*%
X161544000Y-81076800D03*
%TO.P,U1,14*%
%TO.N,Net-(N1-Pad3)*%
X151384000Y-73456800D03*
%TO.P,U1,6*%
%TO.N,Net-(J1-Pad3)*%
X159004000Y-81076800D03*
%TO.P,U1,13*%
%TO.N,Net-(N1-Pad8)*%
X153924000Y-73456800D03*
%TO.P,U1,5*%
%TO.N,VCC*%
X156464000Y-81076800D03*
%TO.P,U1,12*%
%TO.N,GND*%
X156464000Y-73456800D03*
%TO.P,U1,4*%
%TO.N,Net-(J1-Pad1)*%
X153924000Y-81076800D03*
%TO.P,U1,11*%
%TO.N,Net-(N1-Pad9)*%
X159004000Y-73456800D03*
%TO.P,U1,3*%
%TO.N,Net-(J1-Pad4)*%
X151384000Y-81076800D03*
%TO.P,U1,10*%
%TO.N,Net-(N1-Pad12)*%
X161544000Y-73456800D03*
%TO.P,U1,2*%
%TO.N,Net-(N1-Pad4)*%
X148844000Y-81076800D03*
%TO.P,U1,9*%
%TO.N,Net-(N1-Pad11)*%
X164084000Y-73456800D03*
D12*
%TO.P,U1,1*%
%TO.N,Net-(N1-Pad7)*%
X146304000Y-81076800D03*
%TD*%
D13*
%TO.P,J1,1*%
%TO.N,Net-(J1-Pad1)*%
X146304000Y-85344000D03*
D14*
%TO.P,J1,2*%
%TO.N,Net-(J1-Pad2)*%
X148844000Y-85344000D03*
%TO.P,J1,3*%
%TO.N,Net-(J1-Pad3)*%
X151384000Y-85344000D03*
%TO.P,J1,4*%
%TO.N,Net-(J1-Pad4)*%
X153924000Y-85344000D03*
%TO.P,J1,5*%
%TO.N,GND*%
X156464000Y-85344000D03*
%TO.P,J1,6*%
%TO.N,VCC*%
X159004000Y-85344000D03*
%TO.P,J1,7*%
%TO.N,GND*%
X161544000Y-85344000D03*
%TO.P,J1,8*%
%TO.N,Net-(J1-Pad8)*%
X164084000Y-85344000D03*
%TD*%
D13*
%TO.P,J2,1*%
%TO.N,Net-(J1-Pad1)*%
X151384000Y-92456000D03*
D14*
%TO.P,J2,2*%
%TO.N,Net-(J1-Pad2)*%
X151384000Y-89916000D03*
%TO.P,J2,3*%
%TO.N,Net-(J1-Pad3)*%
X153924000Y-92456000D03*
%TO.P,J2,4*%
%TO.N,Net-(J1-Pad4)*%
X153924000Y-89916000D03*
%TO.P,J2,5*%
%TO.N,GND*%
X156464000Y-92456000D03*
%TO.P,J2,6*%
%TO.N,VCC*%
X156464000Y-89916000D03*
%TO.P,J2,7*%
%TO.N,GND*%
X159004000Y-92456000D03*
%TO.P,J2,8*%
%TO.N,Net-(J1-Pad8)*%
X159004000Y-89916000D03*
%TD*%
D15*
%TO.P,R1,1*%
%TO.N,Net-(J1-Pad8)*%
X168148000Y-73660000D03*
D11*
%TO.P,R1,2*%
%TO.N,Net-(N1-Pad1)*%
X168148000Y-66040000D03*
%TD*%
D16*
%TO.N,Net-(N1-Pad4)*%
X143764000Y-63500000D03*
%TO.N,Net-(N1-Pad10)*%
X166624000Y-77216000D03*
%TD*%
D17*
%TO.N,Net-(J1-Pad2)*%
X151043999Y-79751799D02*
X160218999Y-79751799D01*
X160218999Y-79751799D02*
X161544000Y-81076800D01*
X150169001Y-80626797D02*
X151043999Y-79751799D01*
X150169001Y-84018999D02*
X150169001Y-80626797D01*
X148844000Y-85344000D02*
X150169001Y-84018999D01*
%TO.N,Net-(J1-Pad3)*%
X151384000Y-85344000D02*
X151384000Y-87884000D01*
X152559001Y-91091001D02*
X153924000Y-92456000D01*
X152559001Y-89059001D02*
X152559001Y-91091001D01*
X151384000Y-87884000D02*
X152559001Y-89059001D01*
%TO.N,Net-(J1-Pad4)*%
X153924000Y-89916000D02*
X153924000Y-85344000D01*
%TO.N,Net-(N1-Pad1)*%
X158747369Y-66040000D02*
X157749977Y-65042608D01*
X155823992Y-65042608D02*
X155194000Y-65672600D01*
X157749977Y-65042608D02*
X155823992Y-65042608D01*
X153268015Y-65672600D02*
X152638023Y-65042608D01*
X155194000Y-65672600D02*
X153268015Y-65672600D01*
X158747369Y-66040000D02*
X168148000Y-66040000D01*
%TO.N,Net-(N1-Pad4)*%
X149734102Y-60835551D02*
X147069653Y-63500000D01*
X147069653Y-63500000D02*
X145796000Y-63500000D01*
X145796000Y-63500000D02*
X143764000Y-63500000D01*
%TO.N,Net-(N1-Pad10)*%
X160336589Y-58222274D02*
X162291276Y-58222274D01*
X162291276Y-58222274D02*
X166934274Y-58222274D01*
X166934274Y-58222274D02*
X167950274Y-58222274D01*
X167950274Y-58222274D02*
X170137990Y-60409990D01*
X170137990Y-60409990D02*
X170137990Y-75226010D01*
X168148000Y-77216000D02*
X166624000Y-77216000D01*
X170137990Y-75226010D02*
X168148000Y-77216000D01*
%TD*%
D18*
%TO.N,GND*%
G36*
X166497000Y-76185985D02*
G01*
X166322102Y-76220774D01*
X166133744Y-76298795D01*
X165964226Y-76412063D01*
X165820063Y-76556226D01*
X165706795Y-76725744D01*
X165628774Y-76914102D01*
X165589000Y-77114061D01*
X165589000Y-77317939D01*
X165628774Y-77517898D01*
X165706795Y-77706256D01*
X165820063Y-77875774D01*
X165964226Y-78019937D01*
X166133744Y-78133205D01*
X166322102Y-78211226D01*
X166497000Y-78246015D01*
X166497000Y-94869000D01*
X143408000Y-94869000D01*
X143408000Y-84494000D01*
X144815928Y-84494000D01*
X144815928Y-86194000D01*
X144828188Y-86318482D01*
X144864498Y-86438180D01*
X144923463Y-86548494D01*
X145002815Y-86645185D01*
X145099506Y-86724537D01*
X145209820Y-86783502D01*
X145329518Y-86819812D01*
X145454000Y-86832072D01*
X147154000Y-86832072D01*
X147278482Y-86819812D01*
X147398180Y-86783502D01*
X147508494Y-86724537D01*
X147605185Y-86645185D01*
X147684537Y-86548494D01*
X147743502Y-86438180D01*
X147765513Y-86365620D01*
X147897368Y-86497475D01*
X148140589Y-86659990D01*
X148410842Y-86771932D01*
X148697740Y-86829000D01*
X148990260Y-86829000D01*
X149277158Y-86771932D01*
X149547411Y-86659990D01*
X149790632Y-86497475D01*
X149997475Y-86290632D01*
X150114000Y-86116240D01*
X150230525Y-86290632D01*
X150437368Y-86497475D01*
X150624001Y-86622179D01*
X150624001Y-87846668D01*
X150620324Y-87884000D01*
X150634998Y-88032985D01*
X150678454Y-88176246D01*
X150749026Y-88308276D01*
X150786104Y-88353455D01*
X150844000Y-88424001D01*
X150872998Y-88447799D01*
X150924272Y-88499073D01*
X150680589Y-88600010D01*
X150437368Y-88762525D01*
X150230525Y-88969368D01*
X150068010Y-89212589D01*
X149956068Y-89482842D01*
X149899000Y-89769740D01*
X149899000Y-90062260D01*
X149956068Y-90349158D01*
X150068010Y-90619411D01*
X150230525Y-90862632D01*
X150362380Y-90994487D01*
X150289820Y-91016498D01*
X150179506Y-91075463D01*
X150082815Y-91154815D01*
X150003463Y-91251506D01*
X149944498Y-91361820D01*
X149908188Y-91481518D01*
X149895928Y-91606000D01*
X149895928Y-93306000D01*
X149908188Y-93430482D01*
X149944498Y-93550180D01*
X150003463Y-93660494D01*
X150082815Y-93757185D01*
X150179506Y-93836537D01*
X150289820Y-93895502D01*
X150409518Y-93931812D01*
X150534000Y-93944072D01*
X152234000Y-93944072D01*
X152358482Y-93931812D01*
X152478180Y-93895502D01*
X152588494Y-93836537D01*
X152685185Y-93757185D01*
X152764537Y-93660494D01*
X152823502Y-93550180D01*
X152845513Y-93477620D01*
X152977368Y-93609475D01*
X153220589Y-93771990D01*
X153490842Y-93883932D01*
X153777740Y-93941000D01*
X154070260Y-93941000D01*
X154357158Y-93883932D01*
X154627411Y-93771990D01*
X154870632Y-93609475D01*
X155077475Y-93402632D01*
X155199195Y-93220466D01*
X155268822Y-93337355D01*
X155463731Y-93553588D01*
X155697080Y-93727641D01*
X155959901Y-93852825D01*
X156107110Y-93897476D01*
X156337000Y-93776155D01*
X156337000Y-92583000D01*
X156591000Y-92583000D01*
X156591000Y-93776155D01*
X156820890Y-93897476D01*
X156968099Y-93852825D01*
X157230920Y-93727641D01*
X157464269Y-93553588D01*
X157659178Y-93337355D01*
X157734000Y-93211745D01*
X157808822Y-93337355D01*
X158003731Y-93553588D01*
X158237080Y-93727641D01*
X158499901Y-93852825D01*
X158647110Y-93897476D01*
X158877000Y-93776155D01*
X158877000Y-92583000D01*
X159131000Y-92583000D01*
X159131000Y-93776155D01*
X159360890Y-93897476D01*
X159508099Y-93852825D01*
X159770920Y-93727641D01*
X160004269Y-93553588D01*
X160199178Y-93337355D01*
X160348157Y-93087252D01*
X160445481Y-92812891D01*
X160324814Y-92583000D01*
X159131000Y-92583000D01*
X158877000Y-92583000D01*
X156591000Y-92583000D01*
X156337000Y-92583000D01*
X156317000Y-92583000D01*
X156317000Y-92329000D01*
X156337000Y-92329000D01*
X156337000Y-92309000D01*
X156591000Y-92309000D01*
X156591000Y-92329000D01*
X158877000Y-92329000D01*
X158877000Y-92309000D01*
X159131000Y-92309000D01*
X159131000Y-92329000D01*
X160324814Y-92329000D01*
X160445481Y-92099109D01*
X160348157Y-91824748D01*
X160199178Y-91574645D01*
X160004269Y-91358412D01*
X159774594Y-91187100D01*
X159950632Y-91069475D01*
X160157475Y-90862632D01*
X160319990Y-90619411D01*
X160431932Y-90349158D01*
X160489000Y-90062260D01*
X160489000Y-89769740D01*
X160431932Y-89482842D01*
X160319990Y-89212589D01*
X160157475Y-88969368D01*
X159950632Y-88762525D01*
X159707411Y-88600010D01*
X159437158Y-88488068D01*
X159150260Y-88431000D01*
X158857740Y-88431000D01*
X158570842Y-88488068D01*
X158300589Y-88600010D01*
X158057368Y-88762525D01*
X157850525Y-88969368D01*
X157734000Y-89143760D01*
X157617475Y-88969368D01*
X157410632Y-88762525D01*
X157167411Y-88600010D01*
X156897158Y-88488068D01*
X156610260Y-88431000D01*
X156317740Y-88431000D01*
X156030842Y-88488068D01*
X155760589Y-88600010D01*
X155517368Y-88762525D01*
X155310525Y-88969368D01*
X155194000Y-89143760D01*
X155077475Y-88969368D01*
X154870632Y-88762525D01*
X154684000Y-88637822D01*
X154684000Y-86622178D01*
X154870632Y-86497475D01*
X155077475Y-86290632D01*
X155199195Y-86108466D01*
X155268822Y-86225355D01*
X155463731Y-86441588D01*
X155697080Y-86615641D01*
X155959901Y-86740825D01*
X156107110Y-86785476D01*
X156337000Y-86664155D01*
X156337000Y-85471000D01*
X156317000Y-85471000D01*
X156317000Y-85217000D01*
X156337000Y-85217000D01*
X156337000Y-84023845D01*
X156591000Y-84023845D01*
X156591000Y-85217000D01*
X156611000Y-85217000D01*
X156611000Y-85471000D01*
X156591000Y-85471000D01*
X156591000Y-86664155D01*
X156820890Y-86785476D01*
X156968099Y-86740825D01*
X157230920Y-86615641D01*
X157464269Y-86441588D01*
X157659178Y-86225355D01*
X157728805Y-86108466D01*
X157850525Y-86290632D01*
X158057368Y-86497475D01*
X158300589Y-86659990D01*
X158570842Y-86771932D01*
X158857740Y-86829000D01*
X159150260Y-86829000D01*
X159437158Y-86771932D01*
X159707411Y-86659990D01*
X159950632Y-86497475D01*
X160157475Y-86290632D01*
X160279195Y-86108466D01*
X160348822Y-86225355D01*
X160543731Y-86441588D01*
X160777080Y-86615641D01*
X161039901Y-86740825D01*
X161187110Y-86785476D01*
X161417000Y-86664155D01*
X161417000Y-85471000D01*
X161397000Y-85471000D01*
X161397000Y-85217000D01*
X161417000Y-85217000D01*
X161417000Y-84023845D01*
X161671000Y-84023845D01*
X161671000Y-85217000D01*
X161691000Y-85217000D01*
X161691000Y-85471000D01*
X161671000Y-85471000D01*
X161671000Y-86664155D01*
X161900890Y-86785476D01*
X162048099Y-86740825D01*
X162310920Y-86615641D01*
X162544269Y-86441588D01*
X162739178Y-86225355D01*
X162808805Y-86108466D01*
X162930525Y-86290632D01*
X163137368Y-86497475D01*
X163380589Y-86659990D01*
X163650842Y-86771932D01*
X163937740Y-86829000D01*
X164230260Y-86829000D01*
X164517158Y-86771932D01*
X164787411Y-86659990D01*
X165030632Y-86497475D01*
X165237475Y-86290632D01*
X165399990Y-86047411D01*
X165511932Y-85777158D01*
X165569000Y-85490260D01*
X165569000Y-85197740D01*
X165511932Y-84910842D01*
X165399990Y-84640589D01*
X165237475Y-84397368D01*
X165030632Y-84190525D01*
X164787411Y-84028010D01*
X164517158Y-83916068D01*
X164230260Y-83859000D01*
X163937740Y-83859000D01*
X163650842Y-83916068D01*
X163380589Y-84028010D01*
X163137368Y-84190525D01*
X162930525Y-84397368D01*
X162808805Y-84579534D01*
X162739178Y-84462645D01*
X162544269Y-84246412D01*
X162310920Y-84072359D01*
X162048099Y-83947175D01*
X161900890Y-83902524D01*
X161671000Y-84023845D01*
X161417000Y-84023845D01*
X161187110Y-83902524D01*
X161039901Y-83947175D01*
X160777080Y-84072359D01*
X160543731Y-84246412D01*
X160348822Y-84462645D01*
X160279195Y-84579534D01*
X160157475Y-84397368D01*
X159950632Y-84190525D01*
X159707411Y-84028010D01*
X159437158Y-83916068D01*
X159150260Y-83859000D01*
X158857740Y-83859000D01*
X158570842Y-83916068D01*
X158300589Y-84028010D01*
X158057368Y-84190525D01*
X157850525Y-84397368D01*
X157728805Y-84579534D01*
X157659178Y-84462645D01*
X157464269Y-84246412D01*
X157230920Y-84072359D01*
X156968099Y-83947175D01*
X156820890Y-83902524D01*
X156591000Y-84023845D01*
X156337000Y-84023845D01*
X156107110Y-83902524D01*
X155959901Y-83947175D01*
X155697080Y-84072359D01*
X155463731Y-84246412D01*
X155268822Y-84462645D01*
X155199195Y-84579534D01*
X155077475Y-84397368D01*
X154870632Y-84190525D01*
X154627411Y-84028010D01*
X154357158Y-83916068D01*
X154070260Y-83859000D01*
X153777740Y-83859000D01*
X153490842Y-83916068D01*
X153220589Y-84028010D01*
X152977368Y-84190525D01*
X152770525Y-84397368D01*
X152654000Y-84571760D01*
X152537475Y-84397368D01*
X152330632Y-84190525D01*
X152087411Y-84028010D01*
X151817158Y-83916068D01*
X151530260Y-83859000D01*
X151237740Y-83859000D01*
X150950842Y-83916068D01*
X150929001Y-83925115D01*
X150929001Y-82441565D01*
X150965426Y-82456653D01*
X151242665Y-82511800D01*
X151525335Y-82511800D01*
X151802574Y-82456653D01*
X152063727Y-82348480D01*
X152298759Y-82191437D01*
X152498637Y-81991559D01*
X152654000Y-81759041D01*
X152809363Y-81991559D01*
X153009241Y-82191437D01*
X153244273Y-82348480D01*
X153505426Y-82456653D01*
X153782665Y-82511800D01*
X154065335Y-82511800D01*
X154342574Y-82456653D01*
X154603727Y-82348480D01*
X154838759Y-82191437D01*
X155038637Y-81991559D01*
X155194000Y-81759041D01*
X155349363Y-81991559D01*
X155549241Y-82191437D01*
X155784273Y-82348480D01*
X156045426Y-82456653D01*
X156322665Y-82511800D01*
X156605335Y-82511800D01*
X156882574Y-82456653D01*
X157143727Y-82348480D01*
X157378759Y-82191437D01*
X157578637Y-81991559D01*
X157734000Y-81759041D01*
X157889363Y-81991559D01*
X158089241Y-82191437D01*
X158324273Y-82348480D01*
X158585426Y-82456653D01*
X158862665Y-82511800D01*
X159145335Y-82511800D01*
X159422574Y-82456653D01*
X159683727Y-82348480D01*
X159918759Y-82191437D01*
X160118637Y-81991559D01*
X160274000Y-81759041D01*
X160429363Y-81991559D01*
X160629241Y-82191437D01*
X160864273Y-82348480D01*
X161125426Y-82456653D01*
X161402665Y-82511800D01*
X161685335Y-82511800D01*
X161962574Y-82456653D01*
X162223727Y-82348480D01*
X162458759Y-82191437D01*
X162658637Y-81991559D01*
X162814000Y-81759041D01*
X162969363Y-81991559D01*
X163169241Y-82191437D01*
X163404273Y-82348480D01*
X163665426Y-82456653D01*
X163942665Y-82511800D01*
X164225335Y-82511800D01*
X164502574Y-82456653D01*
X164763727Y-82348480D01*
X164998759Y-82191437D01*
X165198637Y-81991559D01*
X165355680Y-81756527D01*
X165463853Y-81495374D01*
X165519000Y-81218135D01*
X165519000Y-80935465D01*
X165463853Y-80658226D01*
X165355680Y-80397073D01*
X165198637Y-80162041D01*
X164998759Y-79962163D01*
X164763727Y-79805120D01*
X164502574Y-79696947D01*
X164225335Y-79641800D01*
X163942665Y-79641800D01*
X163665426Y-79696947D01*
X163404273Y-79805120D01*
X163169241Y-79962163D01*
X162969363Y-80162041D01*
X162814000Y-80394559D01*
X162658637Y-80162041D01*
X162458759Y-79962163D01*
X162223727Y-79805120D01*
X161962574Y-79696947D01*
X161685335Y-79641800D01*
X161402665Y-79641800D01*
X161220114Y-79678112D01*
X160782802Y-79240801D01*
X160759000Y-79211798D01*
X160643275Y-79116825D01*
X160511246Y-79046253D01*
X160367985Y-79002796D01*
X160256332Y-78991799D01*
X160256321Y-78991799D01*
X160218999Y-78988123D01*
X160181677Y-78991799D01*
X151081321Y-78991799D01*
X151043998Y-78988123D01*
X151006675Y-78991799D01*
X151006666Y-78991799D01*
X150895013Y-79002796D01*
X150751752Y-79046253D01*
X150619722Y-79116825D01*
X150536082Y-79185467D01*
X150503998Y-79211798D01*
X150480200Y-79240796D01*
X149758796Y-79962200D01*
X149758759Y-79962163D01*
X149523727Y-79805120D01*
X149262574Y-79696947D01*
X148985335Y-79641800D01*
X148702665Y-79641800D01*
X148425426Y-79696947D01*
X148164273Y-79805120D01*
X147929241Y-79962163D01*
X147730643Y-80160761D01*
X147729812Y-80152318D01*
X147693502Y-80032620D01*
X147634537Y-79922306D01*
X147555185Y-79825615D01*
X147458494Y-79746263D01*
X147348180Y-79687298D01*
X147228482Y-79650988D01*
X147104000Y-79638728D01*
X145504000Y-79638728D01*
X145379518Y-79650988D01*
X145259820Y-79687298D01*
X145149506Y-79746263D01*
X145052815Y-79825615D01*
X144973463Y-79922306D01*
X144914498Y-80032620D01*
X144878188Y-80152318D01*
X144865928Y-80276800D01*
X144865928Y-81876800D01*
X144878188Y-82001282D01*
X144914498Y-82120980D01*
X144973463Y-82231294D01*
X145052815Y-82327985D01*
X145149506Y-82407337D01*
X145259820Y-82466302D01*
X145379518Y-82502612D01*
X145504000Y-82514872D01*
X147104000Y-82514872D01*
X147228482Y-82502612D01*
X147348180Y-82466302D01*
X147458494Y-82407337D01*
X147555185Y-82327985D01*
X147634537Y-82231294D01*
X147693502Y-82120980D01*
X147729812Y-82001282D01*
X147730643Y-81992839D01*
X147929241Y-82191437D01*
X148164273Y-82348480D01*
X148425426Y-82456653D01*
X148702665Y-82511800D01*
X148985335Y-82511800D01*
X149262574Y-82456653D01*
X149409001Y-82396001D01*
X149409001Y-83704196D01*
X149210407Y-83902790D01*
X148990260Y-83859000D01*
X148697740Y-83859000D01*
X148410842Y-83916068D01*
X148140589Y-84028010D01*
X147897368Y-84190525D01*
X147765513Y-84322380D01*
X147743502Y-84249820D01*
X147684537Y-84139506D01*
X147605185Y-84042815D01*
X147508494Y-83963463D01*
X147398180Y-83904498D01*
X147278482Y-83868188D01*
X147154000Y-83855928D01*
X145454000Y-83855928D01*
X145329518Y-83868188D01*
X145209820Y-83904498D01*
X145099506Y-83963463D01*
X145002815Y-84042815D01*
X144923463Y-84139506D01*
X144864498Y-84249820D01*
X144828188Y-84369518D01*
X144815928Y-84494000D01*
X143408000Y-84494000D01*
X143408000Y-73315465D01*
X144869000Y-73315465D01*
X144869000Y-73598135D01*
X144924147Y-73875374D01*
X145032320Y-74136527D01*
X145189363Y-74371559D01*
X145389241Y-74571437D01*
X145624273Y-74728480D01*
X145885426Y-74836653D01*
X146162665Y-74891800D01*
X146445335Y-74891800D01*
X146722574Y-74836653D01*
X146983727Y-74728480D01*
X147218759Y-74571437D01*
X147418637Y-74371559D01*
X147574000Y-74139041D01*
X147729363Y-74371559D01*
X147929241Y-74571437D01*
X148164273Y-74728480D01*
X148425426Y-74836653D01*
X148702665Y-74891800D01*
X148985335Y-74891800D01*
X149262574Y-74836653D01*
X149523727Y-74728480D01*
X149758759Y-74571437D01*
X149958637Y-74371559D01*
X150114000Y-74139041D01*
X150269363Y-74371559D01*
X150469241Y-74571437D01*
X150704273Y-74728480D01*
X150965426Y-74836653D01*
X151242665Y-74891800D01*
X151525335Y-74891800D01*
X151802574Y-74836653D01*
X152063727Y-74728480D01*
X152298759Y-74571437D01*
X152498637Y-74371559D01*
X152654000Y-74139041D01*
X152809363Y-74371559D01*
X153009241Y-74571437D01*
X153244273Y-74728480D01*
X153505426Y-74836653D01*
X153782665Y-74891800D01*
X154065335Y-74891800D01*
X154342574Y-74836653D01*
X154603727Y-74728480D01*
X154838759Y-74571437D01*
X155038637Y-74371559D01*
X155195680Y-74136527D01*
X155200067Y-74125935D01*
X155311615Y-74311931D01*
X155500586Y-74520319D01*
X155726580Y-74687837D01*
X155980913Y-74808046D01*
X156114961Y-74848704D01*
X156337000Y-74726715D01*
X156337000Y-73583800D01*
X156317000Y-73583800D01*
X156317000Y-73329800D01*
X156337000Y-73329800D01*
X156337000Y-72186885D01*
X156591000Y-72186885D01*
X156591000Y-73329800D01*
X156611000Y-73329800D01*
X156611000Y-73583800D01*
X156591000Y-73583800D01*
X156591000Y-74726715D01*
X156813039Y-74848704D01*
X156947087Y-74808046D01*
X157201420Y-74687837D01*
X157427414Y-74520319D01*
X157616385Y-74311931D01*
X157727933Y-74125935D01*
X157732320Y-74136527D01*
X157889363Y-74371559D01*
X158089241Y-74571437D01*
X158324273Y-74728480D01*
X158585426Y-74836653D01*
X158862665Y-74891800D01*
X159145335Y-74891800D01*
X159422574Y-74836653D01*
X159683727Y-74728480D01*
X159918759Y-74571437D01*
X160118637Y-74371559D01*
X160274000Y-74139041D01*
X160429363Y-74371559D01*
X160629241Y-74571437D01*
X160864273Y-74728480D01*
X161125426Y-74836653D01*
X161402665Y-74891800D01*
X161685335Y-74891800D01*
X161962574Y-74836653D01*
X162223727Y-74728480D01*
X162458759Y-74571437D01*
X162658637Y-74371559D01*
X162814000Y-74139041D01*
X162969363Y-74371559D01*
X163169241Y-74571437D01*
X163404273Y-74728480D01*
X163665426Y-74836653D01*
X163942665Y-74891800D01*
X164225335Y-74891800D01*
X164502574Y-74836653D01*
X164763727Y-74728480D01*
X164998759Y-74571437D01*
X165198637Y-74371559D01*
X165355680Y-74136527D01*
X165463853Y-73875374D01*
X165519000Y-73598135D01*
X165519000Y-73315465D01*
X165463853Y-73038226D01*
X165355680Y-72777073D01*
X165198637Y-72542041D01*
X164998759Y-72342163D01*
X164763727Y-72185120D01*
X164502574Y-72076947D01*
X164225335Y-72021800D01*
X163942665Y-72021800D01*
X163665426Y-72076947D01*
X163404273Y-72185120D01*
X163169241Y-72342163D01*
X162969363Y-72542041D01*
X162814000Y-72774559D01*
X162658637Y-72542041D01*
X162458759Y-72342163D01*
X162223727Y-72185120D01*
X161962574Y-72076947D01*
X161685335Y-72021800D01*
X161402665Y-72021800D01*
X161125426Y-72076947D01*
X160864273Y-72185120D01*
X160629241Y-72342163D01*
X160429363Y-72542041D01*
X160274000Y-72774559D01*
X160118637Y-72542041D01*
X159918759Y-72342163D01*
X159683727Y-72185120D01*
X159422574Y-72076947D01*
X159145335Y-72021800D01*
X158862665Y-72021800D01*
X158585426Y-72076947D01*
X158324273Y-72185120D01*
X158089241Y-72342163D01*
X157889363Y-72542041D01*
X157732320Y-72777073D01*
X157727933Y-72787665D01*
X157616385Y-72601669D01*
X157427414Y-72393281D01*
X157201420Y-72225763D01*
X156947087Y-72105554D01*
X156813039Y-72064896D01*
X156591000Y-72186885D01*
X156337000Y-72186885D01*
X156114961Y-72064896D01*
X155980913Y-72105554D01*
X155726580Y-72225763D01*
X155500586Y-72393281D01*
X155311615Y-72601669D01*
X155200067Y-72787665D01*
X155195680Y-72777073D01*
X155038637Y-72542041D01*
X154838759Y-72342163D01*
X154603727Y-72185120D01*
X154342574Y-72076947D01*
X154065335Y-72021800D01*
X153782665Y-72021800D01*
X153505426Y-72076947D01*
X153244273Y-72185120D01*
X153009241Y-72342163D01*
X152809363Y-72542041D01*
X152654000Y-72774559D01*
X152498637Y-72542041D01*
X152298759Y-72342163D01*
X152063727Y-72185120D01*
X151802574Y-72076947D01*
X151525335Y-72021800D01*
X151242665Y-72021800D01*
X150965426Y-72076947D01*
X150704273Y-72185120D01*
X150469241Y-72342163D01*
X150269363Y-72542041D01*
X150114000Y-72774559D01*
X149958637Y-72542041D01*
X149758759Y-72342163D01*
X149523727Y-72185120D01*
X149262574Y-72076947D01*
X148985335Y-72021800D01*
X148702665Y-72021800D01*
X148425426Y-72076947D01*
X148164273Y-72185120D01*
X147929241Y-72342163D01*
X147729363Y-72542041D01*
X147574000Y-72774559D01*
X147418637Y-72542041D01*
X147218759Y-72342163D01*
X146983727Y-72185120D01*
X146722574Y-72076947D01*
X146445335Y-72021800D01*
X146162665Y-72021800D01*
X145885426Y-72076947D01*
X145624273Y-72185120D01*
X145389241Y-72342163D01*
X145189363Y-72542041D01*
X145032320Y-72777073D01*
X144924147Y-73038226D01*
X144869000Y-73315465D01*
X143408000Y-73315465D01*
X143408000Y-71247000D01*
X166497000Y-71247000D01*
X166497000Y-76185985D01*
G37*
X166497000Y-76185985D02*
X166322102Y-76220774D01*
X166133744Y-76298795D01*
X165964226Y-76412063D01*
X165820063Y-76556226D01*
X165706795Y-76725744D01*
X165628774Y-76914102D01*
X165589000Y-77114061D01*
X165589000Y-77317939D01*
X165628774Y-77517898D01*
X165706795Y-77706256D01*
X165820063Y-77875774D01*
X165964226Y-78019937D01*
X166133744Y-78133205D01*
X166322102Y-78211226D01*
X166497000Y-78246015D01*
X166497000Y-94869000D01*
X143408000Y-94869000D01*
X143408000Y-84494000D01*
X144815928Y-84494000D01*
X144815928Y-86194000D01*
X144828188Y-86318482D01*
X144864498Y-86438180D01*
X144923463Y-86548494D01*
X145002815Y-86645185D01*
X145099506Y-86724537D01*
X145209820Y-86783502D01*
X145329518Y-86819812D01*
X145454000Y-86832072D01*
X147154000Y-86832072D01*
X147278482Y-86819812D01*
X147398180Y-86783502D01*
X147508494Y-86724537D01*
X147605185Y-86645185D01*
X147684537Y-86548494D01*
X147743502Y-86438180D01*
X147765513Y-86365620D01*
X147897368Y-86497475D01*
X148140589Y-86659990D01*
X148410842Y-86771932D01*
X148697740Y-86829000D01*
X148990260Y-86829000D01*
X149277158Y-86771932D01*
X149547411Y-86659990D01*
X149790632Y-86497475D01*
X149997475Y-86290632D01*
X150114000Y-86116240D01*
X150230525Y-86290632D01*
X150437368Y-86497475D01*
X150624001Y-86622179D01*
X150624001Y-87846668D01*
X150620324Y-87884000D01*
X150634998Y-88032985D01*
X150678454Y-88176246D01*
X150749026Y-88308276D01*
X150786104Y-88353455D01*
X150844000Y-88424001D01*
X150872998Y-88447799D01*
X150924272Y-88499073D01*
X150680589Y-88600010D01*
X150437368Y-88762525D01*
X150230525Y-88969368D01*
X150068010Y-89212589D01*
X149956068Y-89482842D01*
X149899000Y-89769740D01*
X149899000Y-90062260D01*
X149956068Y-90349158D01*
X150068010Y-90619411D01*
X150230525Y-90862632D01*
X150362380Y-90994487D01*
X150289820Y-91016498D01*
X150179506Y-91075463D01*
X150082815Y-91154815D01*
X150003463Y-91251506D01*
X149944498Y-91361820D01*
X149908188Y-91481518D01*
X149895928Y-91606000D01*
X149895928Y-93306000D01*
X149908188Y-93430482D01*
X149944498Y-93550180D01*
X150003463Y-93660494D01*
X150082815Y-93757185D01*
X150179506Y-93836537D01*
X150289820Y-93895502D01*
X150409518Y-93931812D01*
X150534000Y-93944072D01*
X152234000Y-93944072D01*
X152358482Y-93931812D01*
X152478180Y-93895502D01*
X152588494Y-93836537D01*
X152685185Y-93757185D01*
X152764537Y-93660494D01*
X152823502Y-93550180D01*
X152845513Y-93477620D01*
X152977368Y-93609475D01*
X153220589Y-93771990D01*
X153490842Y-93883932D01*
X153777740Y-93941000D01*
X154070260Y-93941000D01*
X154357158Y-93883932D01*
X154627411Y-93771990D01*
X154870632Y-93609475D01*
X155077475Y-93402632D01*
X155199195Y-93220466D01*
X155268822Y-93337355D01*
X155463731Y-93553588D01*
X155697080Y-93727641D01*
X155959901Y-93852825D01*
X156107110Y-93897476D01*
X156337000Y-93776155D01*
X156337000Y-92583000D01*
X156591000Y-92583000D01*
X156591000Y-93776155D01*
X156820890Y-93897476D01*
X156968099Y-93852825D01*
X157230920Y-93727641D01*
X157464269Y-93553588D01*
X157659178Y-93337355D01*
X157734000Y-93211745D01*
X157808822Y-93337355D01*
X158003731Y-93553588D01*
X158237080Y-93727641D01*
X158499901Y-93852825D01*
X158647110Y-93897476D01*
X158877000Y-93776155D01*
X158877000Y-92583000D01*
X159131000Y-92583000D01*
X159131000Y-93776155D01*
X159360890Y-93897476D01*
X159508099Y-93852825D01*
X159770920Y-93727641D01*
X160004269Y-93553588D01*
X160199178Y-93337355D01*
X160348157Y-93087252D01*
X160445481Y-92812891D01*
X160324814Y-92583000D01*
X159131000Y-92583000D01*
X158877000Y-92583000D01*
X156591000Y-92583000D01*
X156337000Y-92583000D01*
X156317000Y-92583000D01*
X156317000Y-92329000D01*
X156337000Y-92329000D01*
X156337000Y-92309000D01*
X156591000Y-92309000D01*
X156591000Y-92329000D01*
X158877000Y-92329000D01*
X158877000Y-92309000D01*
X159131000Y-92309000D01*
X159131000Y-92329000D01*
X160324814Y-92329000D01*
X160445481Y-92099109D01*
X160348157Y-91824748D01*
X160199178Y-91574645D01*
X160004269Y-91358412D01*
X159774594Y-91187100D01*
X159950632Y-91069475D01*
X160157475Y-90862632D01*
X160319990Y-90619411D01*
X160431932Y-90349158D01*
X160489000Y-90062260D01*
X160489000Y-89769740D01*
X160431932Y-89482842D01*
X160319990Y-89212589D01*
X160157475Y-88969368D01*
X159950632Y-88762525D01*
X159707411Y-88600010D01*
X159437158Y-88488068D01*
X159150260Y-88431000D01*
X158857740Y-88431000D01*
X158570842Y-88488068D01*
X158300589Y-88600010D01*
X158057368Y-88762525D01*
X157850525Y-88969368D01*
X157734000Y-89143760D01*
X157617475Y-88969368D01*
X157410632Y-88762525D01*
X157167411Y-88600010D01*
X156897158Y-88488068D01*
X156610260Y-88431000D01*
X156317740Y-88431000D01*
X156030842Y-88488068D01*
X155760589Y-88600010D01*
X155517368Y-88762525D01*
X155310525Y-88969368D01*
X155194000Y-89143760D01*
X155077475Y-88969368D01*
X154870632Y-88762525D01*
X154684000Y-88637822D01*
X154684000Y-86622178D01*
X154870632Y-86497475D01*
X155077475Y-86290632D01*
X155199195Y-86108466D01*
X155268822Y-86225355D01*
X155463731Y-86441588D01*
X155697080Y-86615641D01*
X155959901Y-86740825D01*
X156107110Y-86785476D01*
X156337000Y-86664155D01*
X156337000Y-85471000D01*
X156317000Y-85471000D01*
X156317000Y-85217000D01*
X156337000Y-85217000D01*
X156337000Y-84023845D01*
X156591000Y-84023845D01*
X156591000Y-85217000D01*
X156611000Y-85217000D01*
X156611000Y-85471000D01*
X156591000Y-85471000D01*
X156591000Y-86664155D01*
X156820890Y-86785476D01*
X156968099Y-86740825D01*
X157230920Y-86615641D01*
X157464269Y-86441588D01*
X157659178Y-86225355D01*
X157728805Y-86108466D01*
X157850525Y-86290632D01*
X158057368Y-86497475D01*
X158300589Y-86659990D01*
X158570842Y-86771932D01*
X158857740Y-86829000D01*
X159150260Y-86829000D01*
X159437158Y-86771932D01*
X159707411Y-86659990D01*
X159950632Y-86497475D01*
X160157475Y-86290632D01*
X160279195Y-86108466D01*
X160348822Y-86225355D01*
X160543731Y-86441588D01*
X160777080Y-86615641D01*
X161039901Y-86740825D01*
X161187110Y-86785476D01*
X161417000Y-86664155D01*
X161417000Y-85471000D01*
X161397000Y-85471000D01*
X161397000Y-85217000D01*
X161417000Y-85217000D01*
X161417000Y-84023845D01*
X161671000Y-84023845D01*
X161671000Y-85217000D01*
X161691000Y-85217000D01*
X161691000Y-85471000D01*
X161671000Y-85471000D01*
X161671000Y-86664155D01*
X161900890Y-86785476D01*
X162048099Y-86740825D01*
X162310920Y-86615641D01*
X162544269Y-86441588D01*
X162739178Y-86225355D01*
X162808805Y-86108466D01*
X162930525Y-86290632D01*
X163137368Y-86497475D01*
X163380589Y-86659990D01*
X163650842Y-86771932D01*
X163937740Y-86829000D01*
X164230260Y-86829000D01*
X164517158Y-86771932D01*
X164787411Y-86659990D01*
X165030632Y-86497475D01*
X165237475Y-86290632D01*
X165399990Y-86047411D01*
X165511932Y-85777158D01*
X165569000Y-85490260D01*
X165569000Y-85197740D01*
X165511932Y-84910842D01*
X165399990Y-84640589D01*
X165237475Y-84397368D01*
X165030632Y-84190525D01*
X164787411Y-84028010D01*
X164517158Y-83916068D01*
X164230260Y-83859000D01*
X163937740Y-83859000D01*
X163650842Y-83916068D01*
X163380589Y-84028010D01*
X163137368Y-84190525D01*
X162930525Y-84397368D01*
X162808805Y-84579534D01*
X162739178Y-84462645D01*
X162544269Y-84246412D01*
X162310920Y-84072359D01*
X162048099Y-83947175D01*
X161900890Y-83902524D01*
X161671000Y-84023845D01*
X161417000Y-84023845D01*
X161187110Y-83902524D01*
X161039901Y-83947175D01*
X160777080Y-84072359D01*
X160543731Y-84246412D01*
X160348822Y-84462645D01*
X160279195Y-84579534D01*
X160157475Y-84397368D01*
X159950632Y-84190525D01*
X159707411Y-84028010D01*
X159437158Y-83916068D01*
X159150260Y-83859000D01*
X158857740Y-83859000D01*
X158570842Y-83916068D01*
X158300589Y-84028010D01*
X158057368Y-84190525D01*
X157850525Y-84397368D01*
X157728805Y-84579534D01*
X157659178Y-84462645D01*
X157464269Y-84246412D01*
X157230920Y-84072359D01*
X156968099Y-83947175D01*
X156820890Y-83902524D01*
X156591000Y-84023845D01*
X156337000Y-84023845D01*
X156107110Y-83902524D01*
X155959901Y-83947175D01*
X155697080Y-84072359D01*
X155463731Y-84246412D01*
X155268822Y-84462645D01*
X155199195Y-84579534D01*
X155077475Y-84397368D01*
X154870632Y-84190525D01*
X154627411Y-84028010D01*
X154357158Y-83916068D01*
X154070260Y-83859000D01*
X153777740Y-83859000D01*
X153490842Y-83916068D01*
X153220589Y-84028010D01*
X152977368Y-84190525D01*
X152770525Y-84397368D01*
X152654000Y-84571760D01*
X152537475Y-84397368D01*
X152330632Y-84190525D01*
X152087411Y-84028010D01*
X151817158Y-83916068D01*
X151530260Y-83859000D01*
X151237740Y-83859000D01*
X150950842Y-83916068D01*
X150929001Y-83925115D01*
X150929001Y-82441565D01*
X150965426Y-82456653D01*
X151242665Y-82511800D01*
X151525335Y-82511800D01*
X151802574Y-82456653D01*
X152063727Y-82348480D01*
X152298759Y-82191437D01*
X152498637Y-81991559D01*
X152654000Y-81759041D01*
X152809363Y-81991559D01*
X153009241Y-82191437D01*
X153244273Y-82348480D01*
X153505426Y-82456653D01*
X153782665Y-82511800D01*
X154065335Y-82511800D01*
X154342574Y-82456653D01*
X154603727Y-82348480D01*
X154838759Y-82191437D01*
X155038637Y-81991559D01*
X155194000Y-81759041D01*
X155349363Y-81991559D01*
X155549241Y-82191437D01*
X155784273Y-82348480D01*
X156045426Y-82456653D01*
X156322665Y-82511800D01*
X156605335Y-82511800D01*
X156882574Y-82456653D01*
X157143727Y-82348480D01*
X157378759Y-82191437D01*
X157578637Y-81991559D01*
X157734000Y-81759041D01*
X157889363Y-81991559D01*
X158089241Y-82191437D01*
X158324273Y-82348480D01*
X158585426Y-82456653D01*
X158862665Y-82511800D01*
X159145335Y-82511800D01*
X159422574Y-82456653D01*
X159683727Y-82348480D01*
X159918759Y-82191437D01*
X160118637Y-81991559D01*
X160274000Y-81759041D01*
X160429363Y-81991559D01*
X160629241Y-82191437D01*
X160864273Y-82348480D01*
X161125426Y-82456653D01*
X161402665Y-82511800D01*
X161685335Y-82511800D01*
X161962574Y-82456653D01*
X162223727Y-82348480D01*
X162458759Y-82191437D01*
X162658637Y-81991559D01*
X162814000Y-81759041D01*
X162969363Y-81991559D01*
X163169241Y-82191437D01*
X163404273Y-82348480D01*
X163665426Y-82456653D01*
X163942665Y-82511800D01*
X164225335Y-82511800D01*
X164502574Y-82456653D01*
X164763727Y-82348480D01*
X164998759Y-82191437D01*
X165198637Y-81991559D01*
X165355680Y-81756527D01*
X165463853Y-81495374D01*
X165519000Y-81218135D01*
X165519000Y-80935465D01*
X165463853Y-80658226D01*
X165355680Y-80397073D01*
X165198637Y-80162041D01*
X164998759Y-79962163D01*
X164763727Y-79805120D01*
X164502574Y-79696947D01*
X164225335Y-79641800D01*
X163942665Y-79641800D01*
X163665426Y-79696947D01*
X163404273Y-79805120D01*
X163169241Y-79962163D01*
X162969363Y-80162041D01*
X162814000Y-80394559D01*
X162658637Y-80162041D01*
X162458759Y-79962163D01*
X162223727Y-79805120D01*
X161962574Y-79696947D01*
X161685335Y-79641800D01*
X161402665Y-79641800D01*
X161220114Y-79678112D01*
X160782802Y-79240801D01*
X160759000Y-79211798D01*
X160643275Y-79116825D01*
X160511246Y-79046253D01*
X160367985Y-79002796D01*
X160256332Y-78991799D01*
X160256321Y-78991799D01*
X160218999Y-78988123D01*
X160181677Y-78991799D01*
X151081321Y-78991799D01*
X151043998Y-78988123D01*
X151006675Y-78991799D01*
X151006666Y-78991799D01*
X150895013Y-79002796D01*
X150751752Y-79046253D01*
X150619722Y-79116825D01*
X150536082Y-79185467D01*
X150503998Y-79211798D01*
X150480200Y-79240796D01*
X149758796Y-79962200D01*
X149758759Y-79962163D01*
X149523727Y-79805120D01*
X149262574Y-79696947D01*
X148985335Y-79641800D01*
X148702665Y-79641800D01*
X148425426Y-79696947D01*
X148164273Y-79805120D01*
X147929241Y-79962163D01*
X147730643Y-80160761D01*
X147729812Y-80152318D01*
X147693502Y-80032620D01*
X147634537Y-79922306D01*
X147555185Y-79825615D01*
X147458494Y-79746263D01*
X147348180Y-79687298D01*
X147228482Y-79650988D01*
X147104000Y-79638728D01*
X145504000Y-79638728D01*
X145379518Y-79650988D01*
X145259820Y-79687298D01*
X145149506Y-79746263D01*
X145052815Y-79825615D01*
X144973463Y-79922306D01*
X144914498Y-80032620D01*
X144878188Y-80152318D01*
X144865928Y-80276800D01*
X144865928Y-81876800D01*
X144878188Y-82001282D01*
X144914498Y-82120980D01*
X144973463Y-82231294D01*
X145052815Y-82327985D01*
X145149506Y-82407337D01*
X145259820Y-82466302D01*
X145379518Y-82502612D01*
X145504000Y-82514872D01*
X147104000Y-82514872D01*
X147228482Y-82502612D01*
X147348180Y-82466302D01*
X147458494Y-82407337D01*
X147555185Y-82327985D01*
X147634537Y-82231294D01*
X147693502Y-82120980D01*
X147729812Y-82001282D01*
X147730643Y-81992839D01*
X147929241Y-82191437D01*
X148164273Y-82348480D01*
X148425426Y-82456653D01*
X148702665Y-82511800D01*
X148985335Y-82511800D01*
X149262574Y-82456653D01*
X149409001Y-82396001D01*
X149409001Y-83704196D01*
X149210407Y-83902790D01*
X148990260Y-83859000D01*
X148697740Y-83859000D01*
X148410842Y-83916068D01*
X148140589Y-84028010D01*
X147897368Y-84190525D01*
X147765513Y-84322380D01*
X147743502Y-84249820D01*
X147684537Y-84139506D01*
X147605185Y-84042815D01*
X147508494Y-83963463D01*
X147398180Y-83904498D01*
X147278482Y-83868188D01*
X147154000Y-83855928D01*
X145454000Y-83855928D01*
X145329518Y-83868188D01*
X145209820Y-83904498D01*
X145099506Y-83963463D01*
X145002815Y-84042815D01*
X144923463Y-84139506D01*
X144864498Y-84249820D01*
X144828188Y-84369518D01*
X144815928Y-84494000D01*
X143408000Y-84494000D01*
X143408000Y-73315465D01*
X144869000Y-73315465D01*
X144869000Y-73598135D01*
X144924147Y-73875374D01*
X145032320Y-74136527D01*
X145189363Y-74371559D01*
X145389241Y-74571437D01*
X145624273Y-74728480D01*
X145885426Y-74836653D01*
X146162665Y-74891800D01*
X146445335Y-74891800D01*
X146722574Y-74836653D01*
X146983727Y-74728480D01*
X147218759Y-74571437D01*
X147418637Y-74371559D01*
X147574000Y-74139041D01*
X147729363Y-74371559D01*
X147929241Y-74571437D01*
X148164273Y-74728480D01*
X148425426Y-74836653D01*
X148702665Y-74891800D01*
X148985335Y-74891800D01*
X149262574Y-74836653D01*
X149523727Y-74728480D01*
X149758759Y-74571437D01*
X149958637Y-74371559D01*
X150114000Y-74139041D01*
X150269363Y-74371559D01*
X150469241Y-74571437D01*
X150704273Y-74728480D01*
X150965426Y-74836653D01*
X151242665Y-74891800D01*
X151525335Y-74891800D01*
X151802574Y-74836653D01*
X152063727Y-74728480D01*
X152298759Y-74571437D01*
X152498637Y-74371559D01*
X152654000Y-74139041D01*
X152809363Y-74371559D01*
X153009241Y-74571437D01*
X153244273Y-74728480D01*
X153505426Y-74836653D01*
X153782665Y-74891800D01*
X154065335Y-74891800D01*
X154342574Y-74836653D01*
X154603727Y-74728480D01*
X154838759Y-74571437D01*
X155038637Y-74371559D01*
X155195680Y-74136527D01*
X155200067Y-74125935D01*
X155311615Y-74311931D01*
X155500586Y-74520319D01*
X155726580Y-74687837D01*
X155980913Y-74808046D01*
X156114961Y-74848704D01*
X156337000Y-74726715D01*
X156337000Y-73583800D01*
X156317000Y-73583800D01*
X156317000Y-73329800D01*
X156337000Y-73329800D01*
X156337000Y-72186885D01*
X156591000Y-72186885D01*
X156591000Y-73329800D01*
X156611000Y-73329800D01*
X156611000Y-73583800D01*
X156591000Y-73583800D01*
X156591000Y-74726715D01*
X156813039Y-74848704D01*
X156947087Y-74808046D01*
X157201420Y-74687837D01*
X157427414Y-74520319D01*
X157616385Y-74311931D01*
X157727933Y-74125935D01*
X157732320Y-74136527D01*
X157889363Y-74371559D01*
X158089241Y-74571437D01*
X158324273Y-74728480D01*
X158585426Y-74836653D01*
X158862665Y-74891800D01*
X159145335Y-74891800D01*
X159422574Y-74836653D01*
X159683727Y-74728480D01*
X159918759Y-74571437D01*
X160118637Y-74371559D01*
X160274000Y-74139041D01*
X160429363Y-74371559D01*
X160629241Y-74571437D01*
X160864273Y-74728480D01*
X161125426Y-74836653D01*
X161402665Y-74891800D01*
X161685335Y-74891800D01*
X161962574Y-74836653D01*
X162223727Y-74728480D01*
X162458759Y-74571437D01*
X162658637Y-74371559D01*
X162814000Y-74139041D01*
X162969363Y-74371559D01*
X163169241Y-74571437D01*
X163404273Y-74728480D01*
X163665426Y-74836653D01*
X163942665Y-74891800D01*
X164225335Y-74891800D01*
X164502574Y-74836653D01*
X164763727Y-74728480D01*
X164998759Y-74571437D01*
X165198637Y-74371559D01*
X165355680Y-74136527D01*
X165463853Y-73875374D01*
X165519000Y-73598135D01*
X165519000Y-73315465D01*
X165463853Y-73038226D01*
X165355680Y-72777073D01*
X165198637Y-72542041D01*
X164998759Y-72342163D01*
X164763727Y-72185120D01*
X164502574Y-72076947D01*
X164225335Y-72021800D01*
X163942665Y-72021800D01*
X163665426Y-72076947D01*
X163404273Y-72185120D01*
X163169241Y-72342163D01*
X162969363Y-72542041D01*
X162814000Y-72774559D01*
X162658637Y-72542041D01*
X162458759Y-72342163D01*
X162223727Y-72185120D01*
X161962574Y-72076947D01*
X161685335Y-72021800D01*
X161402665Y-72021800D01*
X161125426Y-72076947D01*
X160864273Y-72185120D01*
X160629241Y-72342163D01*
X160429363Y-72542041D01*
X160274000Y-72774559D01*
X160118637Y-72542041D01*
X159918759Y-72342163D01*
X159683727Y-72185120D01*
X159422574Y-72076947D01*
X159145335Y-72021800D01*
X158862665Y-72021800D01*
X158585426Y-72076947D01*
X158324273Y-72185120D01*
X158089241Y-72342163D01*
X157889363Y-72542041D01*
X157732320Y-72777073D01*
X157727933Y-72787665D01*
X157616385Y-72601669D01*
X157427414Y-72393281D01*
X157201420Y-72225763D01*
X156947087Y-72105554D01*
X156813039Y-72064896D01*
X156591000Y-72186885D01*
X156337000Y-72186885D01*
X156114961Y-72064896D01*
X155980913Y-72105554D01*
X155726580Y-72225763D01*
X155500586Y-72393281D01*
X155311615Y-72601669D01*
X155200067Y-72787665D01*
X155195680Y-72777073D01*
X155038637Y-72542041D01*
X154838759Y-72342163D01*
X154603727Y-72185120D01*
X154342574Y-72076947D01*
X154065335Y-72021800D01*
X153782665Y-72021800D01*
X153505426Y-72076947D01*
X153244273Y-72185120D01*
X153009241Y-72342163D01*
X152809363Y-72542041D01*
X152654000Y-72774559D01*
X152498637Y-72542041D01*
X152298759Y-72342163D01*
X152063727Y-72185120D01*
X151802574Y-72076947D01*
X151525335Y-72021800D01*
X151242665Y-72021800D01*
X150965426Y-72076947D01*
X150704273Y-72185120D01*
X150469241Y-72342163D01*
X150269363Y-72542041D01*
X150114000Y-72774559D01*
X149958637Y-72542041D01*
X149758759Y-72342163D01*
X149523727Y-72185120D01*
X149262574Y-72076947D01*
X148985335Y-72021800D01*
X148702665Y-72021800D01*
X148425426Y-72076947D01*
X148164273Y-72185120D01*
X147929241Y-72342163D01*
X147729363Y-72542041D01*
X147574000Y-72774559D01*
X147418637Y-72542041D01*
X147218759Y-72342163D01*
X146983727Y-72185120D01*
X146722574Y-72076947D01*
X146445335Y-72021800D01*
X146162665Y-72021800D01*
X145885426Y-72076947D01*
X145624273Y-72185120D01*
X145389241Y-72342163D01*
X145189363Y-72542041D01*
X145032320Y-72777073D01*
X144924147Y-73038226D01*
X144869000Y-73315465D01*
X143408000Y-73315465D01*
X143408000Y-71247000D01*
X166497000Y-71247000D01*
X166497000Y-76185985D01*
%TD*%
M02*
