M48
; DRILL file {KiCad 5.1.6-c6e7f7d~87~ubuntu20.04.1} date Thu Sep  3 23:23:32 2020
; FORMAT={-:-/ absolute / inch / decimal}
; #@! TF.CreationDate,2020-09-03T23:23:32-04:00
; #@! TF.GenerationSoftware,Kicad,Pcbnew,5.1.6-c6e7f7d~87~ubuntu20.04.1
FMAT,2
INCH
T1C0.0157
T2C0.0300
T3C0.0394
%
G90
G05
T1
X2.6565Y-3.4935
X2.66Y-3.34
X2.7029Y-3.5971
X2.71Y-1.74
X2.81Y-3.49
X2.86Y-3.54
X2.91Y-3.7099
X3.81Y-1.74
X4.61Y-2.49
X4.61Y-2.59
X4.61Y-2.69
X4.71Y-2.49
X4.71Y-2.69
X4.81Y-2.49
X4.81Y-2.59
X4.81Y-2.69
X5.26Y-1.74
X5.71Y-3.64
X5.71Y-3.74
X5.71Y-3.84
X5.81Y-3.74
X5.81Y-3.84
X5.91Y-3.74
X5.91Y-3.84
X6.11Y-3.19
X6.31Y-3.09
X6.31Y-3.19
X6.5181Y-2.6481
X6.71Y-1.74
X6.91Y-2.74
X6.96Y-2.59
X7.01Y-2.74
X8.16Y-1.74
X8.66Y-1.74
T2
X7.71Y-2.99
X7.81Y-2.99
X9.11Y-3.29
X9.11Y-3.39
X9.11Y-3.49
T3
X3.31Y-1.49
X3.41Y-1.49
X3.51Y-1.49
X3.61Y-1.49
X3.71Y-1.49
X3.81Y-1.49
X3.91Y-1.49
X4.01Y-1.49
X4.76Y-1.49
X4.86Y-1.49
X4.96Y-1.49
X5.06Y-1.49
X5.16Y-1.49
X5.26Y-1.49
X5.36Y-1.49
X5.46Y-1.49
X9.11Y-1.49
X9.21Y-1.49
X9.31Y-1.49
X9.41Y-1.49
X9.51Y-1.49
X9.61Y-1.49
X9.71Y-1.49
X9.81Y-1.49
X2.16Y-3.14
X2.16Y-3.24
X2.26Y-3.14
X2.26Y-3.24
X2.36Y-3.14
X2.36Y-3.24
X2.46Y-3.14
X2.46Y-3.24
X2.56Y-3.14
X2.56Y-3.24
X2.66Y-3.14
X2.66Y-3.24
X2.76Y-3.14
X2.76Y-3.24
X2.86Y-3.14
X2.86Y-3.24
X2.96Y-3.14
X2.96Y-3.24
X3.06Y-3.14
X3.06Y-3.24
X3.16Y-3.14
X3.16Y-3.24
X3.26Y-3.14
X3.26Y-3.24
X3.36Y-3.14
X3.36Y-3.24
X3.46Y-3.14
X3.46Y-3.24
X3.56Y-3.14
X3.56Y-3.24
X3.66Y-3.14
X3.66Y-3.24
X3.76Y-3.14
X3.76Y-3.24
X3.86Y-3.14
X3.86Y-3.24
X3.96Y-3.14
X3.96Y-3.24
X4.06Y-3.14
X4.06Y-3.24
X1.91Y-1.49
X2.01Y-1.49
X2.11Y-1.49
X2.21Y-1.49
X2.31Y-1.49
X2.41Y-1.49
X2.51Y-1.49
X2.61Y-1.49
X6.21Y-1.49
X6.31Y-1.49
X6.41Y-1.49
X6.51Y-1.49
X6.61Y-1.49
X6.71Y-1.49
X6.81Y-1.49
X6.91Y-1.49
X7.66Y-1.49
X7.76Y-1.49
X7.86Y-1.49
X7.96Y-1.49
X8.06Y-1.49
X8.16Y-1.49
X8.26Y-1.49
X8.36Y-1.49
T3
G00X5.7706Y-3.44
M15
G01X5.8494Y-3.44
M16
G05
G00X5.7706Y-3.6762
M15
G01X5.8494Y-3.6762
M16
G05
G00X5.995Y-3.5975
M15
G01X5.995Y-3.5187
M16
G05
T0
M30
