%TF.GenerationSoftware,KiCad,Pcbnew,5.1.6-c6e7f7d~87~ubuntu20.04.1*%
%TF.CreationDate,2020-09-03T23:23:25-04:00*%
%TF.ProjectId,Nixie_Clk_Mother,4e697869-655f-4436-9c6b-5f4d6f746865,rev?*%
%TF.SameCoordinates,Original*%
%TF.FileFunction,Soldermask,Top*%
%TF.FilePolarity,Negative*%
%FSLAX46Y46*%
G04 Gerber Fmt 4.6, Leading zero omitted, Abs format (unit mm)*
G04 Created by KiCad (PCBNEW 5.1.6-c6e7f7d~87~ubuntu20.04.1) date 2020-09-03 23:23:25*
%MOMM*%
%LPD*%
G01*
G04 APERTURE LIST*
%ADD10C,0.150000*%
%ADD11C,0.250000*%
%ADD12C,0.200000*%
%ADD13C,0.500000*%
%ADD14O,1.800000X1.800000*%
%ADD15R,1.800000X1.800000*%
%ADD16C,1.624000*%
%ADD17R,2.100000X2.100000*%
%ADD18R,3.600000X3.600000*%
%ADD19R,2.792400X1.116000*%
%ADD20R,10.971200X10.564800*%
G04 APERTURE END LIST*
D10*
X239014000Y-37846000D02*
X239014000Y-41656000D01*
X236474000Y-37846000D02*
X236474000Y-41656000D01*
X233934000Y-37846000D02*
X233934000Y-41656000D01*
X231394000Y-37846000D02*
X231394000Y-41656000D01*
X202184000Y-37846000D02*
X198374000Y-41656000D01*
X199644000Y-37846000D02*
X195834000Y-41656000D01*
X197104000Y-39116000D02*
X194564000Y-41656000D01*
X197104000Y-37846000D02*
X197104000Y-39116000D01*
X194564000Y-37846000D02*
X190754000Y-41656000D01*
X165354000Y-37846000D02*
X161544000Y-41656000D01*
X162814000Y-39116000D02*
X160274000Y-41656000D01*
X162814000Y-37846000D02*
X162814000Y-39116000D01*
D11*
X160274000Y-39116000D02*
X157734000Y-41656000D01*
D10*
X160274000Y-37846000D02*
X160274000Y-39116000D01*
X157734000Y-37846000D02*
X153924000Y-41656000D01*
X128524000Y-37846000D02*
X124714000Y-41656000D01*
X125984000Y-37846000D02*
X122174000Y-41656000D01*
D12*
X123444000Y-39116000D02*
X120904000Y-41656000D01*
D10*
X123444000Y-37846000D02*
X123444000Y-39116000D01*
X120904000Y-37846000D02*
X117094000Y-41656000D01*
X56134000Y-37846000D02*
X59944000Y-41656000D01*
X53594000Y-37846000D02*
X57404000Y-41656000D01*
X51054000Y-37846000D02*
X54864000Y-41656000D01*
X48514000Y-37846000D02*
X52324000Y-41656000D01*
X91694000Y-37846000D02*
X91694000Y-41656000D01*
X89154000Y-37846000D02*
X89154000Y-41656000D01*
X86614000Y-37846000D02*
X86614000Y-41656000D01*
X84074000Y-37846000D02*
X84074000Y-41656000D01*
D13*
X103124000Y-82296000D02*
X106934000Y-82296000D01*
X90424000Y-79756000D02*
X90424000Y-75946000D01*
X75184000Y-79756000D02*
X75184000Y-75946000D01*
X54864000Y-82296000D02*
X54864000Y-86106000D01*
X59944000Y-86106000D02*
X59944000Y-82296000D01*
X62484000Y-86106000D02*
X62484000Y-82296000D01*
D14*
%TO.C,J7*%
X101854000Y-37846000D03*
X99314000Y-37846000D03*
X96774000Y-37846000D03*
X94234000Y-37846000D03*
X91694000Y-37846000D03*
X89154000Y-37846000D03*
X86614000Y-37846000D03*
D15*
X84074000Y-37846000D03*
%TD*%
D14*
%TO.C,J6*%
X138684000Y-37846000D03*
X136144000Y-37846000D03*
X133604000Y-37846000D03*
X131064000Y-37846000D03*
X128524000Y-37846000D03*
X125984000Y-37846000D03*
X123444000Y-37846000D03*
D15*
X120904000Y-37846000D03*
%TD*%
D14*
%TO.C,J5*%
X175514000Y-37846000D03*
X172974000Y-37846000D03*
X170434000Y-37846000D03*
X167894000Y-37846000D03*
X165354000Y-37846000D03*
X162814000Y-37846000D03*
X160274000Y-37846000D03*
D15*
X157734000Y-37846000D03*
%TD*%
D14*
%TO.C,J4*%
X212344000Y-37846000D03*
X209804000Y-37846000D03*
X207264000Y-37846000D03*
X204724000Y-37846000D03*
X202184000Y-37846000D03*
X199644000Y-37846000D03*
X197104000Y-37846000D03*
D15*
X194564000Y-37846000D03*
%TD*%
D14*
%TO.C,J3*%
X249174000Y-37846000D03*
X246634000Y-37846000D03*
X244094000Y-37846000D03*
X241554000Y-37846000D03*
X239014000Y-37846000D03*
X236474000Y-37846000D03*
X233934000Y-37846000D03*
D15*
X231394000Y-37846000D03*
%TD*%
D14*
%TO.C,J2*%
X66294000Y-37846000D03*
X63754000Y-37846000D03*
X61214000Y-37846000D03*
X58674000Y-37846000D03*
X56134000Y-37846000D03*
X53594000Y-37846000D03*
X51054000Y-37846000D03*
D15*
X48514000Y-37846000D03*
%TD*%
D16*
%TO.C,U2*%
X195834000Y-75946000D03*
X198374000Y-75946000D03*
X231394000Y-88646000D03*
X231394000Y-86106000D03*
X231394000Y-83566000D03*
%TD*%
D17*
%TO.C,TP1*%
X119634000Y-65786000D03*
%TD*%
%TO.C,TP5*%
X119634000Y-59436000D03*
%TD*%
D15*
%TO.C,J1*%
X54864000Y-79756000D03*
D14*
X54864000Y-82296000D03*
X57404000Y-79756000D03*
X57404000Y-82296000D03*
X59944000Y-79756000D03*
X59944000Y-82296000D03*
X62484000Y-79756000D03*
X62484000Y-82296000D03*
X65024000Y-79756000D03*
X65024000Y-82296000D03*
X67564000Y-79756000D03*
X67564000Y-82296000D03*
X70104000Y-79756000D03*
X70104000Y-82296000D03*
X72644000Y-79756000D03*
X72644000Y-82296000D03*
X75184000Y-79756000D03*
X75184000Y-82296000D03*
X77724000Y-79756000D03*
X77724000Y-82296000D03*
X80264000Y-79756000D03*
X80264000Y-82296000D03*
X82804000Y-79756000D03*
X82804000Y-82296000D03*
X85344000Y-79756000D03*
X85344000Y-82296000D03*
X87884000Y-79756000D03*
X87884000Y-82296000D03*
X90424000Y-79756000D03*
X90424000Y-82296000D03*
X92964000Y-79756000D03*
X92964000Y-82296000D03*
X95504000Y-79756000D03*
X95504000Y-82296000D03*
X98044000Y-79756000D03*
X98044000Y-82296000D03*
X100584000Y-79756000D03*
X100584000Y-82296000D03*
X103124000Y-79756000D03*
X103124000Y-82296000D03*
%TD*%
D18*
%TO.C,J8*%
X147574000Y-87376000D03*
G36*
G01*
X148599000Y-94926000D02*
X146549000Y-94926000D01*
G75*
G02*
X145774000Y-94151000I0J775000D01*
G01*
X145774000Y-92601000D01*
G75*
G02*
X146549000Y-91826000I775000J0D01*
G01*
X148599000Y-91826000D01*
G75*
G02*
X149374000Y-92601000I0J-775000D01*
G01*
X149374000Y-94151000D01*
G75*
G02*
X148599000Y-94926000I-775000J0D01*
G01*
G37*
G36*
G01*
X153174000Y-92176000D02*
X151374000Y-92176000D01*
G75*
G02*
X150474000Y-91276000I0J900000D01*
G01*
X150474000Y-89476000D01*
G75*
G02*
X151374000Y-88576000I900000J0D01*
G01*
X153174000Y-88576000D01*
G75*
G02*
X154074000Y-89476000I0J-900000D01*
G01*
X154074000Y-91276000D01*
G75*
G02*
X153174000Y-92176000I-900000J0D01*
G01*
G37*
%TD*%
D17*
%TO.C,TP2*%
X176758999Y-67260999D03*
%TD*%
%TO.C,TP3*%
X161544000Y-67260999D03*
%TD*%
%TO.C,TP4*%
X168658999Y-67260999D03*
%TD*%
%TO.C,TP6*%
X231394000Y-67056000D03*
%TD*%
D19*
%TO.C,U1*%
X160883600Y-78486000D03*
X160883600Y-81026000D03*
X160883600Y-83566000D03*
D20*
X169164000Y-81026000D03*
%TD*%
M02*
